solid CATIA STL
  facet normal  0.000000e+000 -1.000000e+000  0.000000e+000
    outer loop
      vertex  0.000000e+000  0.000000e+000  1.000000e+001
      vertex  3.850000e+001  0.000000e+000  5.000000e+000
      vertex  3.893934e+001  0.000000e+000  6.060660e+000
    endloop
  endfacet
  facet normal  0.000000e+000 -1.000000e+000  0.000000e+000
    outer loop
      vertex  0.000000e+000  0.000000e+000  1.000000e+001
      vertex  3.893934e+001  0.000000e+000  6.060660e+000
      vertex  4.000000e+001  0.000000e+000  6.500000e+000
    endloop
  endfacet
  facet normal  0.000000e+000 -1.000000e+000  0.000000e+000
    outer loop
      vertex  0.000000e+000  0.000000e+000  1.000000e+001
      vertex  4.000000e+001  0.000000e+000  6.500000e+000
      vertex  8.000000e+001  0.000000e+000  1.000000e+001
    endloop
  endfacet
  facet normal  -0.000000e+000 -1.000000e+000  0.000000e+000
    outer loop
      vertex  0.000000e+000  0.000000e+000  0.000000e+000
      vertex  4.000000e+001  0.000000e+000  3.500000e+000
      vertex  3.893934e+001  0.000000e+000  3.939340e+000
    endloop
  endfacet
  facet normal  -0.000000e+000 -1.000000e+000  0.000000e+000
    outer loop
      vertex  0.000000e+000  0.000000e+000  0.000000e+000
      vertex  3.893934e+001  0.000000e+000  3.939340e+000
      vertex  3.850000e+001  0.000000e+000  5.000000e+000
    endloop
  endfacet
  facet normal  -0.000000e+000 -1.000000e+000  0.000000e+000
    outer loop
      vertex  0.000000e+000  0.000000e+000  0.000000e+000
      vertex  3.850000e+001  0.000000e+000  5.000000e+000
      vertex  0.000000e+000  0.000000e+000  1.000000e+001
    endloop
  endfacet
  facet normal  0.000000e+000 -1.000000e+000  -0.000000e+000
    outer loop
      vertex  8.000000e+001  0.000000e+000  0.000000e+000
      vertex  8.000000e+001  0.000000e+000  1.000000e+001
      vertex  4.000000e+001  0.000000e+000  6.500000e+000
    endloop
  endfacet
  facet normal  0.000000e+000 -1.000000e+000  0.000000e+000
    outer loop
      vertex  8.000000e+001  0.000000e+000  0.000000e+000
      vertex  4.000000e+001  0.000000e+000  6.500000e+000
      vertex  4.106066e+001  0.000000e+000  6.060660e+000
    endloop
  endfacet
  facet normal  0.000000e+000 -1.000000e+000  0.000000e+000
    outer loop
      vertex  8.000000e+001  0.000000e+000  0.000000e+000
      vertex  4.106066e+001  0.000000e+000  6.060660e+000
      vertex  4.150000e+001  0.000000e+000  5.000000e+000
    endloop
  endfacet
  facet normal  0.000000e+000 -1.000000e+000  -0.000000e+000
    outer loop
      vertex  8.000000e+001  0.000000e+000  0.000000e+000
      vertex  4.150000e+001  0.000000e+000  5.000000e+000
      vertex  4.106066e+001  0.000000e+000  3.939340e+000
    endloop
  endfacet
  facet normal  0.000000e+000 -1.000000e+000  -0.000000e+000
    outer loop
      vertex  8.000000e+001  0.000000e+000  0.000000e+000
      vertex  4.106066e+001  0.000000e+000  3.939340e+000
      vertex  4.000000e+001  0.000000e+000  3.500000e+000
    endloop
  endfacet
  facet normal  0.000000e+000 -1.000000e+000  -0.000000e+000
    outer loop
      vertex  8.000000e+001  0.000000e+000  0.000000e+000
      vertex  4.000000e+001  0.000000e+000  3.500000e+000
      vertex  0.000000e+000  0.000000e+000  0.000000e+000
    endloop
  endfacet
  facet normal  0.000000e+000  1.000000e+000  -0.000000e+000
    outer loop
      vertex  8.000000e+001  2.000000e+001  1.000000e+001
      vertex  4.150000e+001  2.000000e+001  5.000000e+000
      vertex  4.106066e+001  2.000000e+001  6.060660e+000
    endloop
  endfacet
  facet normal  0.000000e+000  1.000000e+000  -0.000000e+000
    outer loop
      vertex  8.000000e+001  2.000000e+001  1.000000e+001
      vertex  4.106066e+001  2.000000e+001  6.060660e+000
      vertex  4.000000e+001  2.000000e+001  6.500000e+000
    endloop
  endfacet
  facet normal  0.000000e+000  1.000000e+000  -0.000000e+000
    outer loop
      vertex  8.000000e+001  2.000000e+001  1.000000e+001
      vertex  4.000000e+001  2.000000e+001  6.500000e+000
      vertex  0.000000e+000  2.000000e+001  1.000000e+001
    endloop
  endfacet
  facet normal  -0.000000e+000  1.000000e+000  0.000000e+000
    outer loop
      vertex  8.000000e+001  2.000000e+001  0.000000e+000
      vertex  4.000000e+001  2.000000e+001  3.500000e+000
      vertex  4.106066e+001  2.000000e+001  3.939340e+000
    endloop
  endfacet
  facet normal  -0.000000e+000  1.000000e+000  0.000000e+000
    outer loop
      vertex  8.000000e+001  2.000000e+001  0.000000e+000
      vertex  4.106066e+001  2.000000e+001  3.939340e+000
      vertex  4.150000e+001  2.000000e+001  5.000000e+000
    endloop
  endfacet
  facet normal  -0.000000e+000  1.000000e+000  0.000000e+000
    outer loop
      vertex  8.000000e+001  2.000000e+001  0.000000e+000
      vertex  4.150000e+001  2.000000e+001  5.000000e+000
      vertex  8.000000e+001  2.000000e+001  1.000000e+001
    endloop
  endfacet
  facet normal  0.000000e+000  1.000000e+000  0.000000e+000
    outer loop
      vertex  0.000000e+000  2.000000e+001  0.000000e+000
      vertex  0.000000e+000  2.000000e+001  1.000000e+001
      vertex  4.000000e+001  2.000000e+001  6.500000e+000
    endloop
  endfacet
  facet normal  0.000000e+000  1.000000e+000  0.000000e+000
    outer loop
      vertex  0.000000e+000  2.000000e+001  0.000000e+000
      vertex  4.000000e+001  2.000000e+001  6.500000e+000
      vertex  3.893934e+001  2.000000e+001  6.060660e+000
    endloop
  endfacet
  facet normal  0.000000e+000  1.000000e+000  0.000000e+000
    outer loop
      vertex  0.000000e+000  2.000000e+001  0.000000e+000
      vertex  3.893934e+001  2.000000e+001  6.060660e+000
      vertex  3.850000e+001  2.000000e+001  5.000000e+000
    endloop
  endfacet
  facet normal  0.000000e+000  1.000000e+000  0.000000e+000
    outer loop
      vertex  0.000000e+000  2.000000e+001  0.000000e+000
      vertex  3.850000e+001  2.000000e+001  5.000000e+000
      vertex  3.893934e+001  2.000000e+001  3.939340e+000
    endloop
  endfacet
  facet normal  0.000000e+000  1.000000e+000  0.000000e+000
    outer loop
      vertex  0.000000e+000  2.000000e+001  0.000000e+000
      vertex  3.893934e+001  2.000000e+001  3.939340e+000
      vertex  4.000000e+001  2.000000e+001  3.500000e+000
    endloop
  endfacet
  facet normal  0.000000e+000  1.000000e+000  0.000000e+000
    outer loop
      vertex  0.000000e+000  2.000000e+001  0.000000e+000
      vertex  4.000000e+001  2.000000e+001  3.500000e+000
      vertex  8.000000e+001  2.000000e+001  0.000000e+000
    endloop
  endfacet
  facet normal -9.510567e-001  3.090167e-001  0.000000e+000
    outer loop
      vertex  4.242705e+001  8.236644e+000  0.000000e+000
      vertex  4.242705e+001  8.236644e+000  5.000021e+000
      vertex  4.300000e+001  1.000000e+001  0.000000e+000
    endloop
  endfacet
  facet normal -4.854357e-001  8.742029e-001  1.102530e-002
    outer loop
      vertex  4.092705e+001  7.146831e+000  0.000000e+000
      vertex  4.124081e+001  7.268626e+000  4.157146e+000
      vertex  4.150000e+001  7.401924e+000  5.000000e+000
    endloop
  endfacet
  facet normal -3.444333e-001  9.388096e-001 -1.509511e-003
    outer loop
      vertex  4.092705e+001  7.146831e+000  0.000000e+000
      vertex  4.082811e+001  7.116558e+000  3.749305e+000
      vertex  4.124081e+001  7.268626e+000  4.157146e+000
    endloop
  endfacet
  facet normal  3.853489e-001  9.227696e-001 -1.570704e-003
    outer loop
      vertex  3.855488e+001  7.371002e+000  4.597966e+000
      vertex  3.913443e+001  7.127583e+000  3.774936e+000
      vertex  3.907295e+001  7.146831e+000  0.000000e+000
    endloop
  endfacet
  facet normal  9.510567e-001  3.090167e-001  -0.000000e+000
    outer loop
      vertex  3.757295e+001  8.236644e+000  7.000000e+000
      vertex  3.757295e+001  8.236644e+000  5.000021e+000
      vertex  3.700000e+001  1.000000e+001  7.000000e+000
    endloop
  endfacet
  facet normal  0.000000e+000  9.997033e-001 -2.435678e-002
    outer loop
      vertex  3.907295e+001  7.146831e+000  7.000000e+000
      vertex  4.092705e+001  7.146831e+000  7.000000e+000
      vertex  4.086673e+001  7.127930e+000  6.224249e+000
    endloop
  endfacet
  facet normal -3.050865e-001  6.225939e-001 -7.206241e-001
    outer loop
      vertex  3.907295e+001  7.146831e+000  7.000000e+000
      vertex  4.086673e+001  7.127930e+000  6.224249e+000
      vertex  3.995646e+001  7.000316e+000  6.499368e+000
    endloop
  endfacet
  facet normal  1.525127e-001  9.880987e-001 -2.002168e-002
    outer loop
      vertex  3.907295e+001  7.146831e+000  7.000000e+000
      vertex  3.995646e+001  7.000316e+000  6.499368e+000
      vertex  3.917314e+001  7.116199e+000  6.251522e+000
    endloop
  endfacet
  facet normal  3.393773e-001  9.406248e-001  6.935273e-003
    outer loop
      vertex  3.907295e+001  7.146831e+000  7.000000e+000
      vertex  3.917314e+001  7.116199e+000  6.251522e+000
      vertex  3.875994e+001  7.268287e+000  5.843952e+000
    endloop
  endfacet
  facet normal  8.090854e-001  5.655927e-001 -1.596428e-001
    outer loop
      vertex  3.907295e+001  7.146831e+000  7.000000e+000
      vertex  3.875994e+001  7.268287e+000  5.843952e+000
      vertex  3.850000e+001  7.401924e+000  5.000000e+000
    endloop
  endfacet
  facet normal  6.660094e-001  7.396815e-001 -9.645069e-002
    outer loop
      vertex  3.907295e+001  7.146831e+000  7.000000e+000
      vertex  3.850000e+001  7.401924e+000  5.000000e+000
      vertex  3.757295e+001  8.236644e+000  5.000021e+000
    endloop
  endfacet
  facet normal  5.877851e-001  8.090172e-001  -0.000000e+000
    outer loop
      vertex  3.907295e+001  7.146831e+000  7.000000e+000
      vertex  3.757295e+001  8.236644e+000  5.000021e+000
      vertex  3.757295e+001  8.236644e+000  7.000000e+000
    endloop
  endfacet
  facet normal -3.790901e-001  9.253337e-001  6.934800e-003
    outer loop
      vertex  4.086673e+001  7.127930e+000  6.224249e+000
      vertex  4.092705e+001  7.146831e+000  7.000000e+000
      vertex  4.144553e+001  7.371227e+000  5.400558e+000
    endloop
  endfacet
  facet normal -5.860487e-001  8.066273e-001 -7.680747e-002
    outer loop
      vertex  4.144553e+001  7.371227e+000  5.400558e+000
      vertex  4.092705e+001  7.146831e+000  7.000000e+000
      vertex  4.242705e+001  8.236644e+000  7.000000e+000
    endloop
  endfacet
  facet normal -6.613501e-001  7.500774e-001  0.000000e+000
    outer loop
      vertex  4.144553e+001  7.371227e+000  5.400558e+000
      vertex  4.242705e+001  8.236644e+000  7.000000e+000
      vertex  4.242705e+001  8.236644e+000  5.000021e+000
    endloop
  endfacet
  facet normal -9.510567e-001  3.090167e-001  0.000000e+000
    outer loop
      vertex  4.242705e+001  8.236644e+000  5.000021e+000
      vertex  4.242705e+001  8.236644e+000  7.000000e+000
      vertex  4.300000e+001  1.000000e+001  7.000000e+000
    endloop
  endfacet
  facet normal -9.510567e-001  3.090167e-001  0.000000e+000
    outer loop
      vertex  4.242705e+001  8.236644e+000  5.000021e+000
      vertex  4.300000e+001  1.000000e+001  7.000000e+000
      vertex  4.300000e+001  1.000000e+001  0.000000e+000
    endloop
  endfacet
  facet normal  7.621088e-001  6.451582e-001  5.441478e-002
    outer loop
      vertex  3.855488e+001  7.371002e+000  4.597966e+000
      vertex  3.907295e+001  7.146831e+000  0.000000e+000
      vertex  3.850000e+001  7.401924e+000  5.000000e+000
    endloop
  endfacet
  facet normal  5.875853e-001  8.087422e-001  2.607031e-002
    outer loop
      vertex  3.850000e+001  7.401924e+000  5.000000e+000
      vertex  3.907295e+001  7.146831e+000  0.000000e+000
      vertex  3.757295e+001  8.236644e+000  0.000000e+000
    endloop
  endfacet
  facet normal  6.691303e-001  7.431452e-001  -0.000000e+000
    outer loop
      vertex  3.850000e+001  7.401924e+000  5.000000e+000
      vertex  3.757295e+001  8.236644e+000  0.000000e+000
      vertex  3.757295e+001  8.236644e+000  5.000021e+000
    endloop
  endfacet
  facet normal  9.510567e-001  3.090167e-001  0.000000e+000
    outer loop
      vertex  3.757295e+001  8.236644e+000  5.000021e+000
      vertex  3.757295e+001  8.236644e+000  0.000000e+000
      vertex  3.700000e+001  1.000000e+001 -8.881784e-016
    endloop
  endfacet
  facet normal  9.510567e-001  3.090167e-001  -0.000000e+000
    outer loop
      vertex  3.757295e+001  8.236644e+000  5.000021e+000
      vertex  3.700000e+001  1.000000e+001 -8.881784e-016
      vertex  3.700000e+001  1.000000e+001  7.000000e+000
    endloop
  endfacet
  facet normal -6.687425e-001  7.427154e-001 -3.402189e-002
    outer loop
      vertex  4.144553e+001  7.371227e+000  5.400558e+000
      vertex  4.242705e+001  8.236644e+000  5.000021e+000
      vertex  4.150000e+001  7.401924e+000  5.000000e+000
    endloop
  endfacet
  facet normal -6.691303e-001  7.431452e-001  0.000000e+000
    outer loop
      vertex  4.150000e+001  7.401924e+000  5.000000e+000
      vertex  4.242705e+001  8.236644e+000  5.000021e+000
      vertex  4.242705e+001  8.236644e+000  0.000000e+000
    endloop
  endfacet
  facet normal -5.875853e-001  8.087422e-001  2.607031e-002
    outer loop
      vertex  4.150000e+001  7.401924e+000  5.000000e+000
      vertex  4.242705e+001  8.236644e+000  0.000000e+000
      vertex  4.092705e+001  7.146831e+000  0.000000e+000
    endloop
  endfacet
  facet normal  1.392182e-001  9.902579e-001  2.781821e-003
    outer loop
      vertex  3.913443e+001  7.127583e+000  3.774936e+000
      vertex  4.004500e+001  7.000338e+000  3.500675e+000
      vertex  3.907295e+001  7.146831e+000  0.000000e+000
    endloop
  endfacet
  facet normal -1.739068e-001  9.807021e-001  8.932924e-002
    outer loop
      vertex  3.907295e+001  7.146831e+000  0.000000e+000
      vertex  4.004500e+001  7.000338e+000  3.500675e+000
      vertex  4.082811e+001  7.116558e+000  3.749305e+000
    endloop
  endfacet
  facet normal  0.000000e+000  9.999675e-001  8.074024e-003
    outer loop
      vertex  3.907295e+001  7.146831e+000  0.000000e+000
      vertex  4.082811e+001  7.116558e+000  3.749305e+000
      vertex  4.092705e+001  7.146831e+000  0.000000e+000
    endloop
  endfacet
  facet normal  7.621081e-001 -6.451591e-001  5.441454e-002
    outer loop
      vertex  3.907295e+001  1.285317e+001  0.000000e+000
      vertex  3.855488e+001  1.262900e+001  4.597966e+000
      vertex  3.850000e+001  1.259808e+001  5.000000e+000
    endloop
  endfacet
  facet normal  3.853503e-001 -9.227691e-001 -1.570613e-003
    outer loop
      vertex  3.907295e+001  1.285317e+001  0.000000e+000
      vertex  3.913443e+001  1.287242e+001  3.774936e+000
      vertex  3.855488e+001  1.262900e+001  4.597966e+000
    endloop
  endfacet
  facet normal -3.444322e-001 -9.388099e-001 -1.509600e-003
    outer loop
      vertex  4.124081e+001  1.273137e+001  4.157146e+000
      vertex  4.082811e+001  1.288344e+001  3.749305e+000
      vertex  4.092705e+001  1.285317e+001  0.000000e+000
    endloop
  endfacet
  facet normal  3.393782e-001 -9.406244e-001  6.935398e-003
    outer loop
      vertex  3.917314e+001  1.288380e+001  6.251522e+000
      vertex  3.907295e+001  1.285317e+001  7.000000e+000
      vertex  3.875994e+001  1.273171e+001  5.843952e+000
    endloop
  endfacet
  facet normal -9.510567e-001 -3.090167e-001  0.000000e+000
    outer loop
      vertex  4.242705e+001  1.176336e+001  7.000000e+000
      vertex  4.242705e+001  1.176336e+001  5.000021e+000
      vertex  4.300000e+001  1.000000e+001  7.000000e+000
    endloop
  endfacet
  facet normal  0.000000e+000 -9.991637e-001 -4.089022e-002
    outer loop
      vertex  4.092705e+001  1.285317e+001  7.000000e+000
      vertex  3.907295e+001  1.285317e+001  7.000000e+000
      vertex  3.917314e+001  1.288380e+001  6.251522e+000
    endloop
  endfacet
  facet normal  3.263983e-001 -5.245664e-001 -7.863169e-001
    outer loop
      vertex  4.092705e+001  1.285317e+001  7.000000e+000
      vertex  3.917314e+001  1.288380e+001  6.251522e+000
      vertex  3.995646e+001  1.299968e+001  6.499368e+000
    endloop
  endfacet
  facet normal -1.426827e-001 -9.896829e-001 -1.301764e-002
    outer loop
      vertex  4.092705e+001  1.285317e+001  7.000000e+000
      vertex  3.995646e+001  1.299968e+001  6.499368e+000
      vertex  4.086673e+001  1.287207e+001  6.224249e+000
    endloop
  endfacet
  facet normal  8.090838e-001 -5.655953e-001 -1.596417e-001
    outer loop
      vertex  3.875994e+001  1.273171e+001  5.843952e+000
      vertex  3.907295e+001  1.285317e+001  7.000000e+000
      vertex  3.850000e+001  1.259808e+001  5.000000e+000
    endloop
  endfacet
  facet normal  5.865398e-001 -8.073032e-001 -6.505961e-002
    outer loop
      vertex  3.850000e+001  1.259808e+001  5.000000e+000
      vertex  3.907295e+001  1.285317e+001  7.000000e+000
      vertex  3.757295e+001  1.176336e+001  7.000000e+000
    endloop
  endfacet
  facet normal  6.691300e-001 -7.431453e-001  0.000000e+000
    outer loop
      vertex  3.850000e+001  1.259808e+001  5.000000e+000
      vertex  3.757295e+001  1.176336e+001  7.000000e+000
      vertex  3.757295e+001  1.176336e+001  5.000021e+000
    endloop
  endfacet
  facet normal  9.510567e-001 -3.090167e-001  0.000000e+000
    outer loop
      vertex  3.757295e+001  1.176336e+001  5.000021e+000
      vertex  3.757295e+001  1.176336e+001  7.000000e+000
      vertex  3.700000e+001  1.000000e+001  7.000000e+000
    endloop
  endfacet
  facet normal  9.510567e-001 -3.090167e-001  0.000000e+000
    outer loop
      vertex  3.757295e+001  1.176336e+001  5.000021e+000
      vertex  3.700000e+001  1.000000e+001  7.000000e+000
      vertex  3.700000e+001  1.000000e+001 -8.881784e-016
    endloop
  endfacet
  facet normal -4.854374e-001 -8.742019e-001  1.102545e-002
    outer loop
      vertex  4.124081e+001  1.273137e+001  4.157146e+000
      vertex  4.092705e+001  1.285317e+001  0.000000e+000
      vertex  4.150000e+001  1.259808e+001  5.000000e+000
    endloop
  endfacet
  facet normal -5.875853e-001 -8.087422e-001  2.607023e-002
    outer loop
      vertex  4.150000e+001  1.259808e+001  5.000000e+000
      vertex  4.092705e+001  1.285317e+001  0.000000e+000
      vertex  4.242705e+001  1.176336e+001  0.000000e+000
    endloop
  endfacet
  facet normal -6.691300e-001 -7.431453e-001  0.000000e+000
    outer loop
      vertex  4.150000e+001  1.259808e+001  5.000000e+000
      vertex  4.242705e+001  1.176336e+001  0.000000e+000
      vertex  4.242705e+001  1.176336e+001  5.000021e+000
    endloop
  endfacet
  facet normal -9.510567e-001 -3.090167e-001  -0.000000e+000
    outer loop
      vertex  4.242705e+001  1.176336e+001  5.000021e+000
      vertex  4.242705e+001  1.176336e+001  0.000000e+000
      vertex  4.300000e+001  1.000000e+001  0.000000e+000
    endloop
  endfacet
  facet normal -9.510567e-001 -3.090167e-001  0.000000e+000
    outer loop
      vertex  4.242705e+001  1.176336e+001  5.000021e+000
      vertex  4.300000e+001  1.000000e+001  0.000000e+000
      vertex  4.300000e+001  1.000000e+001  7.000000e+000
    endloop
  endfacet
  facet normal  9.510567e-001 -3.090167e-001  0.000000e+000
    outer loop
      vertex  3.700000e+001  1.000000e+001 -8.881784e-016
      vertex  3.757295e+001  1.176336e+001  0.000000e+000
      vertex  3.757295e+001  1.176336e+001  5.000021e+000
    endloop
  endfacet
  facet normal  5.877850e-001 -8.090171e-001  0.000000e+000
    outer loop
      vertex  3.757295e+001  1.176336e+001  5.000021e+000
      vertex  3.757295e+001  1.176336e+001  0.000000e+000
      vertex  3.907295e+001  1.285317e+001  0.000000e+000
    endloop
  endfacet
  facet normal  6.686284e-001 -7.425872e-001  3.873208e-002
    outer loop
      vertex  3.757295e+001  1.176336e+001  5.000021e+000
      vertex  3.907295e+001  1.285317e+001  0.000000e+000
      vertex  3.850000e+001  1.259808e+001  5.000000e+000
    endloop
  endfacet
  facet normal -1.480675e-001 -9.889688e-001  4.077534e-003
    outer loop
      vertex  4.082811e+001  1.288344e+001  3.749305e+000
      vertex  4.004500e+001  1.299966e+001  3.500675e+000
      vertex  4.092705e+001  1.285317e+001  0.000000e+000
    endloop
  endfacet
  facet normal  1.621131e-001 -9.833594e-001  8.199762e-002
    outer loop
      vertex  4.092705e+001  1.285317e+001  0.000000e+000
      vertex  4.004500e+001  1.299966e+001  3.500675e+000
      vertex  3.913443e+001  1.287242e+001  3.774936e+000
    endloop
  endfacet
  facet normal  0.000000e+000 -9.999870e-001  5.098830e-003
    outer loop
      vertex  4.092705e+001  1.285317e+001  0.000000e+000
      vertex  3.913443e+001  1.287242e+001  3.774936e+000
      vertex  3.907295e+001  1.285317e+001  0.000000e+000
    endloop
  endfacet
  facet normal -3.790914e-001 -9.253333e-001  6.934316e-003
    outer loop
      vertex  4.086673e+001  1.287207e+001  6.224249e+000
      vertex  4.144553e+001  1.262877e+001  5.400558e+000
      vertex  4.092705e+001  1.285317e+001  7.000000e+000
    endloop
  endfacet
  facet normal -5.860487e-001 -8.066273e-001 -7.680748e-002
    outer loop
      vertex  4.092705e+001  1.285317e+001  7.000000e+000
      vertex  4.144553e+001  1.262877e+001  5.400558e+000
      vertex  4.242705e+001  1.176336e+001  7.000000e+000
    endloop
  endfacet
  facet normal -6.356845e-001 -7.714652e-001 -2.732241e-002
    outer loop
      vertex  4.144553e+001  1.262877e+001  5.400558e+000
      vertex  4.150000e+001  1.259808e+001  5.000000e+000
      vertex  4.242705e+001  1.176336e+001  7.000000e+000
    endloop
  endfacet
  facet normal -6.691300e-001 -7.431453e-001  -0.000000e+000
    outer loop
      vertex  4.242705e+001  1.176336e+001  7.000000e+000
      vertex  4.150000e+001  1.259808e+001  5.000000e+000
      vertex  4.242705e+001  1.176336e+001  5.000021e+000
    endloop
  endfacet
  facet normal -3.826607e-001  1.079084e-002 -9.238260e-001
    outer loop
      vertex  4.086673e+001  7.127930e+000  6.224249e+000
      vertex  4.106066e+001  0.000000e+000  6.060660e+000
      vertex  4.000000e+001  0.000000e+000  6.500000e+000
    endloop
  endfacet
  facet normal -8.169103e-001 -8.990958e-003 -5.766947e-001
    outer loop
      vertex  4.086673e+001  7.127930e+000  6.224249e+000
      vertex  4.144553e+001  7.371227e+000  5.400558e+000
      vertex  4.106066e+001  0.000000e+000  6.060660e+000
    endloop
  endfacet
  facet normal -9.904941e-001  3.992807e-002 -1.316329e-001
    outer loop
      vertex  4.106066e+001  0.000000e+000  6.060660e+000
      vertex  4.144553e+001  7.371227e+000  5.400558e+000
      vertex  4.150000e+001  7.401924e+000  5.000000e+000
    endloop
  endfacet
  facet normal -9.238799e-001  -0.000000e+000 -3.826825e-001
    outer loop
      vertex  4.106066e+001  0.000000e+000  6.060660e+000
      vertex  4.150000e+001  7.401924e+000  5.000000e+000
      vertex  4.150000e+001  0.000000e+000  5.000000e+000
    endloop
  endfacet
  facet normal -2.890727e-001 -1.884234e-003 -9.573053e-001
    outer loop
      vertex  4.086673e+001  7.127930e+000  6.224249e+000
      vertex  4.000000e+001  0.000000e+000  6.500000e+000
      vertex  3.995646e+001  7.000316e+000  6.499368e+000
    endloop
  endfacet
  facet normal  3.826819e-001  2.296634e-003 -9.238772e-001
    outer loop
      vertex  3.995646e+001  7.000316e+000  6.499368e+000
      vertex  4.000000e+001  0.000000e+000  6.500000e+000
      vertex  3.893934e+001  0.000000e+000  6.060660e+000
    endloop
  endfacet
  facet normal  3.037215e-001  1.557150e-002 -9.526336e-001
    outer loop
      vertex  3.995646e+001  7.000316e+000  6.499368e+000
      vertex  3.893934e+001  0.000000e+000  6.060660e+000
      vertex  3.917314e+001  7.116199e+000  6.251522e+000
    endloop
  endfacet
  facet normal  7.014998e-001 -3.933798e-003 -7.126588e-001
    outer loop
      vertex  3.917314e+001  7.116199e+000  6.251522e+000
      vertex  3.893934e+001  0.000000e+000  6.060660e+000
      vertex  3.875994e+001  7.268287e+000  5.843952e+000
    endloop
  endfacet
  facet normal  9.238200e-001  1.139276e-002 -3.826577e-001
    outer loop
      vertex  3.875994e+001  7.268287e+000  5.843952e+000
      vertex  3.893934e+001  0.000000e+000  6.060660e+000
      vertex  3.850000e+001  0.000000e+000  5.000000e+000
    endloop
  endfacet
  facet normal  9.556951e-001  0.000000e+000 -2.943586e-001
    outer loop
      vertex  3.875994e+001  7.268287e+000  5.843952e+000
      vertex  3.850000e+001  0.000000e+000  5.000000e+000
      vertex  3.850000e+001  7.401924e+000  5.000000e+000
    endloop
  endfacet
  facet normal -3.826607e-001 -1.079084e-002 -9.238260e-001
    outer loop
      vertex  4.000000e+001  2.000000e+001  6.500000e+000
      vertex  4.106066e+001  2.000000e+001  6.060660e+000
      vertex  4.086673e+001  1.287207e+001  6.224249e+000
    endloop
  endfacet
  facet normal -8.169103e-001  8.990957e-003 -5.766947e-001
    outer loop
      vertex  4.086673e+001  1.287207e+001  6.224249e+000
      vertex  4.106066e+001  2.000000e+001  6.060660e+000
      vertex  4.144553e+001  1.262877e+001  5.400558e+000
    endloop
  endfacet
  facet normal -9.237897e-001 -1.396683e-002 -3.826452e-001
    outer loop
      vertex  4.144553e+001  1.262877e+001  5.400558e+000
      vertex  4.106066e+001  2.000000e+001  6.060660e+000
      vertex  4.150000e+001  2.000000e+001  5.000000e+000
    endloop
  endfacet
  facet normal -9.908803e-001  -0.000000e+000 -1.347453e-001
    outer loop
      vertex  4.144553e+001  1.262877e+001  5.400558e+000
      vertex  4.150000e+001  2.000000e+001  5.000000e+000
      vertex  4.150000e+001  1.259808e+001  5.000000e+000
    endloop
  endfacet
  facet normal -2.890727e-001  1.884234e-003 -9.573052e-001
    outer loop
      vertex  4.086673e+001  1.287207e+001  6.224249e+000
      vertex  3.995646e+001  1.299968e+001  6.499368e+000
      vertex  4.000000e+001  2.000000e+001  6.500000e+000
    endloop
  endfacet
  facet normal  3.019052e-001 -1.791599e-003 -9.533363e-001
    outer loop
      vertex  4.000000e+001  2.000000e+001  6.500000e+000
      vertex  3.995646e+001  1.299968e+001  6.499368e+000
      vertex  3.917314e+001  1.288380e+001  6.251522e+000
    endloop
  endfacet
  facet normal  3.826545e-001 -1.220511e-002 -9.238109e-001
    outer loop
      vertex  4.000000e+001  2.000000e+001  6.500000e+000
      vertex  3.917314e+001  1.288380e+001  6.251522e+000
      vertex  3.893934e+001  2.000000e+001  6.060660e+000
    endloop
  endfacet
  facet normal  7.014998e-001  3.933797e-003 -7.126588e-001
    outer loop
      vertex  3.917314e+001  1.288380e+001  6.251522e+000
      vertex  3.875994e+001  1.273171e+001  5.843952e+000
      vertex  3.893934e+001  2.000000e+001  6.060660e+000
    endloop
  endfacet
  facet normal  9.562500e-001 -1.489110e-002 -2.921716e-001
    outer loop
      vertex  3.893934e+001  2.000000e+001  6.060660e+000
      vertex  3.875994e+001  1.273171e+001  5.843952e+000
      vertex  3.850000e+001  1.259808e+001  5.000000e+000
    endloop
  endfacet
  facet normal  9.238799e-001  0.000000e+000 -3.826825e-001
    outer loop
      vertex  3.893934e+001  2.000000e+001  6.060660e+000
      vertex  3.850000e+001  1.259808e+001  5.000000e+000
      vertex  3.850000e+001  2.000000e+001  5.000000e+000
    endloop
  endfacet
  facet normal  3.826606e-001  1.083506e-002  9.238254e-001
    outer loop
      vertex  3.913443e+001  7.127583e+000  3.774936e+000
      vertex  3.893934e+001  0.000000e+000  3.939340e+000
      vertex  4.000000e+001  0.000000e+000  3.500000e+000
    endloop
  endfacet
  facet normal  8.163396e-001 -9.023300e-003  5.775018e-001
    outer loop
      vertex  3.913443e+001  7.127583e+000  3.774936e+000
      vertex  3.855488e+001  7.371002e+000  4.597966e+000
      vertex  3.893934e+001  0.000000e+000  3.939340e+000
    endloop
  endfacet
  facet normal  9.904297e-001  3.985167e-002  1.321394e-001
    outer loop
      vertex  3.893934e+001  0.000000e+000  3.939340e+000
      vertex  3.855488e+001  7.371002e+000  4.597966e+000
      vertex  3.850000e+001  7.401924e+000  5.000000e+000
    endloop
  endfacet
  facet normal  9.238799e-001  0.000000e+000  3.826826e-001
    outer loop
      vertex  3.893934e+001  0.000000e+000  3.939340e+000
      vertex  3.850000e+001  7.401924e+000  5.000000e+000
      vertex  3.850000e+001  0.000000e+000  5.000000e+000
    endloop
  endfacet
  facet normal  2.881481e-001 -1.944734e-003  9.575839e-001
    outer loop
      vertex  3.913443e+001  7.127583e+000  3.774936e+000
      vertex  4.000000e+001  0.000000e+000  3.500000e+000
      vertex  4.004500e+001  7.000338e+000  3.500675e+000
    endloop
  endfacet
  facet normal -3.826820e-001  2.370978e-003  9.238771e-001
    outer loop
      vertex  4.004500e+001  7.000338e+000  3.500675e+000
      vertex  4.000000e+001  0.000000e+000  3.500000e+000
      vertex  4.106066e+001  0.000000e+000  3.939340e+000
    endloop
  endfacet
  facet normal -3.046561e-001  1.547493e-002  9.523367e-001
    outer loop
      vertex  4.004500e+001  7.000338e+000  3.500675e+000
      vertex  4.106066e+001  0.000000e+000  3.939340e+000
      vertex  4.082811e+001  7.116558e+000  3.749305e+000
    endloop
  endfacet
  facet normal -7.021676e-001 -3.932737e-003  7.120007e-001
    outer loop
      vertex  4.082811e+001  7.116558e+000  3.749305e+000
      vertex  4.106066e+001  0.000000e+000  3.939340e+000
      vertex  4.124081e+001  7.268626e+000  4.157146e+000
    endloop
  endfacet
  facet normal -9.238196e-001  1.142950e-002  3.826576e-001
    outer loop
      vertex  4.124081e+001  7.268626e+000  4.157146e+000
      vertex  4.106066e+001  0.000000e+000  3.939340e+000
      vertex  4.150000e+001  0.000000e+000  5.000000e+000
    endloop
  endfacet
  facet normal -9.558257e-001  0.000000e+000  2.939342e-001
    outer loop
      vertex  4.124081e+001  7.268626e+000  4.157146e+000
      vertex  4.150000e+001  0.000000e+000  5.000000e+000
      vertex  4.150000e+001  7.401924e+000  5.000000e+000
    endloop
  endfacet
  facet normal  3.826607e-001 -1.083506e-002  9.238254e-001
    outer loop
      vertex  4.000000e+001  2.000000e+001  3.500000e+000
      vertex  3.893934e+001  2.000000e+001  3.939340e+000
      vertex  3.913443e+001  1.287242e+001  3.774936e+000
    endloop
  endfacet
  facet normal  8.163396e-001  9.023298e-003  5.775018e-001
    outer loop
      vertex  3.913443e+001  1.287242e+001  3.774936e+000
      vertex  3.893934e+001  2.000000e+001  3.939340e+000
      vertex  3.855488e+001  1.262900e+001  4.597966e+000
    endloop
  endfacet
  facet normal  9.237894e-001 -1.399224e-002  3.826451e-001
    outer loop
      vertex  3.855488e+001  1.262900e+001  4.597966e+000
      vertex  3.893934e+001  2.000000e+001  3.939340e+000
      vertex  3.850000e+001  2.000000e+001  5.000000e+000
    endloop
  endfacet
  facet normal  9.908107e-001  0.000000e+000  1.352566e-001
    outer loop
      vertex  3.855488e+001  1.262900e+001  4.597966e+000
      vertex  3.850000e+001  2.000000e+001  5.000000e+000
      vertex  3.850000e+001  1.259808e+001  5.000000e+000
    endloop
  endfacet
  facet normal  2.881481e-001  1.944734e-003  9.575839e-001
    outer loop
      vertex  3.913443e+001  1.287242e+001  3.774936e+000
      vertex  4.004500e+001  1.299966e+001  3.500675e+000
      vertex  4.000000e+001  2.000000e+001  3.500000e+000
    endloop
  endfacet
  facet normal -3.028562e-001 -1.855002e-003  9.530344e-001
    outer loop
      vertex  4.000000e+001  2.000000e+001  3.500000e+000
      vertex  4.004500e+001  1.299966e+001  3.500675e+000
      vertex  4.082811e+001  1.288344e+001  3.749305e+000
    endloop
  endfacet
  facet normal -3.826548e-001 -1.216436e-002  9.238113e-001
    outer loop
      vertex  4.000000e+001  2.000000e+001  3.500000e+000
      vertex  4.082811e+001  1.288344e+001  3.749305e+000
      vertex  4.106066e+001  2.000000e+001  3.939340e+000
    endloop
  endfacet
  facet normal -7.021676e-001  3.932738e-003  7.120008e-001
    outer loop
      vertex  4.082811e+001  1.288344e+001  3.749305e+000
      vertex  4.124081e+001  1.273137e+001  4.157146e+000
      vertex  4.106066e+001  2.000000e+001  3.939340e+000
    endloop
  endfacet
  facet normal -9.563810e-001 -1.496089e-002  2.917389e-001
    outer loop
      vertex  4.106066e+001  2.000000e+001  3.939340e+000
      vertex  4.124081e+001  1.273137e+001  4.157146e+000
      vertex  4.150000e+001  1.259808e+001  5.000000e+000
    endloop
  endfacet
  facet normal -9.238799e-001  0.000000e+000  3.826826e-001
    outer loop
      vertex  4.106066e+001  2.000000e+001  3.939340e+000
      vertex  4.150000e+001  1.259808e+001  5.000000e+000
      vertex  4.150000e+001  2.000000e+001  5.000000e+000
    endloop
  endfacet
  facet normal  0.000000e+000  -0.000000e+000 -1.000000e+000
    outer loop
      vertex  7.598885e+001  6.956619e+000  0.000000e+000
      vertex  7.758885e+001  8.119087e+000  0.000000e+000
      vertex  8.000000e+001  0.000000e+000  0.000000e+000
    endloop
  endfacet
  facet normal  0.000000e+000  -0.000000e+000 -1.000000e+000
    outer loop
      vertex  7.758885e+001  8.119087e+000  0.000000e+000
      vertex  7.820000e+001  1.000000e+001  0.000000e+000
      vertex  8.000000e+001  0.000000e+000  0.000000e+000
    endloop
  endfacet
  facet normal  0.000000e+000  -0.000000e+000 -1.000000e+000
    outer loop
      vertex  0.000000e+000  0.000000e+000  0.000000e+000
      vertex  1.800000e+000  1.000000e+001  0.000000e+000
      vertex  2.411146e+000  8.119087e+000  0.000000e+000
    endloop
  endfacet
  facet normal  0.000000e+000  -0.000000e+000 -1.000000e+000
    outer loop
      vertex  0.000000e+000  0.000000e+000  0.000000e+000
      vertex  2.411146e+000  8.119087e+000  0.000000e+000
      vertex  4.011146e+000  6.956619e+000  0.000000e+000
    endloop
  endfacet
  facet normal  0.000000e+000  -0.000000e+000 -1.000000e+000
    outer loop
      vertex  0.000000e+000  0.000000e+000  0.000000e+000
      vertex  4.011146e+000  6.956619e+000  0.000000e+000
      vertex  5.988854e+000  6.956619e+000  0.000000e+000
    endloop
  endfacet
  facet normal  0.000000e+000  -0.000000e+000 -1.000000e+000
    outer loop
      vertex  0.000000e+000  0.000000e+000  0.000000e+000
      vertex  5.988854e+000  6.956619e+000  0.000000e+000
      vertex  3.907295e+001  7.146831e+000  0.000000e+000
    endloop
  endfacet
  facet normal  0.000000e+000  -0.000000e+000 -1.000000e+000
    outer loop
      vertex  0.000000e+000  0.000000e+000  0.000000e+000
      vertex  3.907295e+001  7.146831e+000  0.000000e+000
      vertex  4.092705e+001  7.146831e+000  0.000000e+000
    endloop
  endfacet
  facet normal  0.000000e+000  -0.000000e+000 -9.999999e-001
    outer loop
      vertex  0.000000e+000  0.000000e+000  0.000000e+000
      vertex  4.092705e+001  7.146831e+000  0.000000e+000
      vertex  7.401115e+001  6.956619e+000  0.000000e+000
    endloop
  endfacet
  facet normal  0.000000e+000  -0.000000e+000 -1.000000e+000
    outer loop
      vertex  0.000000e+000  0.000000e+000  0.000000e+000
      vertex  7.401115e+001  6.956619e+000  0.000000e+000
      vertex  7.598885e+001  6.956619e+000  0.000000e+000
    endloop
  endfacet
  facet normal  0.000000e+000  -0.000000e+000 -1.000000e+000
    outer loop
      vertex  0.000000e+000  0.000000e+000  0.000000e+000
      vertex  7.598885e+001  6.956619e+000  0.000000e+000
      vertex  8.000000e+001  0.000000e+000  0.000000e+000
    endloop
  endfacet
  facet normal  -0.000000e+000  0.000000e+000 -1.000000e+000
    outer loop
      vertex  0.000000e+000  2.000000e+001  0.000000e+000
      vertex  8.000000e+001  2.000000e+001  0.000000e+000
      vertex  7.598885e+001  1.304338e+001  0.000000e+000
    endloop
  endfacet
  facet normal  0.000000e+000  0.000000e+000 -1.000000e+000
    outer loop
      vertex  0.000000e+000  2.000000e+001  0.000000e+000
      vertex  7.598885e+001  1.304338e+001  0.000000e+000
      vertex  7.401115e+001  1.304338e+001  0.000000e+000
    endloop
  endfacet
  facet normal  -0.000000e+000  0.000000e+000 -9.999999e-001
    outer loop
      vertex  0.000000e+000  2.000000e+001  0.000000e+000
      vertex  7.401115e+001  1.304338e+001  0.000000e+000
      vertex  4.092705e+001  1.285317e+001  0.000000e+000
    endloop
  endfacet
  facet normal  0.000000e+000  0.000000e+000 -1.000000e+000
    outer loop
      vertex  0.000000e+000  2.000000e+001  0.000000e+000
      vertex  4.092705e+001  1.285317e+001  0.000000e+000
      vertex  3.907295e+001  1.285317e+001  0.000000e+000
    endloop
  endfacet
  facet normal  0.000000e+000  0.000000e+000 -1.000000e+000
    outer loop
      vertex  0.000000e+000  2.000000e+001  0.000000e+000
      vertex  3.907295e+001  1.285317e+001  0.000000e+000
      vertex  5.988854e+000  1.304338e+001  0.000000e+000
    endloop
  endfacet
  facet normal  0.000000e+000  0.000000e+000 -1.000000e+000
    outer loop
      vertex  0.000000e+000  2.000000e+001  0.000000e+000
      vertex  5.988854e+000  1.304338e+001  0.000000e+000
      vertex  4.011146e+000  1.304338e+001  0.000000e+000
    endloop
  endfacet
  facet normal  -0.000000e+000  0.000000e+000 -1.000000e+000
    outer loop
      vertex  0.000000e+000  2.000000e+001  0.000000e+000
      vertex  4.011146e+000  1.304338e+001  0.000000e+000
      vertex  2.411146e+000  1.188091e+001  0.000000e+000
    endloop
  endfacet
  facet normal  -0.000000e+000  0.000000e+000 -1.000000e+000
    outer loop
      vertex  0.000000e+000  2.000000e+001  0.000000e+000
      vertex  2.411146e+000  1.188091e+001  0.000000e+000
      vertex  1.800000e+000  1.000000e+001  0.000000e+000
    endloop
  endfacet
  facet normal  -0.000000e+000  0.000000e+000 -1.000000e+000
    outer loop
      vertex  0.000000e+000  2.000000e+001  0.000000e+000
      vertex  1.800000e+000  1.000000e+001  0.000000e+000
      vertex  0.000000e+000  0.000000e+000  0.000000e+000
    endloop
  endfacet
  facet normal  0.000000e+000  0.000000e+000 -1.000000e+000
    outer loop
      vertex  8.000000e+001  2.000000e+001  0.000000e+000
      vertex  8.000000e+001  0.000000e+000  0.000000e+000
      vertex  7.820000e+001  1.000000e+001  0.000000e+000
    endloop
  endfacet
  facet normal  0.000000e+000  0.000000e+000 -1.000000e+000
    outer loop
      vertex  8.000000e+001  2.000000e+001  0.000000e+000
      vertex  7.820000e+001  1.000000e+001  0.000000e+000
      vertex  7.758885e+001  1.188091e+001  0.000000e+000
    endloop
  endfacet
  facet normal  0.000000e+000  0.000000e+000 -1.000000e+000
    outer loop
      vertex  8.000000e+001  2.000000e+001  0.000000e+000
      vertex  7.758885e+001  1.188091e+001  0.000000e+000
      vertex  7.598885e+001  1.304338e+001  0.000000e+000
    endloop
  endfacet
  facet normal  -0.000000e+000  0.000000e+000 -1.000000e+000
    outer loop
      vertex  8.200000e+000  1.000000e+001  0.000000e+000
      vertex  3.757295e+001  8.236644e+000  0.000000e+000
      vertex  7.588854e+000  8.119087e+000  0.000000e+000
    endloop
  endfacet
  facet normal  0.000000e+000  0.000000e+000 -1.000000e+000
    outer loop
      vertex  7.588854e+000  8.119087e+000  0.000000e+000
      vertex  3.757295e+001  8.236644e+000  0.000000e+000
      vertex  3.907295e+001  7.146831e+000  0.000000e+000
    endloop
  endfacet
  facet normal  -0.000000e+000  0.000000e+000 -1.000000e+000
    outer loop
      vertex  7.588854e+000  8.119087e+000  0.000000e+000
      vertex  3.907295e+001  7.146831e+000  0.000000e+000
      vertex  5.988854e+000  6.956619e+000  0.000000e+000
    endloop
  endfacet
  facet normal -3.083953e-017 -5.137067e-016 -1.000000e+000
    outer loop
      vertex  3.757295e+001  8.236644e+000  0.000000e+000
      vertex  8.200000e+000  1.000000e+001  0.000000e+000
      vertex  3.700000e+001  1.000000e+001 -8.881784e-016
    endloop
  endfacet
  facet normal -3.083953e-017 -1.002039e-017 -9.999999e-001
    outer loop
      vertex  3.700000e+001  1.000000e+001 -8.881784e-016
      vertex  8.200000e+000  1.000000e+001  0.000000e+000
      vertex  7.588854e+000  1.188091e+001  0.000000e+000
    endloop
  endfacet
  facet normal  1.972256e-018  5.030455e-016 -9.999999e-001
    outer loop
      vertex  3.700000e+001  1.000000e+001 -8.881784e-016
      vertex  7.588854e+000  1.188091e+001  0.000000e+000
      vertex  3.757295e+001  1.176336e+001  0.000000e+000
    endloop
  endfacet
  facet normal  0.000000e+000  0.000000e+000 -1.000000e+000
    outer loop
      vertex  3.757295e+001  1.176336e+001  0.000000e+000
      vertex  7.588854e+000  1.188091e+001  0.000000e+000
      vertex  5.988854e+000  1.304338e+001  0.000000e+000
    endloop
  endfacet
  facet normal  0.000000e+000  0.000000e+000 -1.000000e+000
    outer loop
      vertex  3.757295e+001  1.176336e+001  0.000000e+000
      vertex  5.988854e+000  1.304338e+001  0.000000e+000
      vertex  3.907295e+001  1.285317e+001  0.000000e+000
    endloop
  endfacet
  facet normal  0.000000e+000  0.000000e+000 -1.000000e+000
    outer loop
      vertex  7.180000e+001  1.000000e+001  0.000000e+000
      vertex  4.242705e+001  1.176336e+001  0.000000e+000
      vertex  7.241115e+001  1.188091e+001  0.000000e+000
    endloop
  endfacet
  facet normal  -0.000000e+000  0.000000e+000 -1.000000e+000
    outer loop
      vertex  7.241115e+001  1.188091e+001  0.000000e+000
      vertex  4.242705e+001  1.176336e+001  0.000000e+000
      vertex  4.092705e+001  1.285317e+001  0.000000e+000
    endloop
  endfacet
  facet normal  0.000000e+000  0.000000e+000 -1.000000e+000
    outer loop
      vertex  7.241115e+001  1.188091e+001  0.000000e+000
      vertex  4.092705e+001  1.285317e+001  0.000000e+000
      vertex  7.401115e+001  1.304338e+001  0.000000e+000
    endloop
  endfacet
  facet normal  0.000000e+000  0.000000e+000 -9.999999e-001
    outer loop
      vertex  4.242705e+001  1.176336e+001  0.000000e+000
      vertex  7.180000e+001  1.000000e+001  0.000000e+000
      vertex  4.300000e+001  1.000000e+001  0.000000e+000
    endloop
  endfacet
  facet normal  0.000000e+000  0.000000e+000 -1.000000e+000
    outer loop
      vertex  4.300000e+001  1.000000e+001  0.000000e+000
      vertex  7.180000e+001  1.000000e+001  0.000000e+000
      vertex  7.241115e+001  8.119087e+000  0.000000e+000
    endloop
  endfacet
  facet normal  0.000000e+000  0.000000e+000 -9.999999e-001
    outer loop
      vertex  4.300000e+001  1.000000e+001  0.000000e+000
      vertex  7.241115e+001  8.119087e+000  0.000000e+000
      vertex  4.242705e+001  8.236644e+000  0.000000e+000
    endloop
  endfacet
  facet normal  0.000000e+000  0.000000e+000 -1.000000e+000
    outer loop
      vertex  4.242705e+001  8.236644e+000  0.000000e+000
      vertex  7.241115e+001  8.119087e+000  0.000000e+000
      vertex  7.401115e+001  6.956619e+000  0.000000e+000
    endloop
  endfacet
  facet normal  0.000000e+000  0.000000e+000 -1.000000e+000
    outer loop
      vertex  4.242705e+001  8.236644e+000  0.000000e+000
      vertex  7.401115e+001  6.956619e+000  0.000000e+000
      vertex  4.092705e+001  7.146831e+000  0.000000e+000
    endloop
  endfacet
  facet normal  0.000000e+000  0.000000e+000  1.000000e+000
    outer loop
      vertex  1.500000e+001  6.000000e+000  7.000000e+000
      vertex  6.500000e+001  6.000000e+000  7.000000e+000
      vertex  4.092705e+001  7.146831e+000  7.000000e+000
    endloop
  endfacet
  facet normal  0.000000e+000  0.000000e+000  1.000000e+000
    outer loop
      vertex  1.500000e+001  6.000000e+000  7.000000e+000
      vertex  4.092705e+001  7.146831e+000  7.000000e+000
      vertex  3.907295e+001  7.146831e+000  7.000000e+000
    endloop
  endfacet
  facet normal  0.000000e+000  0.000000e+000  1.000000e+000
    outer loop
      vertex  1.500000e+001  6.000000e+000  7.000000e+000
      vertex  3.907295e+001  7.146831e+000  7.000000e+000
      vertex  3.757295e+001  8.236644e+000  7.000000e+000
    endloop
  endfacet
  facet normal  0.000000e+000  0.000000e+000  1.000000e+000
    outer loop
      vertex  1.500000e+001  6.000000e+000  7.000000e+000
      vertex  3.757295e+001  8.236644e+000  7.000000e+000
      vertex  3.700000e+001  1.000000e+001  7.000000e+000
    endloop
  endfacet
  facet normal  0.000000e+000  -0.000000e+000  1.000000e+000
    outer loop
      vertex  1.500000e+001  6.000000e+000  7.000000e+000
      vertex  3.700000e+001  1.000000e+001  7.000000e+000
      vertex  3.757295e+001  1.176336e+001  7.000000e+000
    endloop
  endfacet
  facet normal  0.000000e+000  -0.000000e+000  1.000000e+000
    outer loop
      vertex  1.500000e+001  6.000000e+000  7.000000e+000
      vertex  3.757295e+001  1.176336e+001  7.000000e+000
      vertex  3.907295e+001  1.285317e+001  7.000000e+000
    endloop
  endfacet
  facet normal  0.000000e+000  0.000000e+000  1.000000e+000
    outer loop
      vertex  1.500000e+001  6.000000e+000  7.000000e+000
      vertex  3.907295e+001  1.285317e+001  7.000000e+000
      vertex  1.500000e+001  1.400000e+001  7.000000e+000
    endloop
  endfacet
  facet normal  0.000000e+000  0.000000e+000  1.000000e+000
    outer loop
      vertex  6.500000e+001  6.000000e+000  7.000000e+000
      vertex  6.500000e+001  1.400000e+001  7.000000e+000
      vertex  4.092705e+001  1.285317e+001  7.000000e+000
    endloop
  endfacet
  facet normal  0.000000e+000  0.000000e+000  1.000000e+000
    outer loop
      vertex  6.500000e+001  6.000000e+000  7.000000e+000
      vertex  4.092705e+001  1.285317e+001  7.000000e+000
      vertex  4.242705e+001  1.176336e+001  7.000000e+000
    endloop
  endfacet
  facet normal  0.000000e+000  0.000000e+000  1.000000e+000
    outer loop
      vertex  6.500000e+001  6.000000e+000  7.000000e+000
      vertex  4.242705e+001  1.176336e+001  7.000000e+000
      vertex  4.300000e+001  1.000000e+001  7.000000e+000
    endloop
  endfacet
  facet normal  0.000000e+000  0.000000e+000  1.000000e+000
    outer loop
      vertex  6.500000e+001  6.000000e+000  7.000000e+000
      vertex  4.300000e+001  1.000000e+001  7.000000e+000
      vertex  4.242705e+001  8.236644e+000  7.000000e+000
    endloop
  endfacet
  facet normal  0.000000e+000  0.000000e+000  1.000000e+000
    outer loop
      vertex  6.500000e+001  6.000000e+000  7.000000e+000
      vertex  4.242705e+001  8.236644e+000  7.000000e+000
      vertex  4.092705e+001  7.146831e+000  7.000000e+000
    endloop
  endfacet
  facet normal  0.000000e+000  -0.000000e+000  1.000000e+000
    outer loop
      vertex  1.500000e+001  1.400000e+001  7.000000e+000
      vertex  3.907295e+001  1.285317e+001  7.000000e+000
      vertex  6.500000e+001  1.400000e+001  7.000000e+000
    endloop
  endfacet
  facet normal  0.000000e+000  0.000000e+000  1.000000e+000
    outer loop
      vertex  6.500000e+001  1.400000e+001  7.000000e+000
      vertex  3.907295e+001  1.285317e+001  7.000000e+000
      vertex  4.092705e+001  1.285317e+001  7.000000e+000
    endloop
  endfacet
  facet normal  0.000000e+000  0.000000e+000  1.000000e+000
    outer loop
      vertex  1.500000e+001  1.400000e+001  1.000000e+001
      vertex  0.000000e+000  2.000000e+001  1.000000e+001
      vertex  4.011146e+000  1.304338e+001  1.000000e+001
    endloop
  endfacet
  facet normal  0.000000e+000  0.000000e+000  1.000000e+000
    outer loop
      vertex  1.500000e+001  1.400000e+001  1.000000e+001
      vertex  4.011146e+000  1.304338e+001  1.000000e+001
      vertex  5.988854e+000  1.304338e+001  1.000000e+001
    endloop
  endfacet
  facet normal  -0.000000e+000  0.000000e+000  1.000000e+000
    outer loop
      vertex  1.500000e+001  1.400000e+001  1.000000e+001
      vertex  5.988854e+000  1.304338e+001  1.000000e+001
      vertex  7.588854e+000  1.188091e+001  1.000000e+001
    endloop
  endfacet
  facet normal  -0.000000e+000  0.000000e+000  1.000000e+000
    outer loop
      vertex  1.500000e+001  1.400000e+001  1.000000e+001
      vertex  7.588854e+000  1.188091e+001  1.000000e+001
      vertex  1.500000e+001  6.000000e+000  1.000000e+001
    endloop
  endfacet
  facet normal  0.000000e+000  0.000000e+000  1.000000e+000
    outer loop
      vertex  6.500000e+001  1.400000e+001  1.000000e+001
      vertex  6.500000e+001  6.000000e+000  1.000000e+001
      vertex  7.241115e+001  1.188091e+001  1.000000e+001
    endloop
  endfacet
  facet normal  0.000000e+000  -0.000000e+000  1.000000e+000
    outer loop
      vertex  6.500000e+001  1.400000e+001  1.000000e+001
      vertex  7.241115e+001  1.188091e+001  1.000000e+001
      vertex  7.401115e+001  1.304338e+001  1.000000e+001
    endloop
  endfacet
  facet normal  0.000000e+000  -0.000000e+000  1.000000e+000
    outer loop
      vertex  6.500000e+001  1.400000e+001  1.000000e+001
      vertex  7.401115e+001  1.304338e+001  1.000000e+001
      vertex  7.598885e+001  1.304338e+001  1.000000e+001
    endloop
  endfacet
  facet normal  0.000000e+000  -0.000000e+000  1.000000e+000
    outer loop
      vertex  6.500000e+001  1.400000e+001  1.000000e+001
      vertex  7.598885e+001  1.304338e+001  1.000000e+001
      vertex  8.000000e+001  2.000000e+001  1.000000e+001
    endloop
  endfacet
  facet normal  0.000000e+000  0.000000e+000  1.000000e+000
    outer loop
      vertex  0.000000e+000  0.000000e+000  1.000000e+001
      vertex  8.000000e+001  0.000000e+000  1.000000e+001
      vertex  6.500000e+001  6.000000e+000  1.000000e+001
    endloop
  endfacet
  facet normal  0.000000e+000  0.000000e+000  1.000000e+000
    outer loop
      vertex  0.000000e+000  0.000000e+000  1.000000e+001
      vertex  6.500000e+001  6.000000e+000  1.000000e+001
      vertex  1.500000e+001  6.000000e+000  1.000000e+001
    endloop
  endfacet
  facet normal  0.000000e+000  0.000000e+000  1.000000e+000
    outer loop
      vertex  0.000000e+000  0.000000e+000  1.000000e+001
      vertex  1.500000e+001  6.000000e+000  1.000000e+001
      vertex  5.988854e+000  6.956619e+000  1.000000e+001
    endloop
  endfacet
  facet normal  0.000000e+000  0.000000e+000  1.000000e+000
    outer loop
      vertex  0.000000e+000  0.000000e+000  1.000000e+001
      vertex  5.988854e+000  6.956619e+000  1.000000e+001
      vertex  4.011146e+000  6.956619e+000  1.000000e+001
    endloop
  endfacet
  facet normal  0.000000e+000  0.000000e+000  1.000000e+000
    outer loop
      vertex  0.000000e+000  0.000000e+000  1.000000e+001
      vertex  4.011146e+000  6.956619e+000  1.000000e+001
      vertex  2.411146e+000  8.119087e+000  1.000000e+001
    endloop
  endfacet
  facet normal  0.000000e+000  0.000000e+000  1.000000e+000
    outer loop
      vertex  0.000000e+000  0.000000e+000  1.000000e+001
      vertex  2.411146e+000  8.119087e+000  1.000000e+001
      vertex  1.800000e+000  1.000000e+001  1.000000e+001
    endloop
  endfacet
  facet normal  0.000000e+000  0.000000e+000  1.000000e+000
    outer loop
      vertex  0.000000e+000  2.000000e+001  1.000000e+001
      vertex  0.000000e+000  0.000000e+000  1.000000e+001
      vertex  1.800000e+000  1.000000e+001  1.000000e+001
    endloop
  endfacet
  facet normal  0.000000e+000  -0.000000e+000  1.000000e+000
    outer loop
      vertex  0.000000e+000  2.000000e+001  1.000000e+001
      vertex  1.800000e+000  1.000000e+001  1.000000e+001
      vertex  2.411146e+000  1.188091e+001  1.000000e+001
    endloop
  endfacet
  facet normal  0.000000e+000  -0.000000e+000  1.000000e+000
    outer loop
      vertex  0.000000e+000  2.000000e+001  1.000000e+001
      vertex  2.411146e+000  1.188091e+001  1.000000e+001
      vertex  4.011146e+000  1.304338e+001  1.000000e+001
    endloop
  endfacet
  facet normal  0.000000e+000  0.000000e+000  1.000000e+000
    outer loop
      vertex  8.000000e+001  0.000000e+000  1.000000e+001
      vertex  7.820000e+001  1.000000e+001  1.000000e+001
      vertex  7.758885e+001  8.119087e+000  1.000000e+001
    endloop
  endfacet
  facet normal  0.000000e+000  0.000000e+000  1.000000e+000
    outer loop
      vertex  8.000000e+001  0.000000e+000  1.000000e+001
      vertex  7.758885e+001  8.119087e+000  1.000000e+001
      vertex  7.598885e+001  6.956619e+000  1.000000e+001
    endloop
  endfacet
  facet normal  0.000000e+000  0.000000e+000  1.000000e+000
    outer loop
      vertex  8.000000e+001  0.000000e+000  1.000000e+001
      vertex  7.598885e+001  6.956619e+000  1.000000e+001
      vertex  7.401115e+001  6.956619e+000  1.000000e+001
    endloop
  endfacet
  facet normal  0.000000e+000  0.000000e+000  1.000000e+000
    outer loop
      vertex  8.000000e+001  0.000000e+000  1.000000e+001
      vertex  7.401115e+001  6.956619e+000  1.000000e+001
      vertex  6.500000e+001  6.000000e+000  1.000000e+001
    endloop
  endfacet
  facet normal  0.000000e+000  0.000000e+000  9.999999e-001
    outer loop
      vertex  1.500000e+001  6.000000e+000  1.000000e+001
      vertex  7.588854e+000  1.188091e+001  1.000000e+001
      vertex  8.200000e+000  1.000000e+001  1.000000e+001
    endloop
  endfacet
  facet normal  0.000000e+000  0.000000e+000  1.000000e+000
    outer loop
      vertex  1.500000e+001  6.000000e+000  1.000000e+001
      vertex  8.200000e+000  1.000000e+001  1.000000e+001
      vertex  7.588854e+000  8.119087e+000  1.000000e+001
    endloop
  endfacet
  facet normal  0.000000e+000  0.000000e+000  1.000000e+000
    outer loop
      vertex  1.500000e+001  6.000000e+000  1.000000e+001
      vertex  7.588854e+000  8.119087e+000  1.000000e+001
      vertex  5.988854e+000  6.956619e+000  1.000000e+001
    endloop
  endfacet
  facet normal  0.000000e+000  0.000000e+000  1.000000e+000
    outer loop
      vertex  6.500000e+001  6.000000e+000  1.000000e+001
      vertex  7.401115e+001  6.956619e+000  1.000000e+001
      vertex  7.241115e+001  8.119087e+000  1.000000e+001
    endloop
  endfacet
  facet normal  0.000000e+000  0.000000e+000  1.000000e+000
    outer loop
      vertex  6.500000e+001  6.000000e+000  1.000000e+001
      vertex  7.241115e+001  8.119087e+000  1.000000e+001
      vertex  7.180000e+001  1.000000e+001  1.000000e+001
    endloop
  endfacet
  facet normal  0.000000e+000  -0.000000e+000  1.000000e+000
    outer loop
      vertex  6.500000e+001  6.000000e+000  1.000000e+001
      vertex  7.180000e+001  1.000000e+001  1.000000e+001
      vertex  7.241115e+001  1.188091e+001  1.000000e+001
    endloop
  endfacet
  facet normal  -0.000000e+000  0.000000e+000  1.000000e+000
    outer loop
      vertex  8.000000e+001  2.000000e+001  1.000000e+001
      vertex  7.598885e+001  1.304338e+001  1.000000e+001
      vertex  7.758885e+001  1.188091e+001  1.000000e+001
    endloop
  endfacet
  facet normal  -0.000000e+000  0.000000e+000  1.000000e+000
    outer loop
      vertex  8.000000e+001  2.000000e+001  1.000000e+001
      vertex  7.758885e+001  1.188091e+001  1.000000e+001
      vertex  7.820000e+001  1.000000e+001  1.000000e+001
    endloop
  endfacet
  facet normal  -0.000000e+000  0.000000e+000  1.000000e+000
    outer loop
      vertex  8.000000e+001  2.000000e+001  1.000000e+001
      vertex  7.820000e+001  1.000000e+001  1.000000e+001
      vertex  8.000000e+001  0.000000e+000  1.000000e+001
    endloop
  endfacet
  facet normal  -0.000000e+000  0.000000e+000  1.000000e+000
    outer loop
      vertex  8.000000e+001  2.000000e+001  1.000000e+001
      vertex  0.000000e+000  2.000000e+001  1.000000e+001
      vertex  6.500000e+001  1.400000e+001  1.000000e+001
    endloop
  endfacet
  facet normal  0.000000e+000  0.000000e+000  1.000000e+000
    outer loop
      vertex  6.500000e+001  1.400000e+001  1.000000e+001
      vertex  0.000000e+000  2.000000e+001  1.000000e+001
      vertex  1.500000e+001  1.400000e+001  1.000000e+001
    endloop
  endfacet
  facet normal  1.000000e+000  0.000000e+000  0.000000e+000
    outer loop
      vertex  1.500000e+001  1.400000e+001  7.000000e+000
      vertex  1.500000e+001  1.400000e+001  1.000000e+001
      vertex  1.500000e+001  6.000000e+000  7.000000e+000
    endloop
  endfacet
  facet normal  1.000000e+000  0.000000e+000  0.000000e+000
    outer loop
      vertex  1.500000e+001  6.000000e+000  7.000000e+000
      vertex  1.500000e+001  1.400000e+001  1.000000e+001
      vertex  1.500000e+001  6.000000e+000  1.000000e+001
    endloop
  endfacet
  facet normal  0.000000e+000 -1.000000e+000  -0.000000e+000
    outer loop
      vertex  6.500000e+001  1.400000e+001  7.000000e+000
      vertex  6.500000e+001  1.400000e+001  1.000000e+001
      vertex  1.500000e+001  1.400000e+001  7.000000e+000
    endloop
  endfacet
  facet normal  0.000000e+000 -1.000000e+000  0.000000e+000
    outer loop
      vertex  1.500000e+001  1.400000e+001  7.000000e+000
      vertex  6.500000e+001  1.400000e+001  1.000000e+001
      vertex  1.500000e+001  1.400000e+001  1.000000e+001
    endloop
  endfacet
  facet normal -1.000000e+000  0.000000e+000  0.000000e+000
    outer loop
      vertex  6.500000e+001  6.000000e+000  7.000000e+000
      vertex  6.500000e+001  6.000000e+000  1.000000e+001
      vertex  6.500000e+001  1.400000e+001  7.000000e+000
    endloop
  endfacet
  facet normal -1.000000e+000  0.000000e+000  0.000000e+000
    outer loop
      vertex  6.500000e+001  1.400000e+001  7.000000e+000
      vertex  6.500000e+001  6.000000e+000  1.000000e+001
      vertex  6.500000e+001  1.400000e+001  1.000000e+001
    endloop
  endfacet
  facet normal  0.000000e+000  1.000000e+000  0.000000e+000
    outer loop
      vertex  1.500000e+001  6.000000e+000  7.000000e+000
      vertex  1.500000e+001  6.000000e+000  1.000000e+001
      vertex  6.500000e+001  6.000000e+000  7.000000e+000
    endloop
  endfacet
  facet normal  0.000000e+000  1.000000e+000  -0.000000e+000
    outer loop
      vertex  6.500000e+001  6.000000e+000  7.000000e+000
      vertex  1.500000e+001  6.000000e+000  1.000000e+001
      vertex  6.500000e+001  6.000000e+000  1.000000e+001
    endloop
  endfacet
  facet normal  5.877852e-001 -8.090170e-001  0.000000e+000
    outer loop
      vertex  4.011146e+000  1.304338e+001  0.000000e+000
      vertex  2.411146e+000  1.188091e+001  1.000000e+001
      vertex  2.411146e+000  1.188091e+001  0.000000e+000
    endloop
  endfacet
  facet normal  9.510565e-001 -3.090171e-001  0.000000e+000
    outer loop
      vertex  2.411146e+000  1.188091e+001  0.000000e+000
      vertex  2.411146e+000  1.188091e+001  1.000000e+001
      vertex  1.800000e+000  1.000000e+001  1.000000e+001
    endloop
  endfacet
  facet normal  9.510565e-001 -3.090171e-001  0.000000e+000
    outer loop
      vertex  2.411146e+000  1.188091e+001  0.000000e+000
      vertex  1.800000e+000  1.000000e+001  1.000000e+001
      vertex  1.800000e+000  1.000000e+001  0.000000e+000
    endloop
  endfacet
  facet normal  5.877852e-001 -8.090170e-001  0.000000e+000
    outer loop
      vertex  2.411146e+000  1.188091e+001  1.000000e+001
      vertex  4.011146e+000  1.304338e+001  0.000000e+000
      vertex  4.011146e+000  1.304338e+001  1.000000e+001
    endloop
  endfacet
  facet normal  0.000000e+000 -1.000000e+000  0.000000e+000
    outer loop
      vertex  4.011146e+000  1.304338e+001  1.000000e+001
      vertex  4.011146e+000  1.304338e+001  0.000000e+000
      vertex  5.988854e+000  1.304338e+001  0.000000e+000
    endloop
  endfacet
  facet normal  0.000000e+000 -1.000000e+000  0.000000e+000
    outer loop
      vertex  4.011146e+000  1.304338e+001  1.000000e+001
      vertex  5.988854e+000  1.304338e+001  0.000000e+000
      vertex  5.988854e+000  1.304338e+001  1.000000e+001
    endloop
  endfacet
  facet normal -5.877852e-001 -8.090170e-001  -0.000000e+000
    outer loop
      vertex  5.988854e+000  1.304338e+001  1.000000e+001
      vertex  5.988854e+000  1.304338e+001  0.000000e+000
      vertex  7.588854e+000  1.188091e+001  0.000000e+000
    endloop
  endfacet
  facet normal -5.877852e-001 -8.090170e-001  0.000000e+000
    outer loop
      vertex  5.988854e+000  1.304338e+001  1.000000e+001
      vertex  7.588854e+000  1.188091e+001  0.000000e+000
      vertex  7.588854e+000  1.188091e+001  1.000000e+001
    endloop
  endfacet
  facet normal -9.510565e-001 -3.090169e-001  -0.000000e+000
    outer loop
      vertex  7.588854e+000  1.188091e+001  1.000000e+001
      vertex  7.588854e+000  1.188091e+001  0.000000e+000
      vertex  8.200000e+000  1.000000e+001  0.000000e+000
    endloop
  endfacet
  facet normal -9.510565e-001 -3.090169e-001  0.000000e+000
    outer loop
      vertex  7.588854e+000  1.188091e+001  1.000000e+001
      vertex  8.200000e+000  1.000000e+001  0.000000e+000
      vertex  8.200000e+000  1.000000e+001  1.000000e+001
    endloop
  endfacet
  facet normal -5.877852e-001  8.090170e-001  0.000000e+000
    outer loop
      vertex  5.988854e+000  6.956619e+000  0.000000e+000
      vertex  7.588854e+000  8.119087e+000  1.000000e+001
      vertex  7.588854e+000  8.119087e+000  0.000000e+000
    endloop
  endfacet
  facet normal -9.510565e-001  3.090169e-001  0.000000e+000
    outer loop
      vertex  7.588854e+000  8.119087e+000  0.000000e+000
      vertex  7.588854e+000  8.119087e+000  1.000000e+001
      vertex  8.200000e+000  1.000000e+001  1.000000e+001
    endloop
  endfacet
  facet normal -9.510565e-001  3.090169e-001  0.000000e+000
    outer loop
      vertex  7.588854e+000  8.119087e+000  0.000000e+000
      vertex  8.200000e+000  1.000000e+001  1.000000e+001
      vertex  8.200000e+000  1.000000e+001  0.000000e+000
    endloop
  endfacet
  facet normal -5.877852e-001  8.090170e-001  0.000000e+000
    outer loop
      vertex  7.588854e+000  8.119087e+000  1.000000e+001
      vertex  5.988854e+000  6.956619e+000  0.000000e+000
      vertex  5.988854e+000  6.956619e+000  1.000000e+001
    endloop
  endfacet
  facet normal  0.000000e+000  1.000000e+000  0.000000e+000
    outer loop
      vertex  5.988854e+000  6.956619e+000  1.000000e+001
      vertex  5.988854e+000  6.956619e+000  0.000000e+000
      vertex  4.011146e+000  6.956619e+000  0.000000e+000
    endloop
  endfacet
  facet normal  0.000000e+000  1.000000e+000  0.000000e+000
    outer loop
      vertex  5.988854e+000  6.956619e+000  1.000000e+001
      vertex  4.011146e+000  6.956619e+000  0.000000e+000
      vertex  4.011146e+000  6.956619e+000  1.000000e+001
    endloop
  endfacet
  facet normal  5.877852e-001  8.090170e-001  0.000000e+000
    outer loop
      vertex  4.011146e+000  6.956619e+000  1.000000e+001
      vertex  4.011146e+000  6.956619e+000  0.000000e+000
      vertex  2.411146e+000  8.119087e+000  0.000000e+000
    endloop
  endfacet
  facet normal  5.877852e-001  8.090170e-001  -0.000000e+000
    outer loop
      vertex  4.011146e+000  6.956619e+000  1.000000e+001
      vertex  2.411146e+000  8.119087e+000  0.000000e+000
      vertex  2.411146e+000  8.119087e+000  1.000000e+001
    endloop
  endfacet
  facet normal  9.510565e-001  3.090171e-001  0.000000e+000
    outer loop
      vertex  2.411146e+000  8.119087e+000  1.000000e+001
      vertex  2.411146e+000  8.119087e+000  0.000000e+000
      vertex  1.800000e+000  1.000000e+001  0.000000e+000
    endloop
  endfacet
  facet normal  9.510565e-001  3.090171e-001  -0.000000e+000
    outer loop
      vertex  2.411146e+000  8.119087e+000  1.000000e+001
      vertex  1.800000e+000  1.000000e+001  0.000000e+000
      vertex  1.800000e+000  1.000000e+001  1.000000e+001
    endloop
  endfacet
  facet normal  5.877856e-001 -8.090168e-001  0.000000e+000
    outer loop
      vertex  7.401115e+001  1.304338e+001  0.000000e+000
      vertex  7.241115e+001  1.188091e+001  1.000000e+001
      vertex  7.241115e+001  1.188091e+001  0.000000e+000
    endloop
  endfacet
  facet normal  9.510566e-001 -3.090167e-001  0.000000e+000
    outer loop
      vertex  7.241115e+001  1.188091e+001  0.000000e+000
      vertex  7.241115e+001  1.188091e+001  1.000000e+001
      vertex  7.180000e+001  1.000000e+001  1.000000e+001
    endloop
  endfacet
  facet normal  9.510566e-001 -3.090167e-001  0.000000e+000
    outer loop
      vertex  7.241115e+001  1.188091e+001  0.000000e+000
      vertex  7.180000e+001  1.000000e+001  1.000000e+001
      vertex  7.180000e+001  1.000000e+001  0.000000e+000
    endloop
  endfacet
  facet normal  5.877856e-001 -8.090168e-001  0.000000e+000
    outer loop
      vertex  7.241115e+001  1.188091e+001  1.000000e+001
      vertex  7.401115e+001  1.304338e+001  0.000000e+000
      vertex  7.401115e+001  1.304338e+001  1.000000e+001
    endloop
  endfacet
  facet normal  0.000000e+000 -1.000000e+000  0.000000e+000
    outer loop
      vertex  7.401115e+001  1.304338e+001  1.000000e+001
      vertex  7.401115e+001  1.304338e+001  0.000000e+000
      vertex  7.598885e+001  1.304338e+001  0.000000e+000
    endloop
  endfacet
  facet normal  0.000000e+000 -1.000000e+000  0.000000e+000
    outer loop
      vertex  7.401115e+001  1.304338e+001  1.000000e+001
      vertex  7.598885e+001  1.304338e+001  0.000000e+000
      vertex  7.598885e+001  1.304338e+001  1.000000e+001
    endloop
  endfacet
  facet normal -5.877856e-001 -8.090168e-001  -0.000000e+000
    outer loop
      vertex  7.598885e+001  1.304338e+001  1.000000e+001
      vertex  7.598885e+001  1.304338e+001  0.000000e+000
      vertex  7.758885e+001  1.188091e+001  0.000000e+000
    endloop
  endfacet
  facet normal -5.877856e-001 -8.090168e-001  0.000000e+000
    outer loop
      vertex  7.598885e+001  1.304338e+001  1.000000e+001
      vertex  7.758885e+001  1.188091e+001  0.000000e+000
      vertex  7.758885e+001  1.188091e+001  1.000000e+001
    endloop
  endfacet
  facet normal -9.510566e-001 -3.090167e-001  -0.000000e+000
    outer loop
      vertex  7.758885e+001  1.188091e+001  1.000000e+001
      vertex  7.758885e+001  1.188091e+001  0.000000e+000
      vertex  7.820000e+001  1.000000e+001  0.000000e+000
    endloop
  endfacet
  facet normal -9.510566e-001 -3.090167e-001  0.000000e+000
    outer loop
      vertex  7.758885e+001  1.188091e+001  1.000000e+001
      vertex  7.820000e+001  1.000000e+001  0.000000e+000
      vertex  7.820000e+001  1.000000e+001  1.000000e+001
    endloop
  endfacet
  facet normal -5.877856e-001  8.090168e-001  0.000000e+000
    outer loop
      vertex  7.598885e+001  6.956619e+000  0.000000e+000
      vertex  7.758885e+001  8.119087e+000  1.000000e+001
      vertex  7.758885e+001  8.119087e+000  0.000000e+000
    endloop
  endfacet
  facet normal -9.510566e-001  3.090167e-001  0.000000e+000
    outer loop
      vertex  7.758885e+001  8.119087e+000  0.000000e+000
      vertex  7.758885e+001  8.119087e+000  1.000000e+001
      vertex  7.820000e+001  1.000000e+001  1.000000e+001
    endloop
  endfacet
  facet normal -9.510566e-001  3.090167e-001  0.000000e+000
    outer loop
      vertex  7.758885e+001  8.119087e+000  0.000000e+000
      vertex  7.820000e+001  1.000000e+001  1.000000e+001
      vertex  7.820000e+001  1.000000e+001  0.000000e+000
    endloop
  endfacet
  facet normal -5.877856e-001  8.090168e-001  0.000000e+000
    outer loop
      vertex  7.758885e+001  8.119087e+000  1.000000e+001
      vertex  7.598885e+001  6.956619e+000  0.000000e+000
      vertex  7.598885e+001  6.956619e+000  1.000000e+001
    endloop
  endfacet
  facet normal  0.000000e+000  1.000000e+000  0.000000e+000
    outer loop
      vertex  7.598885e+001  6.956619e+000  1.000000e+001
      vertex  7.598885e+001  6.956619e+000  0.000000e+000
      vertex  7.401115e+001  6.956619e+000  0.000000e+000
    endloop
  endfacet
  facet normal  0.000000e+000  1.000000e+000  0.000000e+000
    outer loop
      vertex  7.598885e+001  6.956619e+000  1.000000e+001
      vertex  7.401115e+001  6.956619e+000  0.000000e+000
      vertex  7.401115e+001  6.956619e+000  1.000000e+001
    endloop
  endfacet
  facet normal  5.877856e-001  8.090168e-001  0.000000e+000
    outer loop
      vertex  7.401115e+001  6.956619e+000  1.000000e+001
      vertex  7.401115e+001  6.956619e+000  0.000000e+000
      vertex  7.241115e+001  8.119087e+000  0.000000e+000
    endloop
  endfacet
  facet normal  5.877856e-001  8.090168e-001  -0.000000e+000
    outer loop
      vertex  7.401115e+001  6.956619e+000  1.000000e+001
      vertex  7.241115e+001  8.119087e+000  0.000000e+000
      vertex  7.241115e+001  8.119087e+000  1.000000e+001
    endloop
  endfacet
  facet normal  9.510566e-001  3.090167e-001  0.000000e+000
    outer loop
      vertex  7.241115e+001  8.119087e+000  1.000000e+001
      vertex  7.241115e+001  8.119087e+000  0.000000e+000
      vertex  7.180000e+001  1.000000e+001  0.000000e+000
    endloop
  endfacet
  facet normal  9.510566e-001  3.090167e-001  -0.000000e+000
    outer loop
      vertex  7.241115e+001  8.119087e+000  1.000000e+001
      vertex  7.180000e+001  1.000000e+001  0.000000e+000
      vertex  7.180000e+001  1.000000e+001  1.000000e+001
    endloop
  endfacet
  facet normal -1.000000e+000  0.000000e+000  0.000000e+000
    outer loop
      vertex  0.000000e+000  2.000000e+001  1.000000e+001
      vertex  0.000000e+000  2.000000e+001  0.000000e+000
      vertex  0.000000e+000  0.000000e+000  1.000000e+001
    endloop
  endfacet
  facet normal -1.000000e+000  0.000000e+000  0.000000e+000
    outer loop
      vertex  0.000000e+000  0.000000e+000  1.000000e+001
      vertex  0.000000e+000  2.000000e+001  0.000000e+000
      vertex  0.000000e+000  0.000000e+000  0.000000e+000
    endloop
  endfacet
  facet normal  1.000000e+000  0.000000e+000  0.000000e+000
    outer loop
      vertex  8.000000e+001  0.000000e+000  1.000000e+001
      vertex  8.000000e+001  0.000000e+000  0.000000e+000
      vertex  8.000000e+001  2.000000e+001  1.000000e+001
    endloop
  endfacet
  facet normal  1.000000e+000  0.000000e+000  0.000000e+000
    outer loop
      vertex  8.000000e+001  2.000000e+001  1.000000e+001
      vertex  8.000000e+001  0.000000e+000  0.000000e+000
      vertex  8.000000e+001  2.000000e+001  0.000000e+000
    endloop
  endfacet
endsolid CATIA STL
