solid CATIA STL
  facet normal  0.000000e+000  1.000000e+000  0.000000e+000
    outer loop
      vertex  4.000000e+001  7.000000e+000  5.000000e+000
      vertex  7.000000e+001  7.000000e+000  7.500000e+000
      vertex  1.000000e+002  7.000000e+000  5.000000e+000
    endloop
  endfacet
  facet normal  0.000000e+000  1.000000e+000  -0.000000e+000
    outer loop
      vertex  1.000000e+002  7.000000e+000  1.500000e+001
      vertex  1.000000e+002  7.000000e+000  5.000000e+000
      vertex  7.000000e+001  7.000000e+000  7.500000e+000
    endloop
  endfacet
  facet normal  0.000000e+000  1.000000e+000  0.000000e+000
    outer loop
      vertex  1.000000e+002  7.000000e+000  1.500000e+001
      vertex  7.000000e+001  7.000000e+000  7.500000e+000
      vertex  7.176777e+001  7.000000e+000  8.232233e+000
    endloop
  endfacet
  facet normal  0.000000e+000  1.000000e+000  0.000000e+000
    outer loop
      vertex  1.000000e+002  7.000000e+000  1.500000e+001
      vertex  7.176777e+001  7.000000e+000  8.232233e+000
      vertex  7.250000e+001  7.000000e+000  1.000000e+001
    endloop
  endfacet
  facet normal  0.000000e+000  9.999999e-001  -0.000000e+000
    outer loop
      vertex  1.000000e+002  7.000000e+000  1.500000e+001
      vertex  7.250000e+001  7.000000e+000  1.000000e+001
      vertex  7.176777e+001  7.000000e+000  1.176777e+001
    endloop
  endfacet
  facet normal  0.000000e+000  1.000000e+000  -0.000000e+000
    outer loop
      vertex  1.000000e+002  7.000000e+000  1.500000e+001
      vertex  7.176777e+001  7.000000e+000  1.176777e+001
      vertex  7.000000e+001  7.000000e+000  1.250000e+001
    endloop
  endfacet
  facet normal  0.000000e+000  1.000000e+000  -0.000000e+000
    outer loop
      vertex  1.000000e+002  7.000000e+000  1.500000e+001
      vertex  7.000000e+001  7.000000e+000  1.250000e+001
      vertex  4.000000e+001  7.000000e+000  1.500000e+001
    endloop
  endfacet
  facet normal  0.000000e+000  1.000000e+000  0.000000e+000
    outer loop
      vertex  4.000000e+001  7.000000e+000  1.500000e+001
      vertex  7.000000e+001  7.000000e+000  1.250000e+001
      vertex  6.823223e+001  7.000000e+000  1.176777e+001
    endloop
  endfacet
  facet normal  0.000000e+000  9.999999e-001  0.000000e+000
    outer loop
      vertex  4.000000e+001  7.000000e+000  1.500000e+001
      vertex  6.823223e+001  7.000000e+000  1.176777e+001
      vertex  6.750000e+001  7.000000e+000  1.000000e+001
    endloop
  endfacet
  facet normal  0.000000e+000  1.000000e+000  0.000000e+000
    outer loop
      vertex  4.000000e+001  7.000000e+000  1.500000e+001
      vertex  6.750000e+001  7.000000e+000  1.000000e+001
      vertex  6.823223e+001  7.000000e+000  8.232233e+000
    endloop
  endfacet
  facet normal  0.000000e+000  1.000000e+000  0.000000e+000
    outer loop
      vertex  4.000000e+001  7.000000e+000  1.500000e+001
      vertex  6.823223e+001  7.000000e+000  8.232233e+000
      vertex  7.000000e+001  7.000000e+000  7.500000e+000
    endloop
  endfacet
  facet normal  0.000000e+000  1.000000e+000  0.000000e+000
    outer loop
      vertex  4.000000e+001  7.000000e+000  1.500000e+001
      vertex  7.000000e+001  7.000000e+000  7.500000e+000
      vertex  4.000000e+001  7.000000e+000  5.000000e+000
    endloop
  endfacet
  facet normal  -0.000000e+000 -1.000000e+000  0.000000e+000
    outer loop
      vertex  4.000000e+001  3.000000e+000  5.000000e+000
      vertex  7.000000e+001  3.000000e+000  7.500000e+000
      vertex  4.000000e+001  3.000000e+000  1.500000e+001
    endloop
  endfacet
  facet normal  0.000000e+000 -1.000000e+000  0.000000e+000
    outer loop
      vertex  4.000000e+001  3.000000e+000  5.000000e+000
      vertex  1.000000e+002  3.000000e+000  5.000000e+000
      vertex  7.000000e+001  3.000000e+000  7.500000e+000
    endloop
  endfacet
  facet normal  0.000000e+000 -1.000000e+000  0.000000e+000
    outer loop
      vertex  4.000000e+001  3.000000e+000  1.500000e+001
      vertex  7.000000e+001  3.000000e+000  7.500000e+000
      vertex  6.823223e+001  3.000000e+000  8.232233e+000
    endloop
  endfacet
  facet normal  0.000000e+000 -1.000000e+000  0.000000e+000
    outer loop
      vertex  4.000000e+001  3.000000e+000  1.500000e+001
      vertex  6.823223e+001  3.000000e+000  8.232233e+000
      vertex  6.750000e+001  3.000000e+000  1.000000e+001
    endloop
  endfacet
  facet normal  0.000000e+000 -9.999999e-001  0.000000e+000
    outer loop
      vertex  4.000000e+001  3.000000e+000  1.500000e+001
      vertex  6.750000e+001  3.000000e+000  1.000000e+001
      vertex  6.823223e+001  3.000000e+000  1.176777e+001
    endloop
  endfacet
  facet normal  0.000000e+000 -1.000000e+000  0.000000e+000
    outer loop
      vertex  4.000000e+001  3.000000e+000  1.500000e+001
      vertex  6.823223e+001  3.000000e+000  1.176777e+001
      vertex  7.000000e+001  3.000000e+000  1.250000e+001
    endloop
  endfacet
  facet normal  0.000000e+000 -1.000000e+000  0.000000e+000
    outer loop
      vertex  4.000000e+001  3.000000e+000  1.500000e+001
      vertex  7.000000e+001  3.000000e+000  1.250000e+001
      vertex  1.000000e+002  3.000000e+000  1.500000e+001
    endloop
  endfacet
  facet normal  0.000000e+000 -1.000000e+000  0.000000e+000
    outer loop
      vertex  1.000000e+002  3.000000e+000  1.500000e+001
      vertex  7.000000e+001  3.000000e+000  1.250000e+001
      vertex  7.176777e+001  3.000000e+000  1.176777e+001
    endloop
  endfacet
  facet normal  0.000000e+000 -9.999999e-001  0.000000e+000
    outer loop
      vertex  1.000000e+002  3.000000e+000  1.500000e+001
      vertex  7.176777e+001  3.000000e+000  1.176777e+001
      vertex  7.250000e+001  3.000000e+000  1.000000e+001
    endloop
  endfacet
  facet normal  0.000000e+000 -1.000000e+000  -0.000000e+000
    outer loop
      vertex  1.000000e+002  3.000000e+000  1.500000e+001
      vertex  7.250000e+001  3.000000e+000  1.000000e+001
      vertex  7.176777e+001  3.000000e+000  8.232233e+000
    endloop
  endfacet
  facet normal  0.000000e+000 -1.000000e+000  -0.000000e+000
    outer loop
      vertex  1.000000e+002  3.000000e+000  1.500000e+001
      vertex  7.176777e+001  3.000000e+000  8.232233e+000
      vertex  7.000000e+001  3.000000e+000  7.500000e+000
    endloop
  endfacet
  facet normal  0.000000e+000 -1.000000e+000  0.000000e+000
    outer loop
      vertex  1.000000e+002  3.000000e+000  1.500000e+001
      vertex  7.000000e+001  3.000000e+000  7.500000e+000
      vertex  1.000000e+002  3.000000e+000  5.000000e+000
    endloop
  endfacet
  facet normal  3.826831e-001  0.000000e+000 -9.238797e-001
    outer loop
      vertex  7.000000e+001  7.000000e+000  1.250000e+001
      vertex  6.823223e+001  3.000000e+000  1.176777e+001
      vertex  6.823223e+001  7.000000e+000  1.176777e+001
    endloop
  endfacet
  facet normal  9.238799e-001  0.000000e+000 -3.826826e-001
    outer loop
      vertex  6.823223e+001  7.000000e+000  1.176777e+001
      vertex  6.823223e+001  3.000000e+000  1.176777e+001
      vertex  6.750000e+001  3.000000e+000  1.000000e+001
    endloop
  endfacet
  facet normal  9.238799e-001  0.000000e+000 -3.826826e-001
    outer loop
      vertex  6.823223e+001  7.000000e+000  1.176777e+001
      vertex  6.750000e+001  3.000000e+000  1.000000e+001
      vertex  6.750000e+001  7.000000e+000  1.000000e+001
    endloop
  endfacet
  facet normal  3.826831e-001  0.000000e+000 -9.238797e-001
    outer loop
      vertex  6.823223e+001  3.000000e+000  1.176777e+001
      vertex  7.000000e+001  7.000000e+000  1.250000e+001
      vertex  7.000000e+001  3.000000e+000  1.250000e+001
    endloop
  endfacet
  facet normal -3.826831e-001  0.000000e+000 -9.238797e-001
    outer loop
      vertex  7.000000e+001  3.000000e+000  1.250000e+001
      vertex  7.000000e+001  7.000000e+000  1.250000e+001
      vertex  7.176777e+001  7.000000e+000  1.176777e+001
    endloop
  endfacet
  facet normal -3.826831e-001  -0.000000e+000 -9.238797e-001
    outer loop
      vertex  7.000000e+001  3.000000e+000  1.250000e+001
      vertex  7.176777e+001  7.000000e+000  1.176777e+001
      vertex  7.176777e+001  3.000000e+000  1.176777e+001
    endloop
  endfacet
  facet normal -9.238799e-001  0.000000e+000 -3.826826e-001
    outer loop
      vertex  7.176777e+001  3.000000e+000  1.176777e+001
      vertex  7.176777e+001  7.000000e+000  1.176777e+001
      vertex  7.250000e+001  7.000000e+000  1.000000e+001
    endloop
  endfacet
  facet normal -9.238799e-001  -0.000000e+000 -3.826826e-001
    outer loop
      vertex  7.176777e+001  3.000000e+000  1.176777e+001
      vertex  7.250000e+001  7.000000e+000  1.000000e+001
      vertex  7.250000e+001  3.000000e+000  1.000000e+001
    endloop
  endfacet
  facet normal -3.826831e-001  0.000000e+000  9.238797e-001
    outer loop
      vertex  7.000000e+001  7.000000e+000  7.500000e+000
      vertex  7.176777e+001  3.000000e+000  8.232233e+000
      vertex  7.176777e+001  7.000000e+000  8.232233e+000
    endloop
  endfacet
  facet normal -9.238799e-001  0.000000e+000  3.826826e-001
    outer loop
      vertex  7.176777e+001  7.000000e+000  8.232233e+000
      vertex  7.176777e+001  3.000000e+000  8.232233e+000
      vertex  7.250000e+001  3.000000e+000  1.000000e+001
    endloop
  endfacet
  facet normal -9.238799e-001  0.000000e+000  3.826826e-001
    outer loop
      vertex  7.176777e+001  7.000000e+000  8.232233e+000
      vertex  7.250000e+001  3.000000e+000  1.000000e+001
      vertex  7.250000e+001  7.000000e+000  1.000000e+001
    endloop
  endfacet
  facet normal -3.826831e-001  0.000000e+000  9.238797e-001
    outer loop
      vertex  7.176777e+001  3.000000e+000  8.232233e+000
      vertex  7.000000e+001  7.000000e+000  7.500000e+000
      vertex  7.000000e+001  3.000000e+000  7.500000e+000
    endloop
  endfacet
  facet normal  3.826831e-001  -0.000000e+000  9.238797e-001
    outer loop
      vertex  7.000000e+001  3.000000e+000  7.500000e+000
      vertex  7.000000e+001  7.000000e+000  7.500000e+000
      vertex  6.823223e+001  7.000000e+000  8.232233e+000
    endloop
  endfacet
  facet normal  3.826831e-001  0.000000e+000  9.238797e-001
    outer loop
      vertex  7.000000e+001  3.000000e+000  7.500000e+000
      vertex  6.823223e+001  7.000000e+000  8.232233e+000
      vertex  6.823223e+001  3.000000e+000  8.232233e+000
    endloop
  endfacet
  facet normal  9.238799e-001  -0.000000e+000  3.826826e-001
    outer loop
      vertex  6.823223e+001  3.000000e+000  8.232233e+000
      vertex  6.823223e+001  7.000000e+000  8.232233e+000
      vertex  6.750000e+001  7.000000e+000  1.000000e+001
    endloop
  endfacet
  facet normal  9.238799e-001  0.000000e+000  3.826826e-001
    outer loop
      vertex  6.823223e+001  3.000000e+000  8.232233e+000
      vertex  6.750000e+001  7.000000e+000  1.000000e+001
      vertex  6.750000e+001  3.000000e+000  1.000000e+001
    endloop
  endfacet
  facet normal  0.000000e+000  -0.000000e+000  1.000000e+000
    outer loop
      vertex  3.000000e+001  1.000000e+001  2.000000e+001
      vertex  3.241114e+001  6.880913e+000  2.000000e+001
      vertex  3.401115e+001  8.043381e+000  2.000000e+001
    endloop
  endfacet
  facet normal  -0.000000e+000  0.000000e+000  1.000000e+000
    outer loop
      vertex  4.000000e+001  1.000000e+001  2.000000e+001
      vertex  3.000000e+001  1.000000e+001  2.000000e+001
      vertex  3.401115e+001  8.043381e+000  2.000000e+001
    endloop
  endfacet
  facet normal  0.000000e+000  0.000000e+000  1.000000e+000
    outer loop
      vertex  4.000000e+001  1.000000e+001  2.000000e+001
      vertex  3.401115e+001  8.043381e+000  2.000000e+001
      vertex  3.598885e+001  8.043381e+000  2.000000e+001
    endloop
  endfacet
  facet normal  -0.000000e+000  0.000000e+000  1.000000e+000
    outer loop
      vertex  4.000000e+001  1.000000e+001  2.000000e+001
      vertex  3.598885e+001  8.043381e+000  2.000000e+001
      vertex  3.758886e+001  6.880913e+000  2.000000e+001
    endloop
  endfacet
  facet normal  -0.000000e+000  0.000000e+000  1.000000e+000
    outer loop
      vertex  4.000000e+001  1.000000e+001  2.000000e+001
      vertex  3.758886e+001  6.880913e+000  2.000000e+001
      vertex  4.000000e+001  0.000000e+000  2.000000e+001
    endloop
  endfacet
  facet normal  0.000000e+000  0.000000e+000  1.000000e+000
    outer loop
      vertex  3.000000e+001  0.000000e+000  2.000000e+001
      vertex  4.000000e+001  0.000000e+000  2.000000e+001
      vertex  3.598885e+001  1.956619e+000  2.000000e+001
    endloop
  endfacet
  facet normal  0.000000e+000  0.000000e+000  1.000000e+000
    outer loop
      vertex  3.000000e+001  0.000000e+000  2.000000e+001
      vertex  3.598885e+001  1.956619e+000  2.000000e+001
      vertex  3.401115e+001  1.956619e+000  2.000000e+001
    endloop
  endfacet
  facet normal  0.000000e+000  0.000000e+000  1.000000e+000
    outer loop
      vertex  3.000000e+001  0.000000e+000  2.000000e+001
      vertex  3.401115e+001  1.956619e+000  2.000000e+001
      vertex  3.241114e+001  3.119087e+000  2.000000e+001
    endloop
  endfacet
  facet normal  0.000000e+000  0.000000e+000  1.000000e+000
    outer loop
      vertex  3.000000e+001  0.000000e+000  2.000000e+001
      vertex  3.241114e+001  3.119087e+000  2.000000e+001
      vertex  3.180000e+001  5.000000e+000  2.000000e+001
    endloop
  endfacet
  facet normal  0.000000e+000  -0.000000e+000  1.000000e+000
    outer loop
      vertex  3.000000e+001  0.000000e+000  2.000000e+001
      vertex  3.180000e+001  5.000000e+000  2.000000e+001
      vertex  3.241114e+001  6.880913e+000  2.000000e+001
    endloop
  endfacet
  facet normal  0.000000e+000  0.000000e+000  1.000000e+000
    outer loop
      vertex  3.000000e+001  0.000000e+000  2.000000e+001
      vertex  3.241114e+001  6.880913e+000  2.000000e+001
      vertex  3.000000e+001  1.000000e+001  2.000000e+001
    endloop
  endfacet
  facet normal  0.000000e+000  0.000000e+000  1.000000e+000
    outer loop
      vertex  4.000000e+001  0.000000e+000  2.000000e+001
      vertex  3.758886e+001  6.880913e+000  2.000000e+001
      vertex  3.820000e+001  5.000000e+000  2.000000e+001
    endloop
  endfacet
  facet normal  0.000000e+000  0.000000e+000  1.000000e+000
    outer loop
      vertex  4.000000e+001  0.000000e+000  2.000000e+001
      vertex  3.820000e+001  5.000000e+000  2.000000e+001
      vertex  3.758886e+001  3.119087e+000  2.000000e+001
    endloop
  endfacet
  facet normal  0.000000e+000  0.000000e+000  1.000000e+000
    outer loop
      vertex  4.000000e+001  0.000000e+000  2.000000e+001
      vertex  3.758886e+001  3.119087e+000  2.000000e+001
      vertex  3.598885e+001  1.956619e+000  2.000000e+001
    endloop
  endfacet
  facet normal  -0.000000e+000  0.000000e+000  1.000000e+000
    outer loop
      vertex  1.100000e+002  1.000000e+001  2.000000e+001
      vertex  1.059888e+002  8.043393e+000  2.000000e+001
      vertex  1.075888e+002  6.880944e+000  2.000000e+001
    endloop
  endfacet
  facet normal  0.000000e+000  0.000000e+000  1.000000e+000
    outer loop
      vertex  1.000000e+002  1.000000e+001  2.000000e+001
      vertex  1.000000e+002  0.000000e+000  2.000000e+001
      vertex  1.024111e+002  6.880882e+000  2.000000e+001
    endloop
  endfacet
  facet normal  0.000000e+000  -0.000000e+000  1.000000e+000
    outer loop
      vertex  1.000000e+002  1.000000e+001  2.000000e+001
      vertex  1.024111e+002  6.880882e+000  2.000000e+001
      vertex  1.040111e+002  8.043369e+000  2.000000e+001
    endloop
  endfacet
  facet normal  0.000000e+000  -0.000000e+000  1.000000e+000
    outer loop
      vertex  1.000000e+002  1.000000e+001  2.000000e+001
      vertex  1.040111e+002  8.043369e+000  2.000000e+001
      vertex  1.059888e+002  8.043393e+000  2.000000e+001
    endloop
  endfacet
  facet normal  0.000000e+000  -0.000000e+000  1.000000e+000
    outer loop
      vertex  1.000000e+002  1.000000e+001  2.000000e+001
      vertex  1.059888e+002  8.043393e+000  2.000000e+001
      vertex  1.100000e+002  1.000000e+001  2.000000e+001
    endloop
  endfacet
  facet normal  0.000000e+000  0.000000e+000  1.000000e+000
    outer loop
      vertex  1.000000e+002  0.000000e+000  2.000000e+001
      vertex  1.100000e+002  0.000000e+000  2.000000e+001
      vertex  1.059889e+002  1.956631e+000  2.000000e+001
    endloop
  endfacet
  facet normal  0.000000e+000  0.000000e+000  9.999999e-001
    outer loop
      vertex  1.000000e+002  0.000000e+000  2.000000e+001
      vertex  1.059889e+002  1.956631e+000  2.000000e+001
      vertex  1.040112e+002  1.956607e+000  2.000000e+001
    endloop
  endfacet
  facet normal  0.000000e+000  0.000000e+000  1.000000e+000
    outer loop
      vertex  1.000000e+002  0.000000e+000  2.000000e+001
      vertex  1.040112e+002  1.956607e+000  2.000000e+001
      vertex  1.024112e+002  3.119056e+000  2.000000e+001
    endloop
  endfacet
  facet normal  0.000000e+000  0.000000e+000  1.000000e+000
    outer loop
      vertex  1.000000e+002  0.000000e+000  2.000000e+001
      vertex  1.024112e+002  3.119056e+000  2.000000e+001
      vertex  1.018000e+002  4.999961e+000  2.000000e+001
    endloop
  endfacet
  facet normal  0.000000e+000  -0.000000e+000  1.000000e+000
    outer loop
      vertex  1.000000e+002  0.000000e+000  2.000000e+001
      vertex  1.018000e+002  4.999961e+000  2.000000e+001
      vertex  1.024111e+002  6.880882e+000  2.000000e+001
    endloop
  endfacet
  facet normal  0.000000e+000  0.000000e+000  9.999999e-001
    outer loop
      vertex  1.100000e+002  0.000000e+000  2.000000e+001
      vertex  1.100000e+002  1.000000e+001  2.000000e+001
      vertex  1.075888e+002  6.880944e+000  2.000000e+001
    endloop
  endfacet
  facet normal  0.000000e+000  0.000000e+000  1.000000e+000
    outer loop
      vertex  1.100000e+002  0.000000e+000  2.000000e+001
      vertex  1.075888e+002  6.880944e+000  2.000000e+001
      vertex  1.082000e+002  5.000039e+000  2.000000e+001
    endloop
  endfacet
  facet normal  0.000000e+000  0.000000e+000  9.999999e-001
    outer loop
      vertex  1.100000e+002  0.000000e+000  2.000000e+001
      vertex  1.082000e+002  5.000039e+000  2.000000e+001
      vertex  1.075889e+002  3.119118e+000  2.000000e+001
    endloop
  endfacet
  facet normal  0.000000e+000  0.000000e+000  1.000000e+000
    outer loop
      vertex  1.100000e+002  0.000000e+000  2.000000e+001
      vertex  1.075889e+002  3.119118e+000  2.000000e+001
      vertex  1.059889e+002  1.956631e+000  2.000000e+001
    endloop
  endfacet
  facet normal  0.000000e+000  0.000000e+000 -1.000000e+000
    outer loop
      vertex  3.401115e+001  8.043381e+000  0.000000e+000
      vertex  3.241114e+001  6.880913e+000  0.000000e+000
      vertex  3.000000e+001  1.000000e+001  0.000000e+000
    endloop
  endfacet
  facet normal  0.000000e+000  0.000000e+000 -1.000000e+000
    outer loop
      vertex  4.000000e+001  1.000000e+001  0.000000e+000
      vertex  4.000000e+001  0.000000e+000  0.000000e+000
      vertex  3.758886e+001  6.880913e+000  0.000000e+000
    endloop
  endfacet
  facet normal  0.000000e+000  0.000000e+000 -1.000000e+000
    outer loop
      vertex  4.000000e+001  1.000000e+001  0.000000e+000
      vertex  3.758886e+001  6.880913e+000  0.000000e+000
      vertex  3.598885e+001  8.043381e+000  0.000000e+000
    endloop
  endfacet
  facet normal  0.000000e+000  0.000000e+000 -1.000000e+000
    outer loop
      vertex  4.000000e+001  1.000000e+001  0.000000e+000
      vertex  3.598885e+001  8.043381e+000  0.000000e+000
      vertex  3.401115e+001  8.043381e+000  0.000000e+000
    endloop
  endfacet
  facet normal  0.000000e+000  0.000000e+000 -1.000000e+000
    outer loop
      vertex  4.000000e+001  1.000000e+001  0.000000e+000
      vertex  3.401115e+001  8.043381e+000  0.000000e+000
      vertex  3.000000e+001  1.000000e+001  0.000000e+000
    endloop
  endfacet
  facet normal  0.000000e+000  0.000000e+000 -1.000000e+000
    outer loop
      vertex  3.000000e+001  0.000000e+000  0.000000e+000
      vertex  3.000000e+001  1.000000e+001  0.000000e+000
      vertex  3.241114e+001  6.880913e+000  0.000000e+000
    endloop
  endfacet
  facet normal  0.000000e+000  0.000000e+000 -1.000000e+000
    outer loop
      vertex  3.000000e+001  0.000000e+000  0.000000e+000
      vertex  3.241114e+001  6.880913e+000  0.000000e+000
      vertex  3.180000e+001  5.000000e+000  0.000000e+000
    endloop
  endfacet
  facet normal  0.000000e+000  -0.000000e+000 -1.000000e+000
    outer loop
      vertex  3.000000e+001  0.000000e+000  0.000000e+000
      vertex  3.180000e+001  5.000000e+000  0.000000e+000
      vertex  3.241114e+001  3.119087e+000  0.000000e+000
    endloop
  endfacet
  facet normal  0.000000e+000  -0.000000e+000 -1.000000e+000
    outer loop
      vertex  3.000000e+001  0.000000e+000  0.000000e+000
      vertex  3.241114e+001  3.119087e+000  0.000000e+000
      vertex  3.401115e+001  1.956619e+000  0.000000e+000
    endloop
  endfacet
  facet normal  0.000000e+000  -0.000000e+000 -1.000000e+000
    outer loop
      vertex  3.000000e+001  0.000000e+000  0.000000e+000
      vertex  3.401115e+001  1.956619e+000  0.000000e+000
      vertex  3.598885e+001  1.956619e+000  0.000000e+000
    endloop
  endfacet
  facet normal  0.000000e+000  -0.000000e+000 -1.000000e+000
    outer loop
      vertex  3.000000e+001  0.000000e+000  0.000000e+000
      vertex  3.598885e+001  1.956619e+000  0.000000e+000
      vertex  4.000000e+001  0.000000e+000  0.000000e+000
    endloop
  endfacet
  facet normal  0.000000e+000  0.000000e+000 -1.000000e+000
    outer loop
      vertex  4.000000e+001  0.000000e+000  0.000000e+000
      vertex  3.598885e+001  1.956619e+000  0.000000e+000
      vertex  3.758886e+001  3.119087e+000  0.000000e+000
    endloop
  endfacet
  facet normal  0.000000e+000  0.000000e+000 -1.000000e+000
    outer loop
      vertex  4.000000e+001  0.000000e+000  0.000000e+000
      vertex  3.758886e+001  3.119087e+000  0.000000e+000
      vertex  3.820000e+001  5.000000e+000  0.000000e+000
    endloop
  endfacet
  facet normal  0.000000e+000  0.000000e+000 -1.000000e+000
    outer loop
      vertex  4.000000e+001  0.000000e+000  0.000000e+000
      vertex  3.820000e+001  5.000000e+000  0.000000e+000
      vertex  3.758886e+001  6.880913e+000  0.000000e+000
    endloop
  endfacet
  facet normal  0.000000e+000  0.000000e+000 -1.000000e+000
    outer loop
      vertex  1.075888e+002  6.880944e+000  0.000000e+000
      vertex  1.059888e+002  8.043393e+000  0.000000e+000
      vertex  1.100000e+002  1.000000e+001  0.000000e+000
    endloop
  endfacet
  facet normal  -0.000000e+000  0.000000e+000 -1.000000e+000
    outer loop
      vertex  1.000000e+002  1.000000e+001  0.000000e+000
      vertex  1.100000e+002  1.000000e+001  0.000000e+000
      vertex  1.059888e+002  8.043393e+000  0.000000e+000
    endloop
  endfacet
  facet normal  -0.000000e+000  0.000000e+000 -1.000000e+000
    outer loop
      vertex  1.000000e+002  1.000000e+001  0.000000e+000
      vertex  1.059888e+002  8.043393e+000  0.000000e+000
      vertex  1.040111e+002  8.043369e+000  0.000000e+000
    endloop
  endfacet
  facet normal  -0.000000e+000  0.000000e+000 -1.000000e+000
    outer loop
      vertex  1.000000e+002  1.000000e+001  0.000000e+000
      vertex  1.040111e+002  8.043369e+000  0.000000e+000
      vertex  1.024111e+002  6.880882e+000  0.000000e+000
    endloop
  endfacet
  facet normal  -0.000000e+000  0.000000e+000 -1.000000e+000
    outer loop
      vertex  1.000000e+002  1.000000e+001  0.000000e+000
      vertex  1.024111e+002  6.880882e+000  0.000000e+000
      vertex  1.000000e+002  0.000000e+000  0.000000e+000
    endloop
  endfacet
  facet normal  0.000000e+000  0.000000e+000 -1.000000e+000
    outer loop
      vertex  1.000000e+002  0.000000e+000  0.000000e+000
      vertex  1.024111e+002  6.880882e+000  0.000000e+000
      vertex  1.018000e+002  4.999961e+000  0.000000e+000
    endloop
  endfacet
  facet normal  0.000000e+000  -0.000000e+000 -1.000000e+000
    outer loop
      vertex  1.000000e+002  0.000000e+000  0.000000e+000
      vertex  1.018000e+002  4.999961e+000  0.000000e+000
      vertex  1.024112e+002  3.119056e+000  0.000000e+000
    endloop
  endfacet
  facet normal  0.000000e+000  -0.000000e+000 -1.000000e+000
    outer loop
      vertex  1.000000e+002  0.000000e+000  0.000000e+000
      vertex  1.024112e+002  3.119056e+000  0.000000e+000
      vertex  1.040112e+002  1.956607e+000  0.000000e+000
    endloop
  endfacet
  facet normal  0.000000e+000  -0.000000e+000 -9.999999e-001
    outer loop
      vertex  1.000000e+002  0.000000e+000  0.000000e+000
      vertex  1.040112e+002  1.956607e+000  0.000000e+000
      vertex  1.059889e+002  1.956631e+000  0.000000e+000
    endloop
  endfacet
  facet normal  0.000000e+000  -0.000000e+000 -1.000000e+000
    outer loop
      vertex  1.000000e+002  0.000000e+000  0.000000e+000
      vertex  1.059889e+002  1.956631e+000  0.000000e+000
      vertex  1.100000e+002  0.000000e+000  0.000000e+000
    endloop
  endfacet
  facet normal  0.000000e+000  0.000000e+000 -1.000000e+000
    outer loop
      vertex  1.100000e+002  0.000000e+000  0.000000e+000
      vertex  1.059889e+002  1.956631e+000  0.000000e+000
      vertex  1.075889e+002  3.119118e+000  0.000000e+000
    endloop
  endfacet
  facet normal  0.000000e+000  0.000000e+000 -1.000000e+000
    outer loop
      vertex  1.100000e+002  0.000000e+000  0.000000e+000
      vertex  1.075889e+002  3.119118e+000  0.000000e+000
      vertex  1.082000e+002  5.000039e+000  0.000000e+000
    endloop
  endfacet
  facet normal  0.000000e+000  0.000000e+000 -1.000000e+000
    outer loop
      vertex  1.100000e+002  0.000000e+000  0.000000e+000
      vertex  1.082000e+002  5.000039e+000  0.000000e+000
      vertex  1.075888e+002  6.880944e+000  0.000000e+000
    endloop
  endfacet
  facet normal  0.000000e+000  0.000000e+000 -9.999999e-001
    outer loop
      vertex  1.100000e+002  0.000000e+000  0.000000e+000
      vertex  1.075888e+002  6.880944e+000  0.000000e+000
      vertex  1.100000e+002  1.000000e+001  0.000000e+000
    endloop
  endfacet
  facet normal  1.000000e+000  -0.000000e+000  0.000000e+000
    outer loop
      vertex  4.000000e+001  1.000000e+001  2.000000e+001
      vertex  4.000000e+001  7.000000e+000  1.500000e+001
      vertex  4.000000e+001  1.000000e+001  0.000000e+000
    endloop
  endfacet
  facet normal  1.000000e+000  0.000000e+000  0.000000e+000
    outer loop
      vertex  4.000000e+001  1.000000e+001  0.000000e+000
      vertex  4.000000e+001  7.000000e+000  1.500000e+001
      vertex  4.000000e+001  7.000000e+000  5.000000e+000
    endloop
  endfacet
  facet normal  1.000000e+000  0.000000e+000  0.000000e+000
    outer loop
      vertex  4.000000e+001  1.000000e+001  0.000000e+000
      vertex  4.000000e+001  7.000000e+000  5.000000e+000
      vertex  4.000000e+001  0.000000e+000  0.000000e+000
    endloop
  endfacet
  facet normal  1.000000e+000  0.000000e+000  0.000000e+000
    outer loop
      vertex  4.000000e+001  0.000000e+000  0.000000e+000
      vertex  4.000000e+001  7.000000e+000  5.000000e+000
      vertex  4.000000e+001  3.000000e+000  5.000000e+000
    endloop
  endfacet
  facet normal  1.000000e+000  0.000000e+000  0.000000e+000
    outer loop
      vertex  4.000000e+001  0.000000e+000  0.000000e+000
      vertex  4.000000e+001  3.000000e+000  5.000000e+000
      vertex  4.000000e+001  0.000000e+000  2.000000e+001
    endloop
  endfacet
  facet normal  1.000000e+000  0.000000e+000  0.000000e+000
    outer loop
      vertex  4.000000e+001  0.000000e+000  2.000000e+001
      vertex  4.000000e+001  3.000000e+000  5.000000e+000
      vertex  4.000000e+001  3.000000e+000  1.500000e+001
    endloop
  endfacet
  facet normal  1.000000e+000  0.000000e+000  -0.000000e+000
    outer loop
      vertex  4.000000e+001  0.000000e+000  2.000000e+001
      vertex  4.000000e+001  3.000000e+000  1.500000e+001
      vertex  4.000000e+001  1.000000e+001  2.000000e+001
    endloop
  endfacet
  facet normal  1.000000e+000  0.000000e+000  0.000000e+000
    outer loop
      vertex  4.000000e+001  1.000000e+001  2.000000e+001
      vertex  4.000000e+001  3.000000e+000  1.500000e+001
      vertex  4.000000e+001  7.000000e+000  1.500000e+001
    endloop
  endfacet
  facet normal -1.000000e+000  0.000000e+000  0.000000e+000
    outer loop
      vertex  1.000000e+002  1.000000e+001  0.000000e+000
      vertex  1.000000e+002  7.000000e+000  5.000000e+000
      vertex  1.000000e+002  1.000000e+001  2.000000e+001
    endloop
  endfacet
  facet normal -1.000000e+000  0.000000e+000  0.000000e+000
    outer loop
      vertex  1.000000e+002  1.000000e+001  2.000000e+001
      vertex  1.000000e+002  7.000000e+000  5.000000e+000
      vertex  1.000000e+002  7.000000e+000  1.500000e+001
    endloop
  endfacet
  facet normal -1.000000e+000  0.000000e+000  0.000000e+000
    outer loop
      vertex  1.000000e+002  1.000000e+001  2.000000e+001
      vertex  1.000000e+002  7.000000e+000  1.500000e+001
      vertex  1.000000e+002  0.000000e+000  2.000000e+001
    endloop
  endfacet
  facet normal -1.000000e+000  0.000000e+000  0.000000e+000
    outer loop
      vertex  1.000000e+002  0.000000e+000  2.000000e+001
      vertex  1.000000e+002  7.000000e+000  1.500000e+001
      vertex  1.000000e+002  3.000000e+000  1.500000e+001
    endloop
  endfacet
  facet normal -1.000000e+000  -0.000000e+000  0.000000e+000
    outer loop
      vertex  1.000000e+002  0.000000e+000  2.000000e+001
      vertex  1.000000e+002  3.000000e+000  1.500000e+001
      vertex  1.000000e+002  0.000000e+000  0.000000e+000
    endloop
  endfacet
  facet normal -1.000000e+000  0.000000e+000  0.000000e+000
    outer loop
      vertex  1.000000e+002  0.000000e+000  0.000000e+000
      vertex  1.000000e+002  3.000000e+000  1.500000e+001
      vertex  1.000000e+002  3.000000e+000  5.000000e+000
    endloop
  endfacet
  facet normal -1.000000e+000  0.000000e+000  -0.000000e+000
    outer loop
      vertex  1.000000e+002  0.000000e+000  0.000000e+000
      vertex  1.000000e+002  3.000000e+000  5.000000e+000
      vertex  1.000000e+002  1.000000e+001  0.000000e+000
    endloop
  endfacet
  facet normal -1.000000e+000  0.000000e+000  0.000000e+000
    outer loop
      vertex  1.000000e+002  1.000000e+001  0.000000e+000
      vertex  1.000000e+002  3.000000e+000  5.000000e+000
      vertex  1.000000e+002  7.000000e+000  5.000000e+000
    endloop
  endfacet
  facet normal  0.000000e+000 -1.000000e+000  0.000000e+000
    outer loop
      vertex  1.100000e+002  0.000000e+000  2.000000e+001
      vertex  1.000000e+002  0.000000e+000  2.000000e+001
      vertex  1.100000e+002  0.000000e+000  0.000000e+000
    endloop
  endfacet
  facet normal  0.000000e+000 -1.000000e+000  0.000000e+000
    outer loop
      vertex  1.100000e+002  0.000000e+000  0.000000e+000
      vertex  1.000000e+002  0.000000e+000  2.000000e+001
      vertex  1.000000e+002  0.000000e+000  0.000000e+000
    endloop
  endfacet
  facet normal  0.000000e+000 -1.000000e+000  0.000000e+000
    outer loop
      vertex  4.000000e+001  0.000000e+000  2.000000e+001
      vertex  3.000000e+001  0.000000e+000  2.000000e+001
      vertex  4.000000e+001  0.000000e+000  0.000000e+000
    endloop
  endfacet
  facet normal  0.000000e+000 -1.000000e+000  0.000000e+000
    outer loop
      vertex  4.000000e+001  0.000000e+000  0.000000e+000
      vertex  3.000000e+001  0.000000e+000  2.000000e+001
      vertex  3.000000e+001  0.000000e+000  0.000000e+000
    endloop
  endfacet
  facet normal  0.000000e+000  0.000000e+000  1.000000e+000
    outer loop
      vertex  4.000000e+001  3.000000e+000  1.500000e+001
      vertex  1.000000e+002  3.000000e+000  1.500000e+001
      vertex  4.000000e+001  7.000000e+000  1.500000e+001
    endloop
  endfacet
  facet normal  -0.000000e+000  0.000000e+000  1.000000e+000
    outer loop
      vertex  4.000000e+001  7.000000e+000  1.500000e+001
      vertex  1.000000e+002  3.000000e+000  1.500000e+001
      vertex  1.000000e+002  7.000000e+000  1.500000e+001
    endloop
  endfacet
  facet normal  0.000000e+000  0.000000e+000 -1.000000e+000
    outer loop
      vertex  1.000000e+002  3.000000e+000  5.000000e+000
      vertex  4.000000e+001  3.000000e+000  5.000000e+000
      vertex  1.000000e+002  7.000000e+000  5.000000e+000
    endloop
  endfacet
  facet normal  -0.000000e+000  0.000000e+000 -1.000000e+000
    outer loop
      vertex  1.000000e+002  7.000000e+000  5.000000e+000
      vertex  4.000000e+001  3.000000e+000  5.000000e+000
      vertex  4.000000e+001  7.000000e+000  5.000000e+000
    endloop
  endfacet
  facet normal  0.000000e+000  1.000000e+000  0.000000e+000
    outer loop
      vertex  3.000000e+001  1.000000e+001  2.000000e+001
      vertex  4.000000e+001  1.000000e+001  2.000000e+001
      vertex  3.000000e+001  1.000000e+001  0.000000e+000
    endloop
  endfacet
  facet normal  0.000000e+000  1.000000e+000  0.000000e+000
    outer loop
      vertex  3.000000e+001  1.000000e+001  0.000000e+000
      vertex  4.000000e+001  1.000000e+001  2.000000e+001
      vertex  4.000000e+001  1.000000e+001  0.000000e+000
    endloop
  endfacet
  facet normal  0.000000e+000  1.000000e+000  0.000000e+000
    outer loop
      vertex  1.000000e+002  1.000000e+001  2.000000e+001
      vertex  1.100000e+002  1.000000e+001  2.000000e+001
      vertex  1.000000e+002  1.000000e+001  0.000000e+000
    endloop
  endfacet
  facet normal  0.000000e+000  1.000000e+000  0.000000e+000
    outer loop
      vertex  1.000000e+002  1.000000e+001  0.000000e+000
      vertex  1.100000e+002  1.000000e+001  2.000000e+001
      vertex  1.100000e+002  1.000000e+001  0.000000e+000
    endloop
  endfacet
  facet normal -5.877956e-001  8.090096e-001  0.000000e+000
    outer loop
      vertex  1.059889e+002  1.956631e+000  0.000000e+000
      vertex  1.075889e+002  3.119118e+000  2.000000e+001
      vertex  1.075889e+002  3.119118e+000  0.000000e+000
    endloop
  endfacet
  facet normal -9.510604e-001  3.090051e-001  0.000000e+000
    outer loop
      vertex  1.075889e+002  3.119118e+000  0.000000e+000
      vertex  1.075889e+002  3.119118e+000  2.000000e+001
      vertex  1.082000e+002  5.000039e+000  2.000000e+001
    endloop
  endfacet
  facet normal -9.510604e-001  3.090051e-001  0.000000e+000
    outer loop
      vertex  1.075889e+002  3.119118e+000  0.000000e+000
      vertex  1.082000e+002  5.000039e+000  2.000000e+001
      vertex  1.082000e+002  5.000039e+000  0.000000e+000
    endloop
  endfacet
  facet normal -5.877956e-001  8.090096e-001  0.000000e+000
    outer loop
      vertex  1.075889e+002  3.119118e+000  2.000000e+001
      vertex  1.059889e+002  1.956631e+000  0.000000e+000
      vertex  1.059889e+002  1.956631e+000  2.000000e+001
    endloop
  endfacet
  facet normal -1.205530e-005  1.000000e+000  0.000000e+000
    outer loop
      vertex  1.059889e+002  1.956631e+000  2.000000e+001
      vertex  1.059889e+002  1.956631e+000  0.000000e+000
      vertex  1.040112e+002  1.956607e+000  0.000000e+000
    endloop
  endfacet
  facet normal -1.205530e-005  1.000000e+000  0.000000e+000
    outer loop
      vertex  1.059889e+002  1.956631e+000  2.000000e+001
      vertex  1.040112e+002  1.956607e+000  0.000000e+000
      vertex  1.040112e+002  1.956607e+000  2.000000e+001
    endloop
  endfacet
  facet normal  5.877756e-001  8.090240e-001  0.000000e+000
    outer loop
      vertex  1.040112e+002  1.956607e+000  2.000000e+001
      vertex  1.040112e+002  1.956607e+000  0.000000e+000
      vertex  1.024112e+002  3.119056e+000  0.000000e+000
    endloop
  endfacet
  facet normal  5.877756e-001  8.090240e-001  -0.000000e+000
    outer loop
      vertex  1.040112e+002  1.956607e+000  2.000000e+001
      vertex  1.024112e+002  3.119056e+000  0.000000e+000
      vertex  1.024112e+002  3.119056e+000  2.000000e+001
    endloop
  endfacet
  facet normal  9.510528e-001  3.090283e-001  0.000000e+000
    outer loop
      vertex  1.024112e+002  3.119056e+000  2.000000e+001
      vertex  1.024112e+002  3.119056e+000  0.000000e+000
      vertex  1.018000e+002  4.999961e+000  0.000000e+000
    endloop
  endfacet
  facet normal  9.510528e-001  3.090283e-001  -0.000000e+000
    outer loop
      vertex  1.024112e+002  3.119056e+000  2.000000e+001
      vertex  1.018000e+002  4.999961e+000  0.000000e+000
      vertex  1.018000e+002  4.999961e+000  2.000000e+001
    endloop
  endfacet
  facet normal  5.877957e-001 -8.090094e-001  0.000000e+000
    outer loop
      vertex  1.040111e+002  8.043369e+000  0.000000e+000
      vertex  1.024111e+002  6.880882e+000  2.000000e+001
      vertex  1.024111e+002  6.880882e+000  0.000000e+000
    endloop
  endfacet
  facet normal  9.510604e-001 -3.090051e-001  0.000000e+000
    outer loop
      vertex  1.024111e+002  6.880882e+000  0.000000e+000
      vertex  1.024111e+002  6.880882e+000  2.000000e+001
      vertex  1.018000e+002  4.999961e+000  2.000000e+001
    endloop
  endfacet
  facet normal  9.510604e-001 -3.090051e-001  0.000000e+000
    outer loop
      vertex  1.024111e+002  6.880882e+000  0.000000e+000
      vertex  1.018000e+002  4.999961e+000  2.000000e+001
      vertex  1.018000e+002  4.999961e+000  0.000000e+000
    endloop
  endfacet
  facet normal  5.877957e-001 -8.090094e-001  0.000000e+000
    outer loop
      vertex  1.024111e+002  6.880882e+000  2.000000e+001
      vertex  1.040111e+002  8.043369e+000  0.000000e+000
      vertex  1.040111e+002  8.043369e+000  2.000000e+001
    endloop
  endfacet
  facet normal  1.205530e-005 -1.000000e+000  0.000000e+000
    outer loop
      vertex  1.040111e+002  8.043369e+000  2.000000e+001
      vertex  1.040111e+002  8.043369e+000  0.000000e+000
      vertex  1.059888e+002  8.043393e+000  0.000000e+000
    endloop
  endfacet
  facet normal  1.205530e-005 -1.000000e+000  0.000000e+000
    outer loop
      vertex  1.040111e+002  8.043369e+000  2.000000e+001
      vertex  1.059888e+002  8.043393e+000  0.000000e+000
      vertex  1.059888e+002  8.043393e+000  2.000000e+001
    endloop
  endfacet
  facet normal -5.877758e-001 -8.090239e-001  -0.000000e+000
    outer loop
      vertex  1.059888e+002  8.043393e+000  2.000000e+001
      vertex  1.059888e+002  8.043393e+000  0.000000e+000
      vertex  1.075888e+002  6.880944e+000  0.000000e+000
    endloop
  endfacet
  facet normal -5.877758e-001 -8.090239e-001  0.000000e+000
    outer loop
      vertex  1.059888e+002  8.043393e+000  2.000000e+001
      vertex  1.075888e+002  6.880944e+000  0.000000e+000
      vertex  1.075888e+002  6.880944e+000  2.000000e+001
    endloop
  endfacet
  facet normal -9.510528e-001 -3.090283e-001  -0.000000e+000
    outer loop
      vertex  1.075888e+002  6.880944e+000  2.000000e+001
      vertex  1.075888e+002  6.880944e+000  0.000000e+000
      vertex  1.082000e+002  5.000039e+000  0.000000e+000
    endloop
  endfacet
  facet normal -9.510528e-001 -3.090283e-001  0.000000e+000
    outer loop
      vertex  1.075888e+002  6.880944e+000  2.000000e+001
      vertex  1.082000e+002  5.000039e+000  0.000000e+000
      vertex  1.082000e+002  5.000039e+000  2.000000e+001
    endloop
  endfacet
  facet normal -5.877848e-001  8.090174e-001  0.000000e+000
    outer loop
      vertex  3.598885e+001  1.956619e+000  0.000000e+000
      vertex  3.758886e+001  3.119087e+000  2.000000e+001
      vertex  3.758886e+001  3.119087e+000  0.000000e+000
    endloop
  endfacet
  facet normal -9.510566e-001  3.090167e-001  0.000000e+000
    outer loop
      vertex  3.758886e+001  3.119087e+000  0.000000e+000
      vertex  3.758886e+001  3.119087e+000  2.000000e+001
      vertex  3.820000e+001  5.000000e+000  2.000000e+001
    endloop
  endfacet
  facet normal -9.510566e-001  3.090167e-001  0.000000e+000
    outer loop
      vertex  3.758886e+001  3.119087e+000  0.000000e+000
      vertex  3.820000e+001  5.000000e+000  2.000000e+001
      vertex  3.820000e+001  5.000000e+000  0.000000e+000
    endloop
  endfacet
  facet normal -5.877848e-001  8.090174e-001  0.000000e+000
    outer loop
      vertex  3.758886e+001  3.119087e+000  2.000000e+001
      vertex  3.598885e+001  1.956619e+000  0.000000e+000
      vertex  3.598885e+001  1.956619e+000  2.000000e+001
    endloop
  endfacet
  facet normal  0.000000e+000  1.000000e+000  0.000000e+000
    outer loop
      vertex  3.598885e+001  1.956619e+000  2.000000e+001
      vertex  3.598885e+001  1.956619e+000  0.000000e+000
      vertex  3.401115e+001  1.956619e+000  0.000000e+000
    endloop
  endfacet
  facet normal  0.000000e+000  1.000000e+000  0.000000e+000
    outer loop
      vertex  3.598885e+001  1.956619e+000  2.000000e+001
      vertex  3.401115e+001  1.956619e+000  0.000000e+000
      vertex  3.401115e+001  1.956619e+000  2.000000e+001
    endloop
  endfacet
  facet normal  5.877848e-001  8.090174e-001  0.000000e+000
    outer loop
      vertex  3.401115e+001  1.956619e+000  2.000000e+001
      vertex  3.401115e+001  1.956619e+000  0.000000e+000
      vertex  3.241114e+001  3.119087e+000  0.000000e+000
    endloop
  endfacet
  facet normal  5.877848e-001  8.090174e-001  -0.000000e+000
    outer loop
      vertex  3.401115e+001  1.956619e+000  2.000000e+001
      vertex  3.241114e+001  3.119087e+000  0.000000e+000
      vertex  3.241114e+001  3.119087e+000  2.000000e+001
    endloop
  endfacet
  facet normal  9.510566e-001  3.090167e-001  0.000000e+000
    outer loop
      vertex  3.241114e+001  3.119087e+000  2.000000e+001
      vertex  3.241114e+001  3.119087e+000  0.000000e+000
      vertex  3.180000e+001  5.000000e+000  0.000000e+000
    endloop
  endfacet
  facet normal  9.510566e-001  3.090167e-001  -0.000000e+000
    outer loop
      vertex  3.241114e+001  3.119087e+000  2.000000e+001
      vertex  3.180000e+001  5.000000e+000  0.000000e+000
      vertex  3.180000e+001  5.000000e+000  2.000000e+001
    endloop
  endfacet
  facet normal  5.877847e-001 -8.090174e-001  0.000000e+000
    outer loop
      vertex  3.401115e+001  8.043381e+000  0.000000e+000
      vertex  3.241114e+001  6.880913e+000  2.000000e+001
      vertex  3.241114e+001  6.880913e+000  0.000000e+000
    endloop
  endfacet
  facet normal  9.510566e-001 -3.090167e-001  0.000000e+000
    outer loop
      vertex  3.241114e+001  6.880913e+000  0.000000e+000
      vertex  3.241114e+001  6.880913e+000  2.000000e+001
      vertex  3.180000e+001  5.000000e+000  2.000000e+001
    endloop
  endfacet
  facet normal  9.510566e-001 -3.090167e-001  0.000000e+000
    outer loop
      vertex  3.241114e+001  6.880913e+000  0.000000e+000
      vertex  3.180000e+001  5.000000e+000  2.000000e+001
      vertex  3.180000e+001  5.000000e+000  0.000000e+000
    endloop
  endfacet
  facet normal  5.877847e-001 -8.090174e-001  0.000000e+000
    outer loop
      vertex  3.241114e+001  6.880913e+000  2.000000e+001
      vertex  3.401115e+001  8.043381e+000  0.000000e+000
      vertex  3.401115e+001  8.043381e+000  2.000000e+001
    endloop
  endfacet
  facet normal  0.000000e+000 -1.000000e+000  0.000000e+000
    outer loop
      vertex  3.401115e+001  8.043381e+000  2.000000e+001
      vertex  3.401115e+001  8.043381e+000  0.000000e+000
      vertex  3.598885e+001  8.043381e+000  0.000000e+000
    endloop
  endfacet
  facet normal  0.000000e+000 -1.000000e+000  0.000000e+000
    outer loop
      vertex  3.401115e+001  8.043381e+000  2.000000e+001
      vertex  3.598885e+001  8.043381e+000  0.000000e+000
      vertex  3.598885e+001  8.043381e+000  2.000000e+001
    endloop
  endfacet
  facet normal -5.877847e-001 -8.090174e-001  -0.000000e+000
    outer loop
      vertex  3.598885e+001  8.043381e+000  2.000000e+001
      vertex  3.598885e+001  8.043381e+000  0.000000e+000
      vertex  3.758886e+001  6.880913e+000  0.000000e+000
    endloop
  endfacet
  facet normal -5.877847e-001 -8.090174e-001  0.000000e+000
    outer loop
      vertex  3.598885e+001  8.043381e+000  2.000000e+001
      vertex  3.758886e+001  6.880913e+000  0.000000e+000
      vertex  3.758886e+001  6.880913e+000  2.000000e+001
    endloop
  endfacet
  facet normal -9.510566e-001 -3.090167e-001  -0.000000e+000
    outer loop
      vertex  3.758886e+001  6.880913e+000  2.000000e+001
      vertex  3.758886e+001  6.880913e+000  0.000000e+000
      vertex  3.820000e+001  5.000000e+000  0.000000e+000
    endloop
  endfacet
  facet normal -9.510566e-001 -3.090167e-001  0.000000e+000
    outer loop
      vertex  3.758886e+001  6.880913e+000  2.000000e+001
      vertex  3.820000e+001  5.000000e+000  0.000000e+000
      vertex  3.820000e+001  5.000000e+000  2.000000e+001
    endloop
  endfacet
  facet normal  1.000000e+000  0.000000e+000  0.000000e+000
    outer loop
      vertex  1.100000e+002  0.000000e+000  0.000000e+000
      vertex  1.100000e+002  1.000000e+001  0.000000e+000
      vertex  1.100000e+002  0.000000e+000  2.000000e+001
    endloop
  endfacet
  facet normal  1.000000e+000  -0.000000e+000  0.000000e+000
    outer loop
      vertex  1.100000e+002  0.000000e+000  2.000000e+001
      vertex  1.100000e+002  1.000000e+001  0.000000e+000
      vertex  1.100000e+002  1.000000e+001  2.000000e+001
    endloop
  endfacet
  facet normal -1.000000e+000  0.000000e+000  0.000000e+000
    outer loop
      vertex  3.000000e+001  1.000000e+001  0.000000e+000
      vertex  3.000000e+001  0.000000e+000  0.000000e+000
      vertex  3.000000e+001  1.000000e+001  2.000000e+001
    endloop
  endfacet
  facet normal -1.000000e+000  -0.000000e+000  0.000000e+000
    outer loop
      vertex  3.000000e+001  1.000000e+001  2.000000e+001
      vertex  3.000000e+001  0.000000e+000  0.000000e+000
      vertex  3.000000e+001  0.000000e+000  2.000000e+001
    endloop
  endfacet
endsolid CATIA STL
