solid CATIA STL
  facet normal  1.000000e+000  0.000000e+000  0.000000e+000
    outer loop
      vertex  1.100000e+002  5.000000e+000  8.000000e+001
      vertex  1.100000e+002  5.000000e+000  2.000000e+001
      vertex  1.100000e+002  2.500000e+001  8.000000e+001
    endloop
  endfacet
  facet normal  1.000000e+000  0.000000e+000  0.000000e+000
    outer loop
      vertex  1.100000e+002  2.500000e+001  8.000000e+001
      vertex  1.100000e+002  5.000000e+000  2.000000e+001
      vertex  1.100000e+002  2.500000e+001  2.000000e+001
    endloop
  endfacet
  facet normal  0.000000e+000 -1.000000e+000  0.000000e+000
    outer loop
      vertex  1.100000e+002  5.000000e+000  8.000000e+001
      vertex  1.070000e+002  5.000000e+000  8.000000e+001
      vertex  1.100000e+002  5.000000e+000  2.000000e+001
    endloop
  endfacet
  facet normal  0.000000e+000 -1.000000e+000  0.000000e+000
    outer loop
      vertex  1.100000e+002  5.000000e+000  2.000000e+001
      vertex  1.070000e+002  5.000000e+000  8.000000e+001
      vertex  1.070000e+002  5.000000e+000  4.500000e+001
    endloop
  endfacet
  facet normal  0.000000e+000 -1.000000e+000  -0.000000e+000
    outer loop
      vertex  1.100000e+002  5.000000e+000  2.000000e+001
      vertex  1.070000e+002  5.000000e+000  4.500000e+001
      vertex  9.000000e+001  5.000000e+000  2.000000e+001
    endloop
  endfacet
  facet normal  0.000000e+000 -1.000000e+000  0.000000e+000
    outer loop
      vertex  9.000000e+001  5.000000e+000  2.000000e+001
      vertex  1.070000e+002  5.000000e+000  4.500000e+001
      vertex  9.300000e+001  5.000000e+000  4.500000e+001
    endloop
  endfacet
  facet normal  -0.000000e+000 -1.000000e+000  0.000000e+000
    outer loop
      vertex  9.000000e+001  5.000000e+000  2.000000e+001
      vertex  9.300000e+001  5.000000e+000  4.500000e+001
      vertex  9.000000e+001  5.000000e+000  8.000000e+001
    endloop
  endfacet
  facet normal  0.000000e+000 -1.000000e+000  0.000000e+000
    outer loop
      vertex  9.000000e+001  5.000000e+000  8.000000e+001
      vertex  9.300000e+001  5.000000e+000  4.500000e+001
      vertex  9.300000e+001  5.000000e+000  8.000000e+001
    endloop
  endfacet
  facet normal  0.000000e+000  0.000000e+000  1.000000e+000
    outer loop
      vertex  1.100000e+002  2.500000e+001  1.000000e+002
      vertex  1.200000e+002  2.500000e+001  1.000000e+002
      vertex  1.100000e+002  3.000000e+001  1.000000e+002
    endloop
  endfacet
  facet normal  -0.000000e+000  0.000000e+000  1.000000e+000
    outer loop
      vertex  1.100000e+002  3.000000e+001  1.000000e+002
      vertex  1.200000e+002  2.500000e+001  1.000000e+002
      vertex  1.200000e+002  3.000000e+001  1.000000e+002
    endloop
  endfacet
  facet normal -1.000000e+000  0.000000e+000  0.000000e+000
    outer loop
      vertex  9.000000e+001  2.500000e+001  8.000000e+001
      vertex  9.000000e+001  2.500000e+001  2.000000e+001
      vertex  9.000000e+001  5.000000e+000  8.000000e+001
    endloop
  endfacet
  facet normal -1.000000e+000  0.000000e+000  0.000000e+000
    outer loop
      vertex  9.000000e+001  5.000000e+000  8.000000e+001
      vertex  9.000000e+001  2.500000e+001  2.000000e+001
      vertex  9.000000e+001  5.000000e+000  2.000000e+001
    endloop
  endfacet
  facet normal  0.000000e+000  0.000000e+000  1.000000e+000
    outer loop
      vertex  0.000000e+000  2.500000e+001  1.000000e+002
      vertex  9.000000e+001  2.500000e+001  1.000000e+002
      vertex  0.000000e+000  3.000000e+001  1.000000e+002
    endloop
  endfacet
  facet normal  -0.000000e+000  0.000000e+000  1.000000e+000
    outer loop
      vertex  0.000000e+000  3.000000e+001  1.000000e+002
      vertex  9.000000e+001  2.500000e+001  1.000000e+002
      vertex  9.000000e+001  3.000000e+001  1.000000e+002
    endloop
  endfacet
  facet normal -1.000000e+000  0.000000e+000  0.000000e+000
    outer loop
      vertex  1.070000e+002  3.000000e+001  4.200000e+001
      vertex  1.070000e+002  1.600000e+001  4.200000e+001
      vertex  1.070000e+002  3.000000e+001  8.000000e+001
    endloop
  endfacet
  facet normal -1.000000e+000  0.000000e+000  0.000000e+000
    outer loop
      vertex  1.070000e+002  3.000000e+001  8.000000e+001
      vertex  1.070000e+002  1.600000e+001  4.200000e+001
      vertex  1.070000e+002  1.600000e+001  4.500000e+001
    endloop
  endfacet
  facet normal -1.000000e+000  0.000000e+000  0.000000e+000
    outer loop
      vertex  1.070000e+002  3.000000e+001  8.000000e+001
      vertex  1.070000e+002  1.600000e+001  4.500000e+001
      vertex  1.070000e+002  5.000000e+000  8.000000e+001
    endloop
  endfacet
  facet normal -1.000000e+000  0.000000e+000  0.000000e+000
    outer loop
      vertex  1.070000e+002  5.000000e+000  8.000000e+001
      vertex  1.070000e+002  1.600000e+001  4.500000e+001
      vertex  1.070000e+002  5.000000e+000  4.500000e+001
    endloop
  endfacet
  facet normal  1.000000e+000  -0.000000e+000  0.000000e+000
    outer loop
      vertex  9.300000e+001  3.000000e+001  8.000000e+001
      vertex  9.300000e+001  5.000000e+000  8.000000e+001
      vertex  9.300000e+001  5.000000e+000  4.500000e+001
    endloop
  endfacet
  facet normal  1.000000e+000  0.000000e+000  0.000000e+000
    outer loop
      vertex  9.300000e+001  3.000000e+001  8.000000e+001
      vertex  9.300000e+001  5.000000e+000  4.500000e+001
      vertex  9.300000e+001  1.600000e+001  4.500000e+001
    endloop
  endfacet
  facet normal  1.000000e+000  -0.000000e+000  0.000000e+000
    outer loop
      vertex  9.300000e+001  3.000000e+001  8.000000e+001
      vertex  9.300000e+001  1.600000e+001  4.500000e+001
      vertex  9.300000e+001  1.600000e+001  4.200000e+001
    endloop
  endfacet
  facet normal  1.000000e+000  0.000000e+000  0.000000e+000
    outer loop
      vertex  9.300000e+001  3.000000e+001  8.000000e+001
      vertex  9.300000e+001  1.600000e+001  4.200000e+001
      vertex  9.300000e+001  3.000000e+001  4.200000e+001
    endloop
  endfacet
  facet normal  -0.000000e+000  1.000000e+000  0.000000e+000
    outer loop
      vertex  1.100000e+002  3.000000e+001  8.000000e+001
      vertex  1.100000e+002  3.000000e+001  1.000000e+002
      vertex  1.200000e+002  3.000000e+001  1.000000e+002
    endloop
  endfacet
  facet normal  0.000000e+000  9.999999e-001  0.000000e+000
    outer loop
      vertex  1.100000e+002  3.000000e+001  8.000000e+001
      vertex  1.200000e+002  3.000000e+001  1.000000e+002
      vertex  1.200000e+002  3.000000e+001  1.500000e+001
    endloop
  endfacet
  facet normal  0.000000e+000  1.000000e+000  0.000000e+000
    outer loop
      vertex  1.100000e+002  3.000000e+001  8.000000e+001
      vertex  1.200000e+002  3.000000e+001  1.500000e+001
      vertex  1.070000e+002  3.000000e+001  4.200000e+001
    endloop
  endfacet
  facet normal  0.000000e+000  1.000000e+000  0.000000e+000
    outer loop
      vertex  1.100000e+002  3.000000e+001  8.000000e+001
      vertex  1.070000e+002  3.000000e+001  4.200000e+001
      vertex  1.070000e+002  3.000000e+001  8.000000e+001
    endloop
  endfacet
  facet normal  0.000000e+000  9.999999e-001  0.000000e+000
    outer loop
      vertex  2.000000e+001  3.000000e+001  1.500000e+001
      vertex -1.421085e-014  3.000000e+001  1.500000e+001
      vertex  0.000000e+000  3.000000e+001  1.000000e+002
    endloop
  endfacet
  facet normal  -0.000000e+000  1.000000e+000  0.000000e+000
    outer loop
      vertex  2.000000e+001  3.000000e+001  1.500000e+001
      vertex  0.000000e+000  3.000000e+001  1.000000e+002
      vertex  9.000000e+001  3.000000e+001  1.000000e+002
    endloop
  endfacet
  facet normal  0.000000e+000  1.000000e+000  0.000000e+000
    outer loop
      vertex  2.000000e+001  3.000000e+001  1.500000e+001
      vertex  9.000000e+001  3.000000e+001  1.000000e+002
      vertex  9.000000e+001  3.000000e+001  8.000000e+001
    endloop
  endfacet
  facet normal  0.000000e+000  1.000000e+000  0.000000e+000
    outer loop
      vertex  2.000000e+001  3.000000e+001  1.500000e+001
      vertex  9.000000e+001  3.000000e+001  8.000000e+001
      vertex  9.000000e+001  3.000000e+001  1.500000e+001
    endloop
  endfacet
  facet normal  0.000000e+000  1.000000e+000  0.000000e+000
    outer loop
      vertex  2.000000e+001  3.000000e+001  1.500000e+001
      vertex  9.000000e+001  3.000000e+001  1.500000e+001
      vertex  9.000000e+001  3.000000e+001  1.200000e+001
    endloop
  endfacet
  facet normal  0.000000e+000  1.000000e+000  0.000000e+000
    outer loop
      vertex  2.000000e+001  3.000000e+001  1.500000e+001
      vertex  9.000000e+001  3.000000e+001  1.200000e+001
      vertex  2.000000e+001  3.000000e+001  1.200000e+001
    endloop
  endfacet
  facet normal  0.000000e+000  1.000000e+000  0.000000e+000
    outer loop
      vertex  1.200000e+002  3.000000e+001  1.500000e+001
      vertex  9.000000e+001  3.000000e+001  1.500000e+001
      vertex  1.070000e+002  3.000000e+001  4.200000e+001
    endloop
  endfacet
  facet normal  0.000000e+000  9.999999e-001  0.000000e+000
    outer loop
      vertex  1.070000e+002  3.000000e+001  4.200000e+001
      vertex  9.000000e+001  3.000000e+001  1.500000e+001
      vertex  9.300000e+001  3.000000e+001  4.200000e+001
    endloop
  endfacet
  facet normal  0.000000e+000  1.000000e+000  0.000000e+000
    outer loop
      vertex  9.000000e+001  3.000000e+001  1.500000e+001
      vertex  9.000000e+001  3.000000e+001  8.000000e+001
      vertex  9.300000e+001  3.000000e+001  4.200000e+001
    endloop
  endfacet
  facet normal  0.000000e+000  1.000000e+000  -0.000000e+000
    outer loop
      vertex  9.300000e+001  3.000000e+001  4.200000e+001
      vertex  9.000000e+001  3.000000e+001  8.000000e+001
      vertex  9.300000e+001  3.000000e+001  8.000000e+001
    endloop
  endfacet
  facet normal  1.000000e+000  -0.000000e+000  0.000000e+000
    outer loop
      vertex  9.000000e+001  3.000000e+001  1.000000e+002
      vertex  9.000000e+001  2.500000e+001  1.000000e+002
      vertex  9.000000e+001  3.000000e+001  8.000000e+001
    endloop
  endfacet
  facet normal  1.000000e+000  0.000000e+000  0.000000e+000
    outer loop
      vertex  9.000000e+001  3.000000e+001  8.000000e+001
      vertex  9.000000e+001  2.500000e+001  1.000000e+002
      vertex  9.000000e+001  2.500000e+001  8.000000e+001
    endloop
  endfacet
  facet normal  0.000000e+000  0.000000e+000  1.000000e+000
    outer loop
      vertex  9.000000e+001  5.000000e+000  8.000000e+001
      vertex  9.300000e+001  5.000000e+000  8.000000e+001
      vertex  9.000000e+001  2.500000e+001  8.000000e+001
    endloop
  endfacet
  facet normal  -0.000000e+000  0.000000e+000  1.000000e+000
    outer loop
      vertex  9.000000e+001  2.500000e+001  8.000000e+001
      vertex  9.300000e+001  5.000000e+000  8.000000e+001
      vertex  9.300000e+001  3.000000e+001  8.000000e+001
    endloop
  endfacet
  facet normal  0.000000e+000  0.000000e+000  1.000000e+000
    outer loop
      vertex  9.000000e+001  2.500000e+001  8.000000e+001
      vertex  9.300000e+001  3.000000e+001  8.000000e+001
      vertex  9.000000e+001  3.000000e+001  8.000000e+001
    endloop
  endfacet
  facet normal  0.000000e+000  0.000000e+000  1.000000e+000
    outer loop
      vertex  1.100000e+002  5.000000e+000  8.000000e+001
      vertex  1.100000e+002  2.500000e+001  8.000000e+001
      vertex  1.070000e+002  5.000000e+000  8.000000e+001
    endloop
  endfacet
  facet normal  0.000000e+000  0.000000e+000  1.000000e+000
    outer loop
      vertex  1.070000e+002  5.000000e+000  8.000000e+001
      vertex  1.100000e+002  2.500000e+001  8.000000e+001
      vertex  1.100000e+002  3.000000e+001  8.000000e+001
    endloop
  endfacet
  facet normal  0.000000e+000  0.000000e+000  1.000000e+000
    outer loop
      vertex  1.070000e+002  5.000000e+000  8.000000e+001
      vertex  1.100000e+002  3.000000e+001  8.000000e+001
      vertex  1.070000e+002  3.000000e+001  8.000000e+001
    endloop
  endfacet
  facet normal -1.000000e+000  -0.000000e+000  0.000000e+000
    outer loop
      vertex  1.100000e+002  2.500000e+001  1.000000e+002
      vertex  1.100000e+002  3.000000e+001  1.000000e+002
      vertex  1.100000e+002  2.500000e+001  8.000000e+001
    endloop
  endfacet
  facet normal -1.000000e+000  0.000000e+000  0.000000e+000
    outer loop
      vertex  1.100000e+002  2.500000e+001  8.000000e+001
      vertex  1.100000e+002  3.000000e+001  1.000000e+002
      vertex  1.100000e+002  3.000000e+001  8.000000e+001
    endloop
  endfacet
  facet normal  0.000000e+000 -1.000000e+000  -0.000000e+000
    outer loop
      vertex  9.000000e+001  2.500000e+001  2.000000e+001
      vertex  9.000000e+001  2.500000e+001  8.000000e+001
      vertex  0.000000e+000  2.500000e+001  2.000000e+001
    endloop
  endfacet
  facet normal  0.000000e+000 -1.000000e+000  0.000000e+000
    outer loop
      vertex  0.000000e+000  2.500000e+001  2.000000e+001
      vertex  9.000000e+001  2.500000e+001  8.000000e+001
      vertex  9.000000e+001  2.500000e+001  1.000000e+002
    endloop
  endfacet
  facet normal  -0.000000e+000 -1.000000e+000  0.000000e+000
    outer loop
      vertex  0.000000e+000  2.500000e+001  2.000000e+001
      vertex  9.000000e+001  2.500000e+001  1.000000e+002
      vertex  0.000000e+000  2.500000e+001  1.000000e+002
    endloop
  endfacet
  facet normal  0.000000e+000 -1.000000e+000  0.000000e+000
    outer loop
      vertex  1.100000e+002  2.500000e+001  1.000000e+002
      vertex  1.100000e+002  2.500000e+001  8.000000e+001
      vertex  1.200000e+002  2.500000e+001  1.000000e+002
    endloop
  endfacet
  facet normal  0.000000e+000 -1.000000e+000  0.000000e+000
    outer loop
      vertex  1.200000e+002  2.500000e+001  1.000000e+002
      vertex  1.100000e+002  2.500000e+001  8.000000e+001
      vertex  1.100000e+002  2.500000e+001  2.000000e+001
    endloop
  endfacet
  facet normal  0.000000e+000 -1.000000e+000  0.000000e+000
    outer loop
      vertex  1.200000e+002  2.500000e+001  1.000000e+002
      vertex  1.100000e+002  2.500000e+001  2.000000e+001
      vertex  1.200000e+002  2.500000e+001  2.000000e+001
    endloop
  endfacet
  facet normal  0.000000e+000  0.000000e+000  1.000000e+000
    outer loop
      vertex  0.000000e+000  4.500000e+001  2.000000e+001
      vertex  1.200000e+002  4.500000e+001  2.000000e+001
      vertex  0.000000e+000  6.000000e+001  2.000000e+001
    endloop
  endfacet
  facet normal  -0.000000e+000  0.000000e+000  1.000000e+000
    outer loop
      vertex  0.000000e+000  6.000000e+001  2.000000e+001
      vertex  1.200000e+002  4.500000e+001  2.000000e+001
      vertex  1.200000e+002  6.000000e+001  2.000000e+001
    endloop
  endfacet
  facet normal  0.000000e+000  0.000000e+000  1.000000e+000
    outer loop
      vertex  1.200000e+002  0.000000e+000  2.000000e+001
      vertex  1.200000e+002  2.500000e+001  2.000000e+001
      vertex  1.100000e+002  2.500000e+001  2.000000e+001
    endloop
  endfacet
  facet normal  0.000000e+000  0.000000e+000  1.000000e+000
    outer loop
      vertex  1.200000e+002  0.000000e+000  2.000000e+001
      vertex  1.100000e+002  2.500000e+001  2.000000e+001
      vertex  1.100000e+002  5.000000e+000  2.000000e+001
    endloop
  endfacet
  facet normal  0.000000e+000  0.000000e+000  1.000000e+000
    outer loop
      vertex  1.200000e+002  0.000000e+000  2.000000e+001
      vertex  1.100000e+002  5.000000e+000  2.000000e+001
      vertex  9.000000e+001  5.000000e+000  2.000000e+001
    endloop
  endfacet
  facet normal  0.000000e+000  0.000000e+000  1.000000e+000
    outer loop
      vertex  1.200000e+002  0.000000e+000  2.000000e+001
      vertex  9.000000e+001  5.000000e+000  2.000000e+001
      vertex  0.000000e+000  0.000000e+000  2.000000e+001
    endloop
  endfacet
  facet normal  0.000000e+000  0.000000e+000  1.000000e+000
    outer loop
      vertex  0.000000e+000  0.000000e+000  2.000000e+001
      vertex  9.000000e+001  5.000000e+000  2.000000e+001
      vertex  0.000000e+000  2.500000e+001  2.000000e+001
    endloop
  endfacet
  facet normal  -0.000000e+000  0.000000e+000  1.000000e+000
    outer loop
      vertex  0.000000e+000  2.500000e+001  2.000000e+001
      vertex  9.000000e+001  5.000000e+000  2.000000e+001
      vertex  9.000000e+001  2.500000e+001  2.000000e+001
    endloop
  endfacet
  facet normal  -0.000000e+000  0.000000e+000 -1.000000e+000
    outer loop
      vertex  0.000000e+000  6.000000e+001 -1.000000e+001
      vertex  7.000000e+001  6.000000e+001 -1.000000e+001
      vertex  0.000000e+000  0.000000e+000 -1.000000e+001
    endloop
  endfacet
  facet normal  0.000000e+000  0.000000e+000 -1.000000e+000
    outer loop
      vertex  0.000000e+000  0.000000e+000 -1.000000e+001
      vertex  7.000000e+001  6.000000e+001 -1.000000e+001
      vertex  7.000000e+001  0.000000e+000 -1.000000e+001
    endloop
  endfacet
  facet normal -9.999999e-001  0.000000e+000  0.000000e+000
    outer loop
      vertex  0.000000e+000  4.000000e+001  1.500000e+001
      vertex  0.000000e+000  4.000000e+001  1.000000e+002
      vertex  0.000000e+000  4.500000e+001  1.000000e+002
    endloop
  endfacet
  facet normal -1.000000e+000  0.000000e+000  -0.000000e+000
    outer loop
      vertex  0.000000e+000  4.000000e+001  1.500000e+001
      vertex  0.000000e+000  4.500000e+001  1.000000e+002
      vertex  0.000000e+000  4.500000e+001  2.000000e+001
    endloop
  endfacet
  facet normal -1.000000e+000  0.000000e+000  -0.000000e+000
    outer loop
      vertex  0.000000e+000  4.000000e+001  1.500000e+001
      vertex  0.000000e+000  4.500000e+001  2.000000e+001
      vertex  0.000000e+000  6.000000e+001  2.000000e+001
    endloop
  endfacet
  facet normal -1.000000e+000  0.000000e+000  -0.000000e+000
    outer loop
      vertex  0.000000e+000  4.000000e+001  1.500000e+001
      vertex  0.000000e+000  6.000000e+001  2.000000e+001
      vertex  0.000000e+000  6.000000e+001 -1.000000e+001
    endloop
  endfacet
  facet normal -1.000000e+000  1.421085e-015  1.136868e-015
    outer loop
      vertex  0.000000e+000  4.000000e+001  1.500000e+001
      vertex  0.000000e+000  6.000000e+001 -1.000000e+001
      vertex -1.421085e-014  3.000000e+001  1.500000e+001
    endloop
  endfacet
  facet normal -1.000000e+000  -0.000000e+000 -5.684342e-016
    outer loop
      vertex -1.421085e-014  3.000000e+001  1.500000e+001
      vertex  0.000000e+000  6.000000e+001 -1.000000e+001
      vertex  0.000000e+000  0.000000e+000 -1.000000e+001
    endloop
  endfacet
  facet normal -1.000000e+000 -4.736952e-016  0.000000e+000
    outer loop
      vertex -1.421085e-014  3.000000e+001  1.500000e+001
      vertex  0.000000e+000  0.000000e+000 -1.000000e+001
      vertex  0.000000e+000  0.000000e+000  2.000000e+001
    endloop
  endfacet
  facet normal -1.000000e+000  0.000000e+000  2.842171e-015
    outer loop
      vertex -1.421085e-014  3.000000e+001  1.500000e+001
      vertex  0.000000e+000  0.000000e+000  2.000000e+001
      vertex  0.000000e+000  2.500000e+001  2.000000e+001
    endloop
  endfacet
  facet normal -1.000000e+000 -2.842171e-015  0.000000e+000
    outer loop
      vertex -1.421085e-014  3.000000e+001  1.500000e+001
      vertex  0.000000e+000  2.500000e+001  2.000000e+001
      vertex  0.000000e+000  2.500000e+001  1.000000e+002
    endloop
  endfacet
  facet normal -9.999999e-001  0.000000e+000  1.671865e-016
    outer loop
      vertex -1.421085e-014  3.000000e+001  1.500000e+001
      vertex  0.000000e+000  2.500000e+001  1.000000e+002
      vertex  0.000000e+000  3.000000e+001  1.000000e+002
    endloop
  endfacet
  facet normal  0.000000e+000 -1.000000e+000  0.000000e+000
    outer loop
      vertex  0.000000e+000  0.000000e+000  2.000000e+001
      vertex  0.000000e+000  0.000000e+000 -1.000000e+001
      vertex  7.000000e+001  0.000000e+000 -1.000000e+001
    endloop
  endfacet
  facet normal  0.000000e+000 -1.000000e+000  0.000000e+000
    outer loop
      vertex  0.000000e+000  0.000000e+000  2.000000e+001
      vertex  7.000000e+001  0.000000e+000 -1.000000e+001
      vertex  7.000000e+001  0.000000e+000  0.000000e+000
    endloop
  endfacet
  facet normal  0.000000e+000 -1.000000e+000  0.000000e+000
    outer loop
      vertex  0.000000e+000  0.000000e+000  2.000000e+001
      vertex  7.000000e+001  0.000000e+000  0.000000e+000
      vertex  8.000000e+001  0.000000e+000  0.000000e+000
    endloop
  endfacet
  facet normal  0.000000e+000 -1.000000e+000  0.000000e+000
    outer loop
      vertex  0.000000e+000  0.000000e+000  2.000000e+001
      vertex  8.000000e+001  0.000000e+000  0.000000e+000
      vertex  8.000000e+001  0.000000e+000  1.000000e+001
    endloop
  endfacet
  facet normal  0.000000e+000 -1.000000e+000  0.000000e+000
    outer loop
      vertex  0.000000e+000  0.000000e+000  2.000000e+001
      vertex  8.000000e+001  0.000000e+000  1.000000e+001
      vertex  1.200000e+002  0.000000e+000  1.000000e+001
    endloop
  endfacet
  facet normal  0.000000e+000 -1.000000e+000  0.000000e+000
    outer loop
      vertex  0.000000e+000  0.000000e+000  2.000000e+001
      vertex  1.200000e+002  0.000000e+000  1.000000e+001
      vertex  1.200000e+002  0.000000e+000  2.000000e+001
    endloop
  endfacet
  facet normal  0.000000e+000  1.000000e+000  0.000000e+000
    outer loop
      vertex  7.000000e+001  6.000000e+001  0.000000e+000
      vertex  8.000000e+001  6.000000e+001  1.000000e+001
      vertex  8.000000e+001  6.000000e+001  0.000000e+000
    endloop
  endfacet
  facet normal  0.000000e+000  1.000000e+000  -0.000000e+000
    outer loop
      vertex  1.200000e+002  6.000000e+001  2.000000e+001
      vertex  1.200000e+002  6.000000e+001  1.000000e+001
      vertex  0.000000e+000  6.000000e+001  2.000000e+001
    endloop
  endfacet
  facet normal  0.000000e+000  1.000000e+000  0.000000e+000
    outer loop
      vertex  0.000000e+000  6.000000e+001  2.000000e+001
      vertex  1.200000e+002  6.000000e+001  1.000000e+001
      vertex  8.000000e+001  6.000000e+001  1.000000e+001
    endloop
  endfacet
  facet normal  0.000000e+000  1.000000e+000  0.000000e+000
    outer loop
      vertex  0.000000e+000  6.000000e+001  2.000000e+001
      vertex  8.000000e+001  6.000000e+001  1.000000e+001
      vertex  0.000000e+000  6.000000e+001 -1.000000e+001
    endloop
  endfacet
  facet normal  0.000000e+000  1.000000e+000  0.000000e+000
    outer loop
      vertex  0.000000e+000  6.000000e+001 -1.000000e+001
      vertex  8.000000e+001  6.000000e+001  1.000000e+001
      vertex  7.000000e+001  6.000000e+001  0.000000e+000
    endloop
  endfacet
  facet normal  0.000000e+000  1.000000e+000  0.000000e+000
    outer loop
      vertex  0.000000e+000  6.000000e+001 -1.000000e+001
      vertex  7.000000e+001  6.000000e+001  0.000000e+000
      vertex  7.000000e+001  6.000000e+001 -1.000000e+001
    endloop
  endfacet
  facet normal  1.000000e+000  0.000000e+000  0.000000e+000
    outer loop
      vertex  7.000000e+001  6.000000e+001 -1.000000e+001
      vertex  7.000000e+001  6.000000e+001  0.000000e+000
      vertex  7.000000e+001  0.000000e+000 -1.000000e+001
    endloop
  endfacet
  facet normal  1.000000e+000  0.000000e+000  0.000000e+000
    outer loop
      vertex  7.000000e+001  0.000000e+000 -1.000000e+001
      vertex  7.000000e+001  6.000000e+001  0.000000e+000
      vertex  7.000000e+001  0.000000e+000  0.000000e+000
    endloop
  endfacet
  facet normal  0.000000e+000  0.000000e+000 -1.000000e+000
    outer loop
      vertex  7.000000e+001  0.000000e+000  0.000000e+000
      vertex  7.000000e+001  6.000000e+001  0.000000e+000
      vertex  8.000000e+001  0.000000e+000  0.000000e+000
    endloop
  endfacet
  facet normal  0.000000e+000  0.000000e+000 -1.000000e+000
    outer loop
      vertex  8.000000e+001  0.000000e+000  0.000000e+000
      vertex  7.000000e+001  6.000000e+001  0.000000e+000
      vertex  8.000000e+001  6.000000e+001  0.000000e+000
    endloop
  endfacet
  facet normal  0.000000e+000 -1.000000e+000  0.000000e+000
    outer loop
      vertex  2.000000e+001  4.000000e+001  1.500000e+001
      vertex  2.000000e+001  4.000000e+001  1.200000e+001
      vertex  9.000000e+001  4.000000e+001  1.200000e+001
    endloop
  endfacet
  facet normal  0.000000e+000 -1.000000e+000  0.000000e+000
    outer loop
      vertex  2.000000e+001  4.000000e+001  1.500000e+001
      vertex  9.000000e+001  4.000000e+001  1.200000e+001
      vertex  9.000000e+001  4.000000e+001  1.500000e+001
    endloop
  endfacet
  facet normal  0.000000e+000 -1.000000e+000  0.000000e+000
    outer loop
      vertex  2.000000e+001  4.000000e+001  1.500000e+001
      vertex  9.000000e+001  4.000000e+001  1.500000e+001
      vertex  0.000000e+000  4.000000e+001  1.000000e+002
    endloop
  endfacet
  facet normal  0.000000e+000 -9.999999e-001  0.000000e+000
    outer loop
      vertex  2.000000e+001  4.000000e+001  1.500000e+001
      vertex  0.000000e+000  4.000000e+001  1.000000e+002
      vertex  0.000000e+000  4.000000e+001  1.500000e+001
    endloop
  endfacet
  facet normal  0.000000e+000 -1.000000e+000  0.000000e+000
    outer loop
      vertex  1.200000e+002  4.000000e+001  1.000000e+002
      vertex  0.000000e+000  4.000000e+001  1.000000e+002
      vertex  1.200000e+002  4.000000e+001  1.500000e+001
    endloop
  endfacet
  facet normal  0.000000e+000 -1.000000e+000  0.000000e+000
    outer loop
      vertex  1.200000e+002  4.000000e+001  1.500000e+001
      vertex  0.000000e+000  4.000000e+001  1.000000e+002
      vertex  9.000000e+001  4.000000e+001  1.500000e+001
    endloop
  endfacet
  facet normal -1.000000e+000  0.000000e+000  0.000000e+000
    outer loop
      vertex  9.000000e+001  4.000000e+001  1.500000e+001
      vertex  9.000000e+001  4.000000e+001  1.200000e+001
      vertex  9.000000e+001  3.000000e+001  1.500000e+001
    endloop
  endfacet
  facet normal -1.000000e+000  0.000000e+000  0.000000e+000
    outer loop
      vertex  9.000000e+001  3.000000e+001  1.500000e+001
      vertex  9.000000e+001  4.000000e+001  1.200000e+001
      vertex  9.000000e+001  3.000000e+001  1.200000e+001
    endloop
  endfacet
  facet normal  1.000000e+000  0.000000e+000  0.000000e+000
    outer loop
      vertex  2.000000e+001  4.000000e+001  1.200000e+001
      vertex  2.000000e+001  4.000000e+001  1.500000e+001
      vertex  2.000000e+001  3.000000e+001  1.200000e+001
    endloop
  endfacet
  facet normal  1.000000e+000  0.000000e+000  0.000000e+000
    outer loop
      vertex  2.000000e+001  3.000000e+001  1.200000e+001
      vertex  2.000000e+001  4.000000e+001  1.500000e+001
      vertex  2.000000e+001  3.000000e+001  1.500000e+001
    endloop
  endfacet
  facet normal  0.000000e+000  0.000000e+000  1.000000e+000
    outer loop
      vertex -1.421085e-014  3.000000e+001  1.500000e+001
      vertex  2.000000e+001  3.000000e+001  1.500000e+001
      vertex  0.000000e+000  4.000000e+001  1.500000e+001
    endloop
  endfacet
  facet normal  -0.000000e+000  0.000000e+000  1.000000e+000
    outer loop
      vertex  0.000000e+000  4.000000e+001  1.500000e+001
      vertex  2.000000e+001  3.000000e+001  1.500000e+001
      vertex  2.000000e+001  4.000000e+001  1.500000e+001
    endloop
  endfacet
  facet normal  0.000000e+000  0.000000e+000  1.000000e+000
    outer loop
      vertex  9.000000e+001  3.000000e+001  1.500000e+001
      vertex  1.200000e+002  3.000000e+001  1.500000e+001
      vertex  9.000000e+001  4.000000e+001  1.500000e+001
    endloop
  endfacet
  facet normal  -0.000000e+000  0.000000e+000  1.000000e+000
    outer loop
      vertex  9.000000e+001  4.000000e+001  1.500000e+001
      vertex  1.200000e+002  3.000000e+001  1.500000e+001
      vertex  1.200000e+002  4.000000e+001  1.500000e+001
    endloop
  endfacet
  facet normal  0.000000e+000  0.000000e+000  1.000000e+000
    outer loop
      vertex  2.000000e+001  3.000000e+001  1.200000e+001
      vertex  9.000000e+001  3.000000e+001  1.200000e+001
      vertex  2.000000e+001  4.000000e+001  1.200000e+001
    endloop
  endfacet
  facet normal  -0.000000e+000  0.000000e+000  1.000000e+000
    outer loop
      vertex  2.000000e+001  4.000000e+001  1.200000e+001
      vertex  9.000000e+001  3.000000e+001  1.200000e+001
      vertex  9.000000e+001  4.000000e+001  1.200000e+001
    endloop
  endfacet
  facet normal  0.000000e+000  0.000000e+000  1.000000e+000
    outer loop
      vertex  0.000000e+000  4.000000e+001  1.000000e+002
      vertex  1.200000e+002  4.000000e+001  1.000000e+002
      vertex  0.000000e+000  4.500000e+001  1.000000e+002
    endloop
  endfacet
  facet normal  -0.000000e+000  0.000000e+000  1.000000e+000
    outer loop
      vertex  0.000000e+000  4.500000e+001  1.000000e+002
      vertex  1.200000e+002  4.000000e+001  1.000000e+002
      vertex  1.200000e+002  4.500000e+001  1.000000e+002
    endloop
  endfacet
  facet normal  1.000000e+000  -0.000000e+000  0.000000e+000
    outer loop
      vertex  1.200000e+002  4.500000e+001  1.000000e+002
      vertex  1.200000e+002  4.000000e+001  1.000000e+002
      vertex  1.200000e+002  4.500000e+001  2.000000e+001
    endloop
  endfacet
  facet normal  9.999999e-001  0.000000e+000  0.000000e+000
    outer loop
      vertex  1.200000e+002  4.500000e+001  2.000000e+001
      vertex  1.200000e+002  4.000000e+001  1.000000e+002
      vertex  1.200000e+002  4.000000e+001  1.500000e+001
    endloop
  endfacet
  facet normal  1.000000e+000  0.000000e+000  0.000000e+000
    outer loop
      vertex  1.200000e+002  4.500000e+001  2.000000e+001
      vertex  1.200000e+002  4.000000e+001  1.500000e+001
      vertex  1.200000e+002  6.000000e+001  2.000000e+001
    endloop
  endfacet
  facet normal  1.000000e+000  0.000000e+000  0.000000e+000
    outer loop
      vertex  1.200000e+002  6.000000e+001  2.000000e+001
      vertex  1.200000e+002  4.000000e+001  1.500000e+001
      vertex  1.200000e+002  6.000000e+001  1.000000e+001
    endloop
  endfacet
  facet normal  1.000000e+000  -0.000000e+000  0.000000e+000
    outer loop
      vertex  1.200000e+002  2.500000e+001  2.000000e+001
      vertex  1.200000e+002  0.000000e+000  2.000000e+001
      vertex  1.200000e+002  3.000000e+001  1.500000e+001
    endloop
  endfacet
  facet normal  1.000000e+000  0.000000e+000  0.000000e+000
    outer loop
      vertex  1.200000e+002  3.000000e+001  1.500000e+001
      vertex  1.200000e+002  0.000000e+000  2.000000e+001
      vertex  1.200000e+002  0.000000e+000  1.000000e+001
    endloop
  endfacet
  facet normal  1.000000e+000  0.000000e+000  0.000000e+000
    outer loop
      vertex  1.200000e+002  3.000000e+001  1.500000e+001
      vertex  1.200000e+002  0.000000e+000  1.000000e+001
      vertex  1.200000e+002  4.000000e+001  1.500000e+001
    endloop
  endfacet
  facet normal  1.000000e+000  0.000000e+000  0.000000e+000
    outer loop
      vertex  1.200000e+002  4.000000e+001  1.500000e+001
      vertex  1.200000e+002  0.000000e+000  1.000000e+001
      vertex  1.200000e+002  6.000000e+001  1.000000e+001
    endloop
  endfacet
  facet normal  1.000000e+000  0.000000e+000  0.000000e+000
    outer loop
      vertex  1.200000e+002  2.500000e+001  2.000000e+001
      vertex  1.200000e+002  3.000000e+001  1.500000e+001
      vertex  1.200000e+002  2.500000e+001  1.000000e+002
    endloop
  endfacet
  facet normal  9.999999e-001  -0.000000e+000  0.000000e+000
    outer loop
      vertex  1.200000e+002  2.500000e+001  1.000000e+002
      vertex  1.200000e+002  3.000000e+001  1.500000e+001
      vertex  1.200000e+002  3.000000e+001  1.000000e+002
    endloop
  endfacet
  facet normal  0.000000e+000  0.000000e+000  1.000000e+000
    outer loop
      vertex  9.300000e+001  1.600000e+001  4.200000e+001
      vertex  1.070000e+002  1.600000e+001  4.200000e+001
      vertex  9.300000e+001  3.000000e+001  4.200000e+001
    endloop
  endfacet
  facet normal  -0.000000e+000  0.000000e+000  1.000000e+000
    outer loop
      vertex  9.300000e+001  3.000000e+001  4.200000e+001
      vertex  1.070000e+002  1.600000e+001  4.200000e+001
      vertex  1.070000e+002  3.000000e+001  4.200000e+001
    endloop
  endfacet
  facet normal  0.000000e+000  1.000000e+000  0.000000e+000
    outer loop
      vertex  1.070000e+002  1.600000e+001  4.200000e+001
      vertex  9.300000e+001  1.600000e+001  4.200000e+001
      vertex  1.070000e+002  1.600000e+001  4.500000e+001
    endloop
  endfacet
  facet normal  0.000000e+000  1.000000e+000  0.000000e+000
    outer loop
      vertex  1.070000e+002  1.600000e+001  4.500000e+001
      vertex  9.300000e+001  1.600000e+001  4.200000e+001
      vertex  9.300000e+001  1.600000e+001  4.500000e+001
    endloop
  endfacet
  facet normal  0.000000e+000  0.000000e+000  1.000000e+000
    outer loop
      vertex  9.300000e+001  5.000000e+000  4.500000e+001
      vertex  1.070000e+002  5.000000e+000  4.500000e+001
      vertex  9.300000e+001  1.600000e+001  4.500000e+001
    endloop
  endfacet
  facet normal  -0.000000e+000  0.000000e+000  1.000000e+000
    outer loop
      vertex  9.300000e+001  1.600000e+001  4.500000e+001
      vertex  1.070000e+002  5.000000e+000  4.500000e+001
      vertex  1.070000e+002  1.600000e+001  4.500000e+001
    endloop
  endfacet
  facet normal  0.000000e+000  1.000000e+000  0.000000e+000
    outer loop
      vertex  0.000000e+000  4.500000e+001  1.000000e+002
      vertex  1.200000e+002  4.500000e+001  1.000000e+002
      vertex  0.000000e+000  4.500000e+001  2.000000e+001
    endloop
  endfacet
  facet normal  0.000000e+000  1.000000e+000  0.000000e+000
    outer loop
      vertex  0.000000e+000  4.500000e+001  2.000000e+001
      vertex  1.200000e+002  4.500000e+001  1.000000e+002
      vertex  1.200000e+002  4.500000e+001  2.000000e+001
    endloop
  endfacet
  facet normal  0.000000e+000  0.000000e+000 -1.000000e+000
    outer loop
      vertex  1.200000e+002  6.000000e+001  1.000000e+001
      vertex  1.200000e+002  0.000000e+000  1.000000e+001
      vertex  8.000000e+001  6.000000e+001  1.000000e+001
    endloop
  endfacet
  facet normal  0.000000e+000  0.000000e+000 -1.000000e+000
    outer loop
      vertex  8.000000e+001  6.000000e+001  1.000000e+001
      vertex  1.200000e+002  0.000000e+000  1.000000e+001
      vertex  8.000000e+001  0.000000e+000  1.000000e+001
    endloop
  endfacet
  facet normal  1.000000e+000  0.000000e+000  0.000000e+000
    outer loop
      vertex  8.000000e+001  6.000000e+001  0.000000e+000
      vertex  8.000000e+001  6.000000e+001  1.000000e+001
      vertex  8.000000e+001  0.000000e+000  0.000000e+000
    endloop
  endfacet
  facet normal  1.000000e+000  0.000000e+000  0.000000e+000
    outer loop
      vertex  8.000000e+001  0.000000e+000  0.000000e+000
      vertex  8.000000e+001  6.000000e+001  1.000000e+001
      vertex  8.000000e+001  0.000000e+000  1.000000e+001
    endloop
  endfacet
endsolid CATIA STL
