solid CATIA STL
  facet normal  0.000000e+000 -1.000000e+000  0.000000e+000
    outer loop
      vertex  0.000000e+000  0.000000e+000  2.000000e+001
      vertex  2.842171e-014  0.000000e+000  1.000000e+001
      vertex  1.000000e+001  0.000000e+000  1.000000e+001
    endloop
  endfacet
  facet normal  0.000000e+000 -1.000000e+000  0.000000e+000
    outer loop
      vertex  0.000000e+000  0.000000e+000  2.000000e+001
      vertex  1.000000e+001  0.000000e+000  1.000000e+001
      vertex  1.700000e+001  0.000000e+000  1.000000e+001
    endloop
  endfacet
  facet normal  0.000000e+000 -1.000000e+000  0.000000e+000
    outer loop
      vertex  0.000000e+000  0.000000e+000  2.000000e+001
      vertex  1.700000e+001  0.000000e+000  1.000000e+001
      vertex  5.900000e+001  0.000000e+000  1.000000e+001
    endloop
  endfacet
  facet normal  0.000000e+000 -9.999999e-001  0.000000e+000
    outer loop
      vertex  0.000000e+000  0.000000e+000  2.000000e+001
      vertex  5.900000e+001  0.000000e+000  1.000000e+001
      vertex  7.000000e+001  0.000000e+000  1.000000e+001
    endloop
  endfacet
  facet normal  0.000000e+000 -1.000000e+000  0.000000e+000
    outer loop
      vertex  0.000000e+000  0.000000e+000  2.000000e+001
      vertex  7.000000e+001  0.000000e+000  1.000000e+001
      vertex  8.000000e+001  0.000000e+000  1.000000e+001
    endloop
  endfacet
  facet normal  0.000000e+000 -1.000000e+000  0.000000e+000
    outer loop
      vertex  0.000000e+000  0.000000e+000  2.000000e+001
      vertex  8.000000e+001  0.000000e+000  1.000000e+001
      vertex  8.000000e+001  0.000000e+000  2.000000e+001
    endloop
  endfacet
  facet normal  0.000000e+000 -9.999999e-001  0.000000e+000
    outer loop
      vertex  7.000000e+001  0.000000e+000  1.000000e+001
      vertex  5.900000e+001  0.000000e+000  1.000000e+001
      vertex  7.000000e+001  0.000000e+000  0.000000e+000
    endloop
  endfacet
  facet normal  0.000000e+000 -9.999999e-001  0.000000e+000
    outer loop
      vertex  7.000000e+001  0.000000e+000  0.000000e+000
      vertex  5.900000e+001  0.000000e+000  1.000000e+001
      vertex  5.900000e+001  0.000000e+000  0.000000e+000
    endloop
  endfacet
  facet normal  0.000000e+000 -1.000000e+000  0.000000e+000
    outer loop
      vertex  1.700000e+001  0.000000e+000  1.000000e+001
      vertex  1.000000e+001  0.000000e+000  1.000000e+001
      vertex  1.700000e+001  0.000000e+000  0.000000e+000
    endloop
  endfacet
  facet normal  0.000000e+000 -1.000000e+000  0.000000e+000
    outer loop
      vertex  1.700000e+001  0.000000e+000  0.000000e+000
      vertex  1.000000e+001  0.000000e+000  1.000000e+001
      vertex  1.000000e+001  0.000000e+000  0.000000e+000
    endloop
  endfacet
  facet normal  0.000000e+000  0.000000e+000 -1.000000e+000
    outer loop
      vertex  1.000000e+001  0.000000e+000  0.000000e+000
      vertex  1.000000e+001  4.000000e+001  0.000000e+000
      vertex  1.700000e+001  0.000000e+000  0.000000e+000
    endloop
  endfacet
  facet normal  0.000000e+000  0.000000e+000 -1.000000e+000
    outer loop
      vertex  1.700000e+001  0.000000e+000  0.000000e+000
      vertex  1.000000e+001  4.000000e+001  0.000000e+000
      vertex  1.700000e+001  4.000000e+001  0.000000e+000
    endloop
  endfacet
  facet normal  0.000000e+000  1.000000e+000  -0.000000e+000
    outer loop
      vertex  8.000000e+001  4.000000e+001  2.000000e+001
      vertex  8.000000e+001  4.000000e+001  1.000000e+001
      vertex  7.000000e+001  4.000000e+001  1.000000e+001
    endloop
  endfacet
  facet normal  0.000000e+000  9.999999e-001  -0.000000e+000
    outer loop
      vertex  8.000000e+001  4.000000e+001  2.000000e+001
      vertex  7.000000e+001  4.000000e+001  1.000000e+001
      vertex  5.900000e+001  4.000000e+001  1.000000e+001
    endloop
  endfacet
  facet normal  0.000000e+000  1.000000e+000  -0.000000e+000
    outer loop
      vertex  8.000000e+001  4.000000e+001  2.000000e+001
      vertex  5.900000e+001  4.000000e+001  1.000000e+001
      vertex  1.700000e+001  4.000000e+001  1.000000e+001
    endloop
  endfacet
  facet normal  0.000000e+000  1.000000e+000  -0.000000e+000
    outer loop
      vertex  8.000000e+001  4.000000e+001  2.000000e+001
      vertex  1.700000e+001  4.000000e+001  1.000000e+001
      vertex  1.000000e+001  4.000000e+001  1.000000e+001
    endloop
  endfacet
  facet normal  0.000000e+000  1.000000e+000  -0.000000e+000
    outer loop
      vertex  8.000000e+001  4.000000e+001  2.000000e+001
      vertex  1.000000e+001  4.000000e+001  1.000000e+001
      vertex  0.000000e+000  4.000000e+001  1.000000e+001
    endloop
  endfacet
  facet normal  0.000000e+000  1.000000e+000  0.000000e+000
    outer loop
      vertex  8.000000e+001  4.000000e+001  2.000000e+001
      vertex  0.000000e+000  4.000000e+001  1.000000e+001
      vertex  0.000000e+000  4.000000e+001  2.000000e+001
    endloop
  endfacet
  facet normal  0.000000e+000  1.000000e+000  0.000000e+000
    outer loop
      vertex  1.000000e+001  4.000000e+001  1.000000e+001
      vertex  1.700000e+001  4.000000e+001  1.000000e+001
      vertex  1.000000e+001  4.000000e+001  0.000000e+000
    endloop
  endfacet
  facet normal  0.000000e+000  1.000000e+000  0.000000e+000
    outer loop
      vertex  1.000000e+001  4.000000e+001  0.000000e+000
      vertex  1.700000e+001  4.000000e+001  1.000000e+001
      vertex  1.700000e+001  4.000000e+001  0.000000e+000
    endloop
  endfacet
  facet normal  0.000000e+000  9.999999e-001  0.000000e+000
    outer loop
      vertex  5.900000e+001  4.000000e+001  1.000000e+001
      vertex  7.000000e+001  4.000000e+001  1.000000e+001
      vertex  5.900000e+001  4.000000e+001  0.000000e+000
    endloop
  endfacet
  facet normal  0.000000e+000  9.999999e-001  0.000000e+000
    outer loop
      vertex  5.900000e+001  4.000000e+001  0.000000e+000
      vertex  7.000000e+001  4.000000e+001  1.000000e+001
      vertex  7.000000e+001  4.000000e+001  0.000000e+000
    endloop
  endfacet
  facet normal  0.000000e+000  0.000000e+000 -9.999999e-001
    outer loop
      vertex  5.900000e+001  0.000000e+000  0.000000e+000
      vertex  5.900000e+001  4.000000e+001  0.000000e+000
      vertex  7.000000e+001  0.000000e+000  0.000000e+000
    endloop
  endfacet
  facet normal  0.000000e+000  0.000000e+000 -9.999999e-001
    outer loop
      vertex  7.000000e+001  0.000000e+000  0.000000e+000
      vertex  5.900000e+001  4.000000e+001  0.000000e+000
      vertex  7.000000e+001  4.000000e+001  0.000000e+000
    endloop
  endfacet
  facet normal -1.000000e+000  -0.000000e+000  -0.000000e+000
    outer loop
      vertex  0.000000e+000  2.500000e+001  2.000000e+001
      vertex  0.000000e+000  4.000000e+001  2.000000e+001
      vertex  0.000000e+000  4.000000e+001  1.000000e+001
    endloop
  endfacet
  facet normal -1.000000e+000  0.000000e+000  0.000000e+000
    outer loop
      vertex  0.000000e+000  2.500000e+001  2.000000e+001
      vertex  0.000000e+000  4.000000e+001  1.000000e+001
      vertex  0.000000e+000  1.500000e+001  2.000000e+001
    endloop
  endfacet
  facet normal -1.000000e+000  0.000000e+000  7.105427e-016
    outer loop
      vertex  0.000000e+000  2.500000e+001  2.000000e+001
      vertex  0.000000e+000  1.500000e+001  2.000000e+001
      vertex  7.105427e-015  1.500000e+001  3.000000e+001
    endloop
  endfacet
  facet normal -1.000000e+000  0.000000e+000  7.105427e-016
    outer loop
      vertex  0.000000e+000  2.500000e+001  2.000000e+001
      vertex  7.105427e-015  1.500000e+001  3.000000e+001
      vertex  7.105427e-015  2.500000e+001  3.000000e+001
    endloop
  endfacet
  facet normal -1.000000e+000  0.000000e+000  0.000000e+000
    outer loop
      vertex  0.000000e+000  1.500000e+001  2.000000e+001
      vertex  0.000000e+000  4.000000e+001  1.000000e+001
      vertex  0.000000e+000  0.000000e+000  2.000000e+001
    endloop
  endfacet
  facet normal -1.000000e+000 -7.105427e-016 -2.842171e-015
    outer loop
      vertex  0.000000e+000  0.000000e+000  2.000000e+001
      vertex  0.000000e+000  4.000000e+001  1.000000e+001
      vertex  2.842171e-014  0.000000e+000  1.000000e+001
    endloop
  endfacet
  facet normal  1.000000e+000  -0.000000e+000  0.000000e+000
    outer loop
      vertex  8.000000e+001  1.500000e+001  2.000000e+001
      vertex  8.000000e+001  0.000000e+000  2.000000e+001
      vertex  8.000000e+001  0.000000e+000  1.000000e+001
    endloop
  endfacet
  facet normal  1.000000e+000  0.000000e+000  0.000000e+000
    outer loop
      vertex  8.000000e+001  1.500000e+001  2.000000e+001
      vertex  8.000000e+001  0.000000e+000  1.000000e+001
      vertex  8.000000e+001  2.500000e+001  2.000000e+001
    endloop
  endfacet
  facet normal  1.000000e+000  0.000000e+000  -0.000000e+000
    outer loop
      vertex  8.000000e+001  1.500000e+001  2.000000e+001
      vertex  8.000000e+001  2.500000e+001  2.000000e+001
      vertex  8.000000e+001  2.500000e+001  3.000000e+001
    endloop
  endfacet
  facet normal  1.000000e+000  0.000000e+000  0.000000e+000
    outer loop
      vertex  8.000000e+001  1.500000e+001  2.000000e+001
      vertex  8.000000e+001  2.500000e+001  3.000000e+001
      vertex  8.000000e+001  1.500000e+001  3.000000e+001
    endloop
  endfacet
  facet normal  1.000000e+000  0.000000e+000  0.000000e+000
    outer loop
      vertex  8.000000e+001  2.500000e+001  2.000000e+001
      vertex  8.000000e+001  0.000000e+000  1.000000e+001
      vertex  8.000000e+001  4.000000e+001  2.000000e+001
    endloop
  endfacet
  facet normal  1.000000e+000  0.000000e+000  0.000000e+000
    outer loop
      vertex  8.000000e+001  4.000000e+001  2.000000e+001
      vertex  8.000000e+001  0.000000e+000  1.000000e+001
      vertex  8.000000e+001  4.000000e+001  1.000000e+001
    endloop
  endfacet
  facet normal  0.000000e+000 -3.826837e-001  9.238794e-001
    outer loop
      vertex  5.900000e+001  2.000000e+001  3.500000e+000
      vertex  7.000000e+001  2.106066e+001  3.939340e+000
      vertex  5.900000e+001  2.106066e+001  3.939340e+000
    endloop
  endfacet
  facet normal  0.000000e+000 -9.238792e-001  3.826840e-001
    outer loop
      vertex  5.900000e+001  2.106066e+001  3.939340e+000
      vertex  7.000000e+001  2.106066e+001  3.939340e+000
      vertex  7.000000e+001  2.150000e+001  5.000000e+000
    endloop
  endfacet
  facet normal  0.000000e+000 -9.238792e-001  3.826840e-001
    outer loop
      vertex  5.900000e+001  2.106066e+001  3.939340e+000
      vertex  7.000000e+001  2.150000e+001  5.000000e+000
      vertex  5.900000e+001  2.150000e+001  5.000000e+000
    endloop
  endfacet
  facet normal  0.000000e+000 -3.826837e-001  9.238794e-001
    outer loop
      vertex  7.000000e+001  2.106066e+001  3.939340e+000
      vertex  5.900000e+001  2.000000e+001  3.500000e+000
      vertex  7.000000e+001  2.000000e+001  3.500000e+000
    endloop
  endfacet
  facet normal  0.000000e+000  3.826837e-001  9.238794e-001
    outer loop
      vertex  7.000000e+001  2.000000e+001  3.500000e+000
      vertex  5.900000e+001  2.000000e+001  3.500000e+000
      vertex  5.900000e+001  1.893934e+001  3.939340e+000
    endloop
  endfacet
  facet normal  -0.000000e+000  3.826837e-001  9.238794e-001
    outer loop
      vertex  7.000000e+001  2.000000e+001  3.500000e+000
      vertex  5.900000e+001  1.893934e+001  3.939340e+000
      vertex  7.000000e+001  1.893934e+001  3.939340e+000
    endloop
  endfacet
  facet normal  0.000000e+000  9.238792e-001  3.826840e-001
    outer loop
      vertex  7.000000e+001  1.893934e+001  3.939340e+000
      vertex  5.900000e+001  1.893934e+001  3.939340e+000
      vertex  5.900000e+001  1.850000e+001  5.000000e+000
    endloop
  endfacet
  facet normal  -0.000000e+000  9.238792e-001  3.826840e-001
    outer loop
      vertex  7.000000e+001  1.893934e+001  3.939340e+000
      vertex  5.900000e+001  1.850000e+001  5.000000e+000
      vertex  7.000000e+001  1.850000e+001  5.000000e+000
    endloop
  endfacet
  facet normal  0.000000e+000  3.826835e-001 -9.238795e-001
    outer loop
      vertex  5.900000e+001  2.000000e+001  6.500000e+000
      vertex  7.000000e+001  1.893934e+001  6.060660e+000
      vertex  5.900000e+001  1.893934e+001  6.060660e+000
    endloop
  endfacet
  facet normal  0.000000e+000  9.238794e-001 -3.826840e-001
    outer loop
      vertex  5.900000e+001  1.893934e+001  6.060660e+000
      vertex  7.000000e+001  1.893934e+001  6.060660e+000
      vertex  7.000000e+001  1.850000e+001  5.000000e+000
    endloop
  endfacet
  facet normal  0.000000e+000  9.238794e-001 -3.826840e-001
    outer loop
      vertex  5.900000e+001  1.893934e+001  6.060660e+000
      vertex  7.000000e+001  1.850000e+001  5.000000e+000
      vertex  5.900000e+001  1.850000e+001  5.000000e+000
    endloop
  endfacet
  facet normal  0.000000e+000  3.826835e-001 -9.238795e-001
    outer loop
      vertex  7.000000e+001  1.893934e+001  6.060660e+000
      vertex  5.900000e+001  2.000000e+001  6.500000e+000
      vertex  7.000000e+001  2.000000e+001  6.500000e+000
    endloop
  endfacet
  facet normal  -0.000000e+000 -3.826835e-001 -9.238795e-001
    outer loop
      vertex  7.000000e+001  2.000000e+001  6.500000e+000
      vertex  5.900000e+001  2.000000e+001  6.500000e+000
      vertex  5.900000e+001  2.106066e+001  6.060660e+000
    endloop
  endfacet
  facet normal  0.000000e+000 -3.826835e-001 -9.238795e-001
    outer loop
      vertex  7.000000e+001  2.000000e+001  6.500000e+000
      vertex  5.900000e+001  2.106066e+001  6.060660e+000
      vertex  7.000000e+001  2.106066e+001  6.060660e+000
    endloop
  endfacet
  facet normal  -0.000000e+000 -9.238794e-001 -3.826840e-001
    outer loop
      vertex  7.000000e+001  2.106066e+001  6.060660e+000
      vertex  5.900000e+001  2.106066e+001  6.060660e+000
      vertex  5.900000e+001  2.150000e+001  5.000000e+000
    endloop
  endfacet
  facet normal  0.000000e+000 -9.238794e-001 -3.826840e-001
    outer loop
      vertex  7.000000e+001  2.106066e+001  6.060660e+000
      vertex  5.900000e+001  2.150000e+001  5.000000e+000
      vertex  7.000000e+001  2.150000e+001  5.000000e+000
    endloop
  endfacet
  facet normal  1.000000e+000  -0.000000e+000  0.000000e+000
    outer loop
      vertex  7.000000e+001  2.150000e+001  5.000000e+000
      vertex  7.000000e+001  2.106066e+001  3.939340e+000
      vertex  7.000000e+001  4.000000e+001  0.000000e+000
    endloop
  endfacet
  facet normal  1.000000e+000  -0.000000e+000  0.000000e+000
    outer loop
      vertex  7.000000e+001  2.106066e+001  3.939340e+000
      vertex  7.000000e+001  2.000000e+001  3.500000e+000
      vertex  7.000000e+001  4.000000e+001  0.000000e+000
    endloop
  endfacet
  facet normal  1.000000e+000  -0.000000e+000  0.000000e+000
    outer loop
      vertex  7.000000e+001  4.000000e+001  1.000000e+001
      vertex  7.000000e+001  0.000000e+000  1.000000e+001
      vertex  7.000000e+001  2.000000e+001  6.500000e+000
    endloop
  endfacet
  facet normal  1.000000e+000  -0.000000e+000  0.000000e+000
    outer loop
      vertex  7.000000e+001  4.000000e+001  1.000000e+001
      vertex  7.000000e+001  2.000000e+001  6.500000e+000
      vertex  7.000000e+001  2.106066e+001  6.060660e+000
    endloop
  endfacet
  facet normal  9.999999e-001  -0.000000e+000  0.000000e+000
    outer loop
      vertex  7.000000e+001  4.000000e+001  1.000000e+001
      vertex  7.000000e+001  2.106066e+001  6.060660e+000
      vertex  7.000000e+001  2.150000e+001  5.000000e+000
    endloop
  endfacet
  facet normal  1.000000e+000  -0.000000e+000  0.000000e+000
    outer loop
      vertex  7.000000e+001  4.000000e+001  1.000000e+001
      vertex  7.000000e+001  2.150000e+001  5.000000e+000
      vertex  7.000000e+001  4.000000e+001  0.000000e+000
    endloop
  endfacet
  facet normal  1.000000e+000  0.000000e+000  0.000000e+000
    outer loop
      vertex  7.000000e+001  0.000000e+000  0.000000e+000
      vertex  7.000000e+001  4.000000e+001  0.000000e+000
      vertex  7.000000e+001  2.000000e+001  3.500000e+000
    endloop
  endfacet
  facet normal  1.000000e+000  0.000000e+000  0.000000e+000
    outer loop
      vertex  7.000000e+001  0.000000e+000  0.000000e+000
      vertex  7.000000e+001  2.000000e+001  3.500000e+000
      vertex  7.000000e+001  1.893934e+001  3.939340e+000
    endloop
  endfacet
  facet normal  1.000000e+000  0.000000e+000  0.000000e+000
    outer loop
      vertex  7.000000e+001  0.000000e+000  0.000000e+000
      vertex  7.000000e+001  1.893934e+001  3.939340e+000
      vertex  7.000000e+001  1.850000e+001  5.000000e+000
    endloop
  endfacet
  facet normal  1.000000e+000  0.000000e+000  -0.000000e+000
    outer loop
      vertex  7.000000e+001  0.000000e+000  0.000000e+000
      vertex  7.000000e+001  1.850000e+001  5.000000e+000
      vertex  7.000000e+001  1.893934e+001  6.060660e+000
    endloop
  endfacet
  facet normal  1.000000e+000  0.000000e+000  -0.000000e+000
    outer loop
      vertex  7.000000e+001  0.000000e+000  0.000000e+000
      vertex  7.000000e+001  1.893934e+001  6.060660e+000
      vertex  7.000000e+001  2.000000e+001  6.500000e+000
    endloop
  endfacet
  facet normal  1.000000e+000  0.000000e+000  0.000000e+000
    outer loop
      vertex  7.000000e+001  0.000000e+000  0.000000e+000
      vertex  7.000000e+001  2.000000e+001  6.500000e+000
      vertex  7.000000e+001  0.000000e+000  1.000000e+001
    endloop
  endfacet
  facet normal  0.000000e+000  0.000000e+000 -1.000000e+000
    outer loop
      vertex  7.820000e+001  2.000000e+001  1.000000e+001
      vertex  7.758885e+001  2.188091e+001  1.000000e+001
      vertex  8.000000e+001  4.000000e+001  1.000000e+001
    endloop
  endfacet
  facet normal  0.000000e+000  0.000000e+000 -1.000000e+000
    outer loop
      vertex  7.758885e+001  2.188091e+001  1.000000e+001
      vertex  7.598885e+001  2.304338e+001  1.000000e+001
      vertex  8.000000e+001  4.000000e+001  1.000000e+001
    endloop
  endfacet
  facet normal  0.000000e+000  -0.000000e+000 -1.000000e+000
    outer loop
      vertex  7.000000e+001  0.000000e+000  1.000000e+001
      vertex  7.180000e+001  2.000000e+001  1.000000e+001
      vertex  7.241115e+001  1.811909e+001  1.000000e+001
    endloop
  endfacet
  facet normal  0.000000e+000  -0.000000e+000 -1.000000e+000
    outer loop
      vertex  7.000000e+001  0.000000e+000  1.000000e+001
      vertex  7.241115e+001  1.811909e+001  1.000000e+001
      vertex  7.401115e+001  1.695662e+001  1.000000e+001
    endloop
  endfacet
  facet normal  0.000000e+000  -0.000000e+000 -1.000000e+000
    outer loop
      vertex  7.000000e+001  0.000000e+000  1.000000e+001
      vertex  7.401115e+001  1.695662e+001  1.000000e+001
      vertex  7.598885e+001  1.695662e+001  1.000000e+001
    endloop
  endfacet
  facet normal  0.000000e+000  -0.000000e+000 -1.000000e+000
    outer loop
      vertex  7.000000e+001  0.000000e+000  1.000000e+001
      vertex  7.598885e+001  1.695662e+001  1.000000e+001
      vertex  8.000000e+001  0.000000e+000  1.000000e+001
    endloop
  endfacet
  facet normal  -0.000000e+000  0.000000e+000 -1.000000e+000
    outer loop
      vertex  7.000000e+001  4.000000e+001  1.000000e+001
      vertex  8.000000e+001  4.000000e+001  1.000000e+001
      vertex  7.598885e+001  2.304338e+001  1.000000e+001
    endloop
  endfacet
  facet normal  0.000000e+000  0.000000e+000 -1.000000e+000
    outer loop
      vertex  7.000000e+001  4.000000e+001  1.000000e+001
      vertex  7.598885e+001  2.304338e+001  1.000000e+001
      vertex  7.401115e+001  2.304338e+001  1.000000e+001
    endloop
  endfacet
  facet normal  -0.000000e+000  0.000000e+000 -1.000000e+000
    outer loop
      vertex  7.000000e+001  4.000000e+001  1.000000e+001
      vertex  7.401115e+001  2.304338e+001  1.000000e+001
      vertex  7.241115e+001  2.188091e+001  1.000000e+001
    endloop
  endfacet
  facet normal  -0.000000e+000  0.000000e+000 -1.000000e+000
    outer loop
      vertex  7.000000e+001  4.000000e+001  1.000000e+001
      vertex  7.241115e+001  2.188091e+001  1.000000e+001
      vertex  7.180000e+001  2.000000e+001  1.000000e+001
    endloop
  endfacet
  facet normal  -0.000000e+000  0.000000e+000 -1.000000e+000
    outer loop
      vertex  7.000000e+001  4.000000e+001  1.000000e+001
      vertex  7.180000e+001  2.000000e+001  1.000000e+001
      vertex  7.000000e+001  0.000000e+000  1.000000e+001
    endloop
  endfacet
  facet normal  0.000000e+000  0.000000e+000 -1.000000e+000
    outer loop
      vertex  8.000000e+001  0.000000e+000  1.000000e+001
      vertex  7.598885e+001  1.695662e+001  1.000000e+001
      vertex  7.758885e+001  1.811909e+001  1.000000e+001
    endloop
  endfacet
  facet normal  0.000000e+000  0.000000e+000 -1.000000e+000
    outer loop
      vertex  8.000000e+001  0.000000e+000  1.000000e+001
      vertex  7.758885e+001  1.811909e+001  1.000000e+001
      vertex  7.820000e+001  2.000000e+001  1.000000e+001
    endloop
  endfacet
  facet normal  0.000000e+000  0.000000e+000 -1.000000e+000
    outer loop
      vertex  8.000000e+001  0.000000e+000  1.000000e+001
      vertex  7.820000e+001  2.000000e+001  1.000000e+001
      vertex  8.000000e+001  4.000000e+001  1.000000e+001
    endloop
  endfacet
  facet normal  0.000000e+000  0.000000e+000 -1.000000e+000
    outer loop
      vertex  8.200000e+000  2.000000e+001  1.000000e+001
      vertex  7.588854e+000  2.188091e+001  1.000000e+001
      vertex  1.000000e+001  4.000000e+001  1.000000e+001
    endloop
  endfacet
  facet normal  0.000000e+000  0.000000e+000 -9.999999e-001
    outer loop
      vertex  7.588854e+000  2.188091e+001  1.000000e+001
      vertex  5.988854e+000  2.304338e+001  1.000000e+001
      vertex  1.000000e+001  4.000000e+001  1.000000e+001
    endloop
  endfacet
  facet normal  0.000000e+000  -0.000000e+000 -9.999999e-001
    outer loop
      vertex  2.842171e-014  0.000000e+000  1.000000e+001
      vertex  1.800000e+000  2.000000e+001  1.000000e+001
      vertex  2.411146e+000  1.811909e+001  1.000000e+001
    endloop
  endfacet
  facet normal  0.000000e+000  -0.000000e+000 -9.999999e-001
    outer loop
      vertex  2.842171e-014  0.000000e+000  1.000000e+001
      vertex  2.411146e+000  1.811909e+001  1.000000e+001
      vertex  4.011146e+000  1.695662e+001  1.000000e+001
    endloop
  endfacet
  facet normal  0.000000e+000  -0.000000e+000 -1.000000e+000
    outer loop
      vertex  2.842171e-014  0.000000e+000  1.000000e+001
      vertex  4.011146e+000  1.695662e+001  1.000000e+001
      vertex  5.988854e+000  1.695662e+001  1.000000e+001
    endloop
  endfacet
  facet normal  0.000000e+000  -0.000000e+000 -1.000000e+000
    outer loop
      vertex  2.842171e-014  0.000000e+000  1.000000e+001
      vertex  5.988854e+000  1.695662e+001  1.000000e+001
      vertex  1.000000e+001  0.000000e+000  1.000000e+001
    endloop
  endfacet
  facet normal  -0.000000e+000  0.000000e+000 -1.000000e+000
    outer loop
      vertex  0.000000e+000  4.000000e+001  1.000000e+001
      vertex  1.000000e+001  4.000000e+001  1.000000e+001
      vertex  5.988854e+000  2.304338e+001  1.000000e+001
    endloop
  endfacet
  facet normal  0.000000e+000  0.000000e+000 -1.000000e+000
    outer loop
      vertex  0.000000e+000  4.000000e+001  1.000000e+001
      vertex  5.988854e+000  2.304338e+001  1.000000e+001
      vertex  4.011146e+000  2.304338e+001  1.000000e+001
    endloop
  endfacet
  facet normal  -0.000000e+000  0.000000e+000 -9.999999e-001
    outer loop
      vertex  0.000000e+000  4.000000e+001  1.000000e+001
      vertex  4.011146e+000  2.304338e+001  1.000000e+001
      vertex  2.411146e+000  2.188091e+001  1.000000e+001
    endloop
  endfacet
  facet normal  -0.000000e+000  0.000000e+000 -1.000000e+000
    outer loop
      vertex  0.000000e+000  4.000000e+001  1.000000e+001
      vertex  2.411146e+000  2.188091e+001  1.000000e+001
      vertex  1.800000e+000  2.000000e+001  1.000000e+001
    endloop
  endfacet
  facet normal  -0.000000e+000  0.000000e+000 -1.000000e+000
    outer loop
      vertex  0.000000e+000  4.000000e+001  1.000000e+001
      vertex  1.800000e+000  2.000000e+001  1.000000e+001
      vertex  2.842171e-014  0.000000e+000  1.000000e+001
    endloop
  endfacet
  facet normal  0.000000e+000  0.000000e+000 -9.999999e-001
    outer loop
      vertex  1.000000e+001  0.000000e+000  1.000000e+001
      vertex  5.988854e+000  1.695662e+001  1.000000e+001
      vertex  7.588854e+000  1.811909e+001  1.000000e+001
    endloop
  endfacet
  facet normal  0.000000e+000  0.000000e+000 -1.000000e+000
    outer loop
      vertex  1.000000e+001  0.000000e+000  1.000000e+001
      vertex  7.588854e+000  1.811909e+001  1.000000e+001
      vertex  8.200000e+000  2.000000e+001  1.000000e+001
    endloop
  endfacet
  facet normal  0.000000e+000  0.000000e+000 -1.000000e+000
    outer loop
      vertex  1.000000e+001  0.000000e+000  1.000000e+001
      vertex  8.200000e+000  2.000000e+001  1.000000e+001
      vertex  1.000000e+001  4.000000e+001  1.000000e+001
    endloop
  endfacet
  facet normal -1.000000e+000  -0.000000e+000  0.000000e+000
    outer loop
      vertex  1.000000e+001  0.000000e+000  1.000000e+001
      vertex  1.000000e+001  4.000000e+001  1.000000e+001
      vertex  1.000000e+001  0.000000e+000  0.000000e+000
    endloop
  endfacet
  facet normal -1.000000e+000  0.000000e+000  0.000000e+000
    outer loop
      vertex  1.000000e+001  0.000000e+000  0.000000e+000
      vertex  1.000000e+001  4.000000e+001  1.000000e+001
      vertex  1.000000e+001  4.000000e+001  0.000000e+000
    endloop
  endfacet
  facet normal -5.877852e-001  8.090170e-001  0.000000e+000
    outer loop
      vertex  5.988854e+000  1.695662e+001  1.000000e+001
      vertex  7.588854e+000  1.811909e+001  3.000000e+001
      vertex  7.588854e+000  1.811909e+001  1.000000e+001
    endloop
  endfacet
  facet normal -9.510565e-001  3.090169e-001  0.000000e+000
    outer loop
      vertex  7.588854e+000  1.811909e+001  1.000000e+001
      vertex  7.588854e+000  1.811909e+001  3.000000e+001
      vertex  8.200000e+000  2.000000e+001  3.000000e+001
    endloop
  endfacet
  facet normal -9.510565e-001  3.090169e-001  0.000000e+000
    outer loop
      vertex  7.588854e+000  1.811909e+001  1.000000e+001
      vertex  8.200000e+000  2.000000e+001  3.000000e+001
      vertex  8.200000e+000  2.000000e+001  1.000000e+001
    endloop
  endfacet
  facet normal -5.877852e-001  8.090170e-001  0.000000e+000
    outer loop
      vertex  7.588854e+000  1.811909e+001  3.000000e+001
      vertex  5.988854e+000  1.695662e+001  1.000000e+001
      vertex  5.988854e+000  1.695662e+001  3.000000e+001
    endloop
  endfacet
  facet normal  0.000000e+000  1.000000e+000  0.000000e+000
    outer loop
      vertex  5.988854e+000  1.695662e+001  3.000000e+001
      vertex  5.988854e+000  1.695662e+001  1.000000e+001
      vertex  4.011146e+000  1.695662e+001  1.000000e+001
    endloop
  endfacet
  facet normal  0.000000e+000  1.000000e+000  0.000000e+000
    outer loop
      vertex  5.988854e+000  1.695662e+001  3.000000e+001
      vertex  4.011146e+000  1.695662e+001  1.000000e+001
      vertex  4.011146e+000  1.695662e+001  3.000000e+001
    endloop
  endfacet
  facet normal  5.877852e-001  8.090170e-001  0.000000e+000
    outer loop
      vertex  4.011146e+000  1.695662e+001  3.000000e+001
      vertex  4.011146e+000  1.695662e+001  1.000000e+001
      vertex  2.411146e+000  1.811909e+001  1.000000e+001
    endloop
  endfacet
  facet normal  5.877852e-001  8.090170e-001  -0.000000e+000
    outer loop
      vertex  4.011146e+000  1.695662e+001  3.000000e+001
      vertex  2.411146e+000  1.811909e+001  1.000000e+001
      vertex  2.411146e+000  1.811909e+001  3.000000e+001
    endloop
  endfacet
  facet normal  9.510565e-001  3.090171e-001  0.000000e+000
    outer loop
      vertex  2.411146e+000  1.811909e+001  3.000000e+001
      vertex  2.411146e+000  1.811909e+001  1.000000e+001
      vertex  1.800000e+000  2.000000e+001  1.000000e+001
    endloop
  endfacet
  facet normal  9.510565e-001  3.090171e-001  -0.000000e+000
    outer loop
      vertex  2.411146e+000  1.811909e+001  3.000000e+001
      vertex  1.800000e+000  2.000000e+001  1.000000e+001
      vertex  1.800000e+000  2.000000e+001  3.000000e+001
    endloop
  endfacet
  facet normal  5.877852e-001 -8.090170e-001  0.000000e+000
    outer loop
      vertex  4.011146e+000  2.304338e+001  1.000000e+001
      vertex  2.411146e+000  2.188091e+001  3.000000e+001
      vertex  2.411146e+000  2.188091e+001  1.000000e+001
    endloop
  endfacet
  facet normal  9.510565e-001 -3.090171e-001  0.000000e+000
    outer loop
      vertex  2.411146e+000  2.188091e+001  1.000000e+001
      vertex  2.411146e+000  2.188091e+001  3.000000e+001
      vertex  1.800000e+000  2.000000e+001  3.000000e+001
    endloop
  endfacet
  facet normal  9.510565e-001 -3.090171e-001  0.000000e+000
    outer loop
      vertex  2.411146e+000  2.188091e+001  1.000000e+001
      vertex  1.800000e+000  2.000000e+001  3.000000e+001
      vertex  1.800000e+000  2.000000e+001  1.000000e+001
    endloop
  endfacet
  facet normal  5.877852e-001 -8.090170e-001  0.000000e+000
    outer loop
      vertex  2.411146e+000  2.188091e+001  3.000000e+001
      vertex  4.011146e+000  2.304338e+001  1.000000e+001
      vertex  4.011146e+000  2.304338e+001  3.000000e+001
    endloop
  endfacet
  facet normal  0.000000e+000 -1.000000e+000  0.000000e+000
    outer loop
      vertex  4.011146e+000  2.304338e+001  3.000000e+001
      vertex  4.011146e+000  2.304338e+001  1.000000e+001
      vertex  5.988854e+000  2.304338e+001  1.000000e+001
    endloop
  endfacet
  facet normal  0.000000e+000 -1.000000e+000  0.000000e+000
    outer loop
      vertex  4.011146e+000  2.304338e+001  3.000000e+001
      vertex  5.988854e+000  2.304338e+001  1.000000e+001
      vertex  5.988854e+000  2.304338e+001  3.000000e+001
    endloop
  endfacet
  facet normal -5.877852e-001 -8.090170e-001  -0.000000e+000
    outer loop
      vertex  5.988854e+000  2.304338e+001  3.000000e+001
      vertex  5.988854e+000  2.304338e+001  1.000000e+001
      vertex  7.588854e+000  2.188091e+001  1.000000e+001
    endloop
  endfacet
  facet normal -5.877852e-001 -8.090170e-001  0.000000e+000
    outer loop
      vertex  5.988854e+000  2.304338e+001  3.000000e+001
      vertex  7.588854e+000  2.188091e+001  1.000000e+001
      vertex  7.588854e+000  2.188091e+001  3.000000e+001
    endloop
  endfacet
  facet normal -9.510565e-001 -3.090169e-001  -0.000000e+000
    outer loop
      vertex  7.588854e+000  2.188091e+001  3.000000e+001
      vertex  7.588854e+000  2.188091e+001  1.000000e+001
      vertex  8.200000e+000  2.000000e+001  1.000000e+001
    endloop
  endfacet
  facet normal -9.510565e-001 -3.090169e-001  0.000000e+000
    outer loop
      vertex  7.588854e+000  2.188091e+001  3.000000e+001
      vertex  8.200000e+000  2.000000e+001  1.000000e+001
      vertex  8.200000e+000  2.000000e+001  3.000000e+001
    endloop
  endfacet
  facet normal -5.877856e-001  8.090168e-001  0.000000e+000
    outer loop
      vertex  7.598885e+001  1.695662e+001  1.000000e+001
      vertex  7.758885e+001  1.811909e+001  3.000000e+001
      vertex  7.758885e+001  1.811909e+001  1.000000e+001
    endloop
  endfacet
  facet normal -9.510566e-001  3.090167e-001  0.000000e+000
    outer loop
      vertex  7.758885e+001  1.811909e+001  1.000000e+001
      vertex  7.758885e+001  1.811909e+001  3.000000e+001
      vertex  7.820000e+001  2.000000e+001  3.000000e+001
    endloop
  endfacet
  facet normal -9.510566e-001  3.090167e-001  0.000000e+000
    outer loop
      vertex  7.758885e+001  1.811909e+001  1.000000e+001
      vertex  7.820000e+001  2.000000e+001  3.000000e+001
      vertex  7.820000e+001  2.000000e+001  1.000000e+001
    endloop
  endfacet
  facet normal -5.877856e-001  8.090168e-001  0.000000e+000
    outer loop
      vertex  7.758885e+001  1.811909e+001  3.000000e+001
      vertex  7.598885e+001  1.695662e+001  1.000000e+001
      vertex  7.598885e+001  1.695662e+001  3.000000e+001
    endloop
  endfacet
  facet normal  0.000000e+000  1.000000e+000  0.000000e+000
    outer loop
      vertex  7.598885e+001  1.695662e+001  3.000000e+001
      vertex  7.598885e+001  1.695662e+001  1.000000e+001
      vertex  7.401115e+001  1.695662e+001  1.000000e+001
    endloop
  endfacet
  facet normal  0.000000e+000  1.000000e+000  0.000000e+000
    outer loop
      vertex  7.598885e+001  1.695662e+001  3.000000e+001
      vertex  7.401115e+001  1.695662e+001  1.000000e+001
      vertex  7.401115e+001  1.695662e+001  3.000000e+001
    endloop
  endfacet
  facet normal  5.877856e-001  8.090168e-001  0.000000e+000
    outer loop
      vertex  7.401115e+001  1.695662e+001  3.000000e+001
      vertex  7.401115e+001  1.695662e+001  1.000000e+001
      vertex  7.241115e+001  1.811909e+001  1.000000e+001
    endloop
  endfacet
  facet normal  5.877856e-001  8.090168e-001  -0.000000e+000
    outer loop
      vertex  7.401115e+001  1.695662e+001  3.000000e+001
      vertex  7.241115e+001  1.811909e+001  1.000000e+001
      vertex  7.241115e+001  1.811909e+001  3.000000e+001
    endloop
  endfacet
  facet normal  9.510566e-001  3.090167e-001  0.000000e+000
    outer loop
      vertex  7.241115e+001  1.811909e+001  3.000000e+001
      vertex  7.241115e+001  1.811909e+001  1.000000e+001
      vertex  7.180000e+001  2.000000e+001  1.000000e+001
    endloop
  endfacet
  facet normal  9.510566e-001  3.090167e-001  -0.000000e+000
    outer loop
      vertex  7.241115e+001  1.811909e+001  3.000000e+001
      vertex  7.180000e+001  2.000000e+001  1.000000e+001
      vertex  7.180000e+001  2.000000e+001  3.000000e+001
    endloop
  endfacet
  facet normal  5.877856e-001 -8.090168e-001  0.000000e+000
    outer loop
      vertex  7.401115e+001  2.304338e+001  1.000000e+001
      vertex  7.241115e+001  2.188091e+001  3.000000e+001
      vertex  7.241115e+001  2.188091e+001  1.000000e+001
    endloop
  endfacet
  facet normal  9.510566e-001 -3.090167e-001  0.000000e+000
    outer loop
      vertex  7.241115e+001  2.188091e+001  1.000000e+001
      vertex  7.241115e+001  2.188091e+001  3.000000e+001
      vertex  7.180000e+001  2.000000e+001  3.000000e+001
    endloop
  endfacet
  facet normal  9.510566e-001 -3.090167e-001  0.000000e+000
    outer loop
      vertex  7.241115e+001  2.188091e+001  1.000000e+001
      vertex  7.180000e+001  2.000000e+001  3.000000e+001
      vertex  7.180000e+001  2.000000e+001  1.000000e+001
    endloop
  endfacet
  facet normal  5.877856e-001 -8.090168e-001  0.000000e+000
    outer loop
      vertex  7.241115e+001  2.188091e+001  3.000000e+001
      vertex  7.401115e+001  2.304338e+001  1.000000e+001
      vertex  7.401115e+001  2.304338e+001  3.000000e+001
    endloop
  endfacet
  facet normal  0.000000e+000 -1.000000e+000  0.000000e+000
    outer loop
      vertex  7.401115e+001  2.304338e+001  3.000000e+001
      vertex  7.401115e+001  2.304338e+001  1.000000e+001
      vertex  7.598885e+001  2.304338e+001  1.000000e+001
    endloop
  endfacet
  facet normal  0.000000e+000 -1.000000e+000  0.000000e+000
    outer loop
      vertex  7.401115e+001  2.304338e+001  3.000000e+001
      vertex  7.598885e+001  2.304338e+001  1.000000e+001
      vertex  7.598885e+001  2.304338e+001  3.000000e+001
    endloop
  endfacet
  facet normal -5.877856e-001 -8.090168e-001  -0.000000e+000
    outer loop
      vertex  7.598885e+001  2.304338e+001  3.000000e+001
      vertex  7.598885e+001  2.304338e+001  1.000000e+001
      vertex  7.758885e+001  2.188091e+001  1.000000e+001
    endloop
  endfacet
  facet normal -5.877856e-001 -8.090168e-001  0.000000e+000
    outer loop
      vertex  7.598885e+001  2.304338e+001  3.000000e+001
      vertex  7.758885e+001  2.188091e+001  1.000000e+001
      vertex  7.758885e+001  2.188091e+001  3.000000e+001
    endloop
  endfacet
  facet normal -9.510566e-001 -3.090167e-001  -0.000000e+000
    outer loop
      vertex  7.758885e+001  2.188091e+001  3.000000e+001
      vertex  7.758885e+001  2.188091e+001  1.000000e+001
      vertex  7.820000e+001  2.000000e+001  1.000000e+001
    endloop
  endfacet
  facet normal -9.510566e-001 -3.090167e-001  0.000000e+000
    outer loop
      vertex  7.758885e+001  2.188091e+001  3.000000e+001
      vertex  7.820000e+001  2.000000e+001  1.000000e+001
      vertex  7.820000e+001  2.000000e+001  3.000000e+001
    endloop
  endfacet
  facet normal  -0.000000e+000  0.000000e+000  1.000000e+000
    outer loop
      vertex  8.000000e+001  2.500000e+001  3.000000e+001
      vertex  7.598885e+001  2.304338e+001  3.000000e+001
      vertex  7.758885e+001  2.188091e+001  3.000000e+001
    endloop
  endfacet
  facet normal  0.000000e+000  0.000000e+000  1.000000e+000
    outer loop
      vertex  7.000000e+001  2.500000e+001  3.000000e+001
      vertex  7.000000e+001  1.500000e+001  3.000000e+001
      vertex  7.241115e+001  2.188091e+001  3.000000e+001
    endloop
  endfacet
  facet normal  0.000000e+000  -0.000000e+000  1.000000e+000
    outer loop
      vertex  7.000000e+001  2.500000e+001  3.000000e+001
      vertex  7.241115e+001  2.188091e+001  3.000000e+001
      vertex  7.401115e+001  2.304338e+001  3.000000e+001
    endloop
  endfacet
  facet normal  0.000000e+000  -0.000000e+000  1.000000e+000
    outer loop
      vertex  7.000000e+001  2.500000e+001  3.000000e+001
      vertex  7.401115e+001  2.304338e+001  3.000000e+001
      vertex  7.598885e+001  2.304338e+001  3.000000e+001
    endloop
  endfacet
  facet normal  0.000000e+000  -0.000000e+000  1.000000e+000
    outer loop
      vertex  7.000000e+001  2.500000e+001  3.000000e+001
      vertex  7.598885e+001  2.304338e+001  3.000000e+001
      vertex  8.000000e+001  2.500000e+001  3.000000e+001
    endloop
  endfacet
  facet normal  0.000000e+000  0.000000e+000  1.000000e+000
    outer loop
      vertex  7.000000e+001  1.500000e+001  3.000000e+001
      vertex  8.000000e+001  1.500000e+001  3.000000e+001
      vertex  7.598885e+001  1.695662e+001  3.000000e+001
    endloop
  endfacet
  facet normal  0.000000e+000  0.000000e+000  1.000000e+000
    outer loop
      vertex  7.000000e+001  1.500000e+001  3.000000e+001
      vertex  7.598885e+001  1.695662e+001  3.000000e+001
      vertex  7.401115e+001  1.695662e+001  3.000000e+001
    endloop
  endfacet
  facet normal  0.000000e+000  0.000000e+000  1.000000e+000
    outer loop
      vertex  7.000000e+001  1.500000e+001  3.000000e+001
      vertex  7.401115e+001  1.695662e+001  3.000000e+001
      vertex  7.241115e+001  1.811909e+001  3.000000e+001
    endloop
  endfacet
  facet normal  0.000000e+000  0.000000e+000  1.000000e+000
    outer loop
      vertex  7.000000e+001  1.500000e+001  3.000000e+001
      vertex  7.241115e+001  1.811909e+001  3.000000e+001
      vertex  7.180000e+001  2.000000e+001  3.000000e+001
    endloop
  endfacet
  facet normal  0.000000e+000  -0.000000e+000  1.000000e+000
    outer loop
      vertex  7.000000e+001  1.500000e+001  3.000000e+001
      vertex  7.180000e+001  2.000000e+001  3.000000e+001
      vertex  7.241115e+001  2.188091e+001  3.000000e+001
    endloop
  endfacet
  facet normal  0.000000e+000  0.000000e+000  1.000000e+000
    outer loop
      vertex  8.000000e+001  1.500000e+001  3.000000e+001
      vertex  8.000000e+001  2.500000e+001  3.000000e+001
      vertex  7.758885e+001  2.188091e+001  3.000000e+001
    endloop
  endfacet
  facet normal  0.000000e+000  0.000000e+000  1.000000e+000
    outer loop
      vertex  8.000000e+001  1.500000e+001  3.000000e+001
      vertex  7.758885e+001  2.188091e+001  3.000000e+001
      vertex  7.820000e+001  2.000000e+001  3.000000e+001
    endloop
  endfacet
  facet normal  0.000000e+000  0.000000e+000  1.000000e+000
    outer loop
      vertex  8.000000e+001  1.500000e+001  3.000000e+001
      vertex  7.820000e+001  2.000000e+001  3.000000e+001
      vertex  7.758885e+001  1.811909e+001  3.000000e+001
    endloop
  endfacet
  facet normal  0.000000e+000  0.000000e+000  1.000000e+000
    outer loop
      vertex  8.000000e+001  1.500000e+001  3.000000e+001
      vertex  7.758885e+001  1.811909e+001  3.000000e+001
      vertex  7.598885e+001  1.695662e+001  3.000000e+001
    endloop
  endfacet
  facet normal  -0.000000e+000  0.000000e+000  1.000000e+000
    outer loop
      vertex  1.000000e+001  2.500000e+001  3.000000e+001
      vertex  5.988854e+000  2.304338e+001  3.000000e+001
      vertex  7.588854e+000  2.188091e+001  3.000000e+001
    endloop
  endfacet
  facet normal  0.000000e+000  0.000000e+000  1.000000e+000
    outer loop
      vertex  7.105427e-015  2.500000e+001  3.000000e+001
      vertex  7.105427e-015  1.500000e+001  3.000000e+001
      vertex  2.411146e+000  2.188091e+001  3.000000e+001
    endloop
  endfacet
  facet normal  0.000000e+000  -0.000000e+000  1.000000e+000
    outer loop
      vertex  7.105427e-015  2.500000e+001  3.000000e+001
      vertex  2.411146e+000  2.188091e+001  3.000000e+001
      vertex  4.011146e+000  2.304338e+001  3.000000e+001
    endloop
  endfacet
  facet normal  0.000000e+000  -0.000000e+000  1.000000e+000
    outer loop
      vertex  7.105427e-015  2.500000e+001  3.000000e+001
      vertex  4.011146e+000  2.304338e+001  3.000000e+001
      vertex  5.988854e+000  2.304338e+001  3.000000e+001
    endloop
  endfacet
  facet normal  0.000000e+000  -0.000000e+000  1.000000e+000
    outer loop
      vertex  7.105427e-015  2.500000e+001  3.000000e+001
      vertex  5.988854e+000  2.304338e+001  3.000000e+001
      vertex  1.000000e+001  2.500000e+001  3.000000e+001
    endloop
  endfacet
  facet normal  0.000000e+000  0.000000e+000  1.000000e+000
    outer loop
      vertex  7.105427e-015  1.500000e+001  3.000000e+001
      vertex  1.000000e+001  1.500000e+001  3.000000e+001
      vertex  5.988854e+000  1.695662e+001  3.000000e+001
    endloop
  endfacet
  facet normal  0.000000e+000  0.000000e+000  1.000000e+000
    outer loop
      vertex  7.105427e-015  1.500000e+001  3.000000e+001
      vertex  5.988854e+000  1.695662e+001  3.000000e+001
      vertex  4.011146e+000  1.695662e+001  3.000000e+001
    endloop
  endfacet
  facet normal  0.000000e+000  0.000000e+000  1.000000e+000
    outer loop
      vertex  7.105427e-015  1.500000e+001  3.000000e+001
      vertex  4.011146e+000  1.695662e+001  3.000000e+001
      vertex  2.411146e+000  1.811909e+001  3.000000e+001
    endloop
  endfacet
  facet normal  0.000000e+000  0.000000e+000  1.000000e+000
    outer loop
      vertex  7.105427e-015  1.500000e+001  3.000000e+001
      vertex  2.411146e+000  1.811909e+001  3.000000e+001
      vertex  1.800000e+000  2.000000e+001  3.000000e+001
    endloop
  endfacet
  facet normal  0.000000e+000  -0.000000e+000  1.000000e+000
    outer loop
      vertex  7.105427e-015  1.500000e+001  3.000000e+001
      vertex  1.800000e+000  2.000000e+001  3.000000e+001
      vertex  2.411146e+000  2.188091e+001  3.000000e+001
    endloop
  endfacet
  facet normal  0.000000e+000  0.000000e+000  1.000000e+000
    outer loop
      vertex  1.000000e+001  1.500000e+001  3.000000e+001
      vertex  1.000000e+001  2.500000e+001  3.000000e+001
      vertex  7.588854e+000  2.188091e+001  3.000000e+001
    endloop
  endfacet
  facet normal  0.000000e+000  0.000000e+000  1.000000e+000
    outer loop
      vertex  1.000000e+001  1.500000e+001  3.000000e+001
      vertex  7.588854e+000  2.188091e+001  3.000000e+001
      vertex  8.200000e+000  2.000000e+001  3.000000e+001
    endloop
  endfacet
  facet normal  0.000000e+000  0.000000e+000  1.000000e+000
    outer loop
      vertex  1.000000e+001  1.500000e+001  3.000000e+001
      vertex  8.200000e+000  2.000000e+001  3.000000e+001
      vertex  7.588854e+000  1.811909e+001  3.000000e+001
    endloop
  endfacet
  facet normal  0.000000e+000  0.000000e+000  1.000000e+000
    outer loop
      vertex  1.000000e+001  1.500000e+001  3.000000e+001
      vertex  7.588854e+000  1.811909e+001  3.000000e+001
      vertex  5.988854e+000  1.695662e+001  3.000000e+001
    endloop
  endfacet
  facet normal -1.000000e+000  0.000000e+000  0.000000e+000
    outer loop
      vertex  5.900000e+001  4.000000e+001  0.000000e+000
      vertex  5.900000e+001  2.106066e+001  3.939340e+000
      vertex  5.900000e+001  2.150000e+001  5.000000e+000
    endloop
  endfacet
  facet normal -1.000000e+000  0.000000e+000  0.000000e+000
    outer loop
      vertex  5.900000e+001  4.000000e+001  0.000000e+000
      vertex  5.900000e+001  2.000000e+001  3.500000e+000
      vertex  5.900000e+001  2.106066e+001  3.939340e+000
    endloop
  endfacet
  facet normal -1.000000e+000  0.000000e+000  0.000000e+000
    outer loop
      vertex  5.900000e+001  4.000000e+001  1.000000e+001
      vertex  5.900000e+001  4.000000e+001  0.000000e+000
      vertex  5.900000e+001  2.150000e+001  5.000000e+000
    endloop
  endfacet
  facet normal -9.999999e-001  0.000000e+000  0.000000e+000
    outer loop
      vertex  5.900000e+001  4.000000e+001  1.000000e+001
      vertex  5.900000e+001  2.150000e+001  5.000000e+000
      vertex  5.900000e+001  2.106066e+001  6.060660e+000
    endloop
  endfacet
  facet normal -1.000000e+000  0.000000e+000  0.000000e+000
    outer loop
      vertex  5.900000e+001  4.000000e+001  1.000000e+001
      vertex  5.900000e+001  2.106066e+001  6.060660e+000
      vertex  5.900000e+001  2.000000e+001  6.500000e+000
    endloop
  endfacet
  facet normal -1.000000e+000  0.000000e+000  0.000000e+000
    outer loop
      vertex  5.900000e+001  4.000000e+001  1.000000e+001
      vertex  5.900000e+001  2.000000e+001  6.500000e+000
      vertex  5.900000e+001  0.000000e+000  1.000000e+001
    endloop
  endfacet
  facet normal -1.000000e+000  -0.000000e+000  0.000000e+000
    outer loop
      vertex  5.900000e+001  0.000000e+000  1.000000e+001
      vertex  5.900000e+001  2.000000e+001  6.500000e+000
      vertex  5.900000e+001  1.893934e+001  6.060660e+000
    endloop
  endfacet
  facet normal -9.999999e-001  -0.000000e+000  0.000000e+000
    outer loop
      vertex  5.900000e+001  0.000000e+000  1.000000e+001
      vertex  5.900000e+001  1.893934e+001  6.060660e+000
      vertex  5.900000e+001  1.850000e+001  5.000000e+000
    endloop
  endfacet
  facet normal -1.000000e+000  -0.000000e+000  0.000000e+000
    outer loop
      vertex  5.900000e+001  0.000000e+000  1.000000e+001
      vertex  5.900000e+001  1.850000e+001  5.000000e+000
      vertex  5.900000e+001  0.000000e+000  0.000000e+000
    endloop
  endfacet
  facet normal -1.000000e+000  0.000000e+000  -0.000000e+000
    outer loop
      vertex  5.900000e+001  0.000000e+000  0.000000e+000
      vertex  5.900000e+001  1.850000e+001  5.000000e+000
      vertex  5.900000e+001  1.893934e+001  3.939340e+000
    endloop
  endfacet
  facet normal -1.000000e+000  0.000000e+000  -0.000000e+000
    outer loop
      vertex  5.900000e+001  0.000000e+000  0.000000e+000
      vertex  5.900000e+001  1.893934e+001  3.939340e+000
      vertex  5.900000e+001  2.000000e+001  3.500000e+000
    endloop
  endfacet
  facet normal -1.000000e+000  0.000000e+000  -0.000000e+000
    outer loop
      vertex  5.900000e+001  0.000000e+000  0.000000e+000
      vertex  5.900000e+001  2.000000e+001  3.500000e+000
      vertex  5.900000e+001  4.000000e+001  0.000000e+000
    endloop
  endfacet
  facet normal  0.000000e+000 -1.000000e+000  0.000000e+000
    outer loop
      vertex  1.000000e+001  1.500000e+001  3.000000e+001
      vertex  7.105427e-015  1.500000e+001  3.000000e+001
      vertex  1.000000e+001  1.500000e+001  2.000000e+001
    endloop
  endfacet
  facet normal  0.000000e+000 -1.000000e+000  0.000000e+000
    outer loop
      vertex  1.000000e+001  1.500000e+001  2.000000e+001
      vertex  7.105427e-015  1.500000e+001  3.000000e+001
      vertex  0.000000e+000  1.500000e+001  2.000000e+001
    endloop
  endfacet
  facet normal  0.000000e+000  1.000000e+000  0.000000e+000
    outer loop
      vertex  7.105427e-015  2.500000e+001  3.000000e+001
      vertex  1.000000e+001  2.500000e+001  3.000000e+001
      vertex  0.000000e+000  2.500000e+001  2.000000e+001
    endloop
  endfacet
  facet normal  0.000000e+000  1.000000e+000  0.000000e+000
    outer loop
      vertex  0.000000e+000  2.500000e+001  2.000000e+001
      vertex  1.000000e+001  2.500000e+001  3.000000e+001
      vertex  1.000000e+001  2.500000e+001  2.000000e+001
    endloop
  endfacet
  facet normal  0.000000e+000 -1.000000e+000  0.000000e+000
    outer loop
      vertex  8.000000e+001  1.500000e+001  3.000000e+001
      vertex  7.000000e+001  1.500000e+001  3.000000e+001
      vertex  8.000000e+001  1.500000e+001  2.000000e+001
    endloop
  endfacet
  facet normal  0.000000e+000 -1.000000e+000  0.000000e+000
    outer loop
      vertex  8.000000e+001  1.500000e+001  2.000000e+001
      vertex  7.000000e+001  1.500000e+001  3.000000e+001
      vertex  7.000000e+001  1.500000e+001  2.000000e+001
    endloop
  endfacet
  facet normal  0.000000e+000  1.000000e+000  0.000000e+000
    outer loop
      vertex  7.000000e+001  2.500000e+001  3.000000e+001
      vertex  8.000000e+001  2.500000e+001  3.000000e+001
      vertex  7.000000e+001  2.500000e+001  2.000000e+001
    endloop
  endfacet
  facet normal  0.000000e+000  1.000000e+000  0.000000e+000
    outer loop
      vertex  7.000000e+001  2.500000e+001  2.000000e+001
      vertex  8.000000e+001  2.500000e+001  3.000000e+001
      vertex  8.000000e+001  2.500000e+001  2.000000e+001
    endloop
  endfacet
  facet normal  -0.000000e+000  0.000000e+000  1.000000e+000
    outer loop
      vertex  8.000000e+001  4.000000e+001  2.000000e+001
      vertex  0.000000e+000  4.000000e+001  2.000000e+001
      vertex  0.000000e+000  2.500000e+001  2.000000e+001
    endloop
  endfacet
  facet normal  0.000000e+000  0.000000e+000  1.000000e+000
    outer loop
      vertex  8.000000e+001  4.000000e+001  2.000000e+001
      vertex  0.000000e+000  2.500000e+001  2.000000e+001
      vertex  1.000000e+001  2.500000e+001  2.000000e+001
    endloop
  endfacet
  facet normal  0.000000e+000  0.000000e+000  1.000000e+000
    outer loop
      vertex  8.000000e+001  4.000000e+001  2.000000e+001
      vertex  1.000000e+001  2.500000e+001  2.000000e+001
      vertex  7.000000e+001  2.500000e+001  2.000000e+001
    endloop
  endfacet
  facet normal  0.000000e+000  0.000000e+000  1.000000e+000
    outer loop
      vertex  8.000000e+001  4.000000e+001  2.000000e+001
      vertex  7.000000e+001  2.500000e+001  2.000000e+001
      vertex  8.000000e+001  2.500000e+001  2.000000e+001
    endloop
  endfacet
  facet normal  0.000000e+000  -0.000000e+000  1.000000e+000
    outer loop
      vertex  0.000000e+000  0.000000e+000  2.000000e+001
      vertex  8.000000e+001  0.000000e+000  2.000000e+001
      vertex  8.000000e+001  1.500000e+001  2.000000e+001
    endloop
  endfacet
  facet normal  0.000000e+000  0.000000e+000  1.000000e+000
    outer loop
      vertex  0.000000e+000  0.000000e+000  2.000000e+001
      vertex  8.000000e+001  1.500000e+001  2.000000e+001
      vertex  7.000000e+001  1.500000e+001  2.000000e+001
    endloop
  endfacet
  facet normal  0.000000e+000  0.000000e+000  1.000000e+000
    outer loop
      vertex  0.000000e+000  0.000000e+000  2.000000e+001
      vertex  7.000000e+001  1.500000e+001  2.000000e+001
      vertex  1.000000e+001  1.500000e+001  2.000000e+001
    endloop
  endfacet
  facet normal  0.000000e+000  0.000000e+000  1.000000e+000
    outer loop
      vertex  0.000000e+000  0.000000e+000  2.000000e+001
      vertex  1.000000e+001  1.500000e+001  2.000000e+001
      vertex  0.000000e+000  1.500000e+001  2.000000e+001
    endloop
  endfacet
  facet normal  0.000000e+000  0.000000e+000  1.000000e+000
    outer loop
      vertex  1.000000e+001  1.500000e+001  2.000000e+001
      vertex  7.000000e+001  1.500000e+001  2.000000e+001
      vertex  1.000000e+001  2.500000e+001  2.000000e+001
    endloop
  endfacet
  facet normal  -0.000000e+000  0.000000e+000  1.000000e+000
    outer loop
      vertex  1.000000e+001  2.500000e+001  2.000000e+001
      vertex  7.000000e+001  1.500000e+001  2.000000e+001
      vertex  7.000000e+001  2.500000e+001  2.000000e+001
    endloop
  endfacet
  facet normal  1.000000e+000  0.000000e+000  0.000000e+000
    outer loop
      vertex  1.000000e+001  1.500000e+001  3.000000e+001
      vertex  1.000000e+001  1.500000e+001  2.000000e+001
      vertex  1.000000e+001  2.500000e+001  3.000000e+001
    endloop
  endfacet
  facet normal  1.000000e+000  0.000000e+000  0.000000e+000
    outer loop
      vertex  1.000000e+001  2.500000e+001  3.000000e+001
      vertex  1.000000e+001  1.500000e+001  2.000000e+001
      vertex  1.000000e+001  2.500000e+001  2.000000e+001
    endloop
  endfacet
  facet normal -1.000000e+000  0.000000e+000  0.000000e+000
    outer loop
      vertex  7.000000e+001  2.500000e+001  3.000000e+001
      vertex  7.000000e+001  2.500000e+001  2.000000e+001
      vertex  7.000000e+001  1.500000e+001  3.000000e+001
    endloop
  endfacet
  facet normal -1.000000e+000  0.000000e+000  0.000000e+000
    outer loop
      vertex  7.000000e+001  1.500000e+001  3.000000e+001
      vertex  7.000000e+001  2.500000e+001  2.000000e+001
      vertex  7.000000e+001  1.500000e+001  2.000000e+001
    endloop
  endfacet
  facet normal  0.000000e+000  0.000000e+000 -1.000000e+000
    outer loop
      vertex  5.900000e+001  0.000000e+000  1.000000e+001
      vertex  1.700000e+001  0.000000e+000  1.000000e+001
      vertex  5.900000e+001  4.000000e+001  1.000000e+001
    endloop
  endfacet
  facet normal  -0.000000e+000  0.000000e+000 -1.000000e+000
    outer loop
      vertex  5.900000e+001  4.000000e+001  1.000000e+001
      vertex  1.700000e+001  0.000000e+000  1.000000e+001
      vertex  1.700000e+001  4.000000e+001  1.000000e+001
    endloop
  endfacet
  facet normal  1.000000e+000  0.000000e+000  0.000000e+000
    outer loop
      vertex  1.700000e+001  4.000000e+001  0.000000e+000
      vertex  1.700000e+001  4.000000e+001  1.000000e+001
      vertex  1.700000e+001  0.000000e+000  0.000000e+000
    endloop
  endfacet
  facet normal  1.000000e+000  0.000000e+000  0.000000e+000
    outer loop
      vertex  1.700000e+001  0.000000e+000  0.000000e+000
      vertex  1.700000e+001  4.000000e+001  1.000000e+001
      vertex  1.700000e+001  0.000000e+000  1.000000e+001
    endloop
  endfacet
endsolid CATIA STL
